<svg id="Layer_1" data-name="Layer 1" xmlns="http://www.w3.org/2000/svg" viewBox="0 0 63.91 47"><defs><style>.cls-1{fill:#231f20}</style></defs><title>icon</title><path class="cls-1" d="M26.67 47a2.72 2.72 0 0 1-.65-.08 2.61 2.61 0 0 1-1.94-3.16L34.74 2A2.66 2.66 0 0 1 38 .08a2.61 2.61 0 0 1 1.94 3.17L29.25 45a2.66 2.66 0 0 1-2.58 2zM16 41.78a2.68 2.68 0 0 1-2.07-1l-13.3-16a2.57 2.57 0 0 1 0-3.41L14 6.15a2.71 2.71 0 0 1 3.76-.3A2.57 2.57 0 0 1 18 9.53L6.14 23.21l11.93 14.31a2.57 2.57 0 0 1-.38 3.67 2.69 2.69 0 0 1-1.69.59zm32 0a2.69 2.69 0 0 1-1.73-.62 2.58 2.58 0 0 1-.3-3.68l11.89-13.69-11.93-14.3a2.57 2.57 0 0 1 .38-3.67 2.7 2.7 0 0 1 3.75.37l13.3 16a2.57 2.57 0 0 1 .36 2.81 2.52 2.52 0 0 1-.4.58L50 40.86a2.69 2.69 0 0 1-2 .92z"/></svg>