<?xml version="1.0" standalone="no"?>
<!DOCTYPE svg PUBLIC "-//W3C//DTD SVG 1.1//EN" "http://www.w3.org/Graphics/SVG/1.1/DTD/svg11.dtd" >
<svg xmlns="http://www.w3.org/2000/svg">
<metadata></metadata>
<defs>
<font id="helveticaneuecyrlight_italic" horiz-adv-x="1138" >
<font-face units-per-em="2048" ascent="1638" descent="-410" />
<missing-glyph horiz-adv-x="569" />
<glyph horiz-adv-x="2048" />
<glyph horiz-adv-x="2048" />
<glyph unicode="&#xd;" horiz-adv-x="2048" />
<glyph unicode=" "  horiz-adv-x="569" />
<glyph unicode="&#x09;" horiz-adv-x="569" />
<glyph unicode="&#xa0;" horiz-adv-x="569" />
<glyph unicode="!" horiz-adv-x="569" d="M59 0l43 203h152l-43 -203h-152zM174 365l107 643l94 450h137l-96 -450l-166 -643h-76z" />
<glyph unicode="&#x22;" horiz-adv-x="757" d="M217 840l107 575h110l-135 -575h-82zM520 840l109 575h108l-135 -575h-82z" />
<glyph unicode="#" d="M12 432l21 98h233l78 357h-231l20 98h234l94 430h110l-94 -430h281l94 430h111l-95 -430h234l-23 -98h-233l-78 -357h231l-22 -98h-232l-94 -432h-110l94 432h-281l-94 -432h-110l94 432h-232zM377 530h280l78 357h-280z" />
<glyph unicode="$" d="M-4 381q0 24 2 49h123q-2 -23 -2 -47q0 -134 72 -213t208 -94l129 614q-44 14 -76 25t-72 29t-67.5 36t-56 44.5t-45.5 56.5t-28 70t-11 87q0 184 132 300t341 116q6 0 19 -1t24 -1l31 147h74l-31 -151q348 -47 348 -358q0 -4 -1 -15.5t-1 -21.5h-121v32q0 112 -64 179 t-184 82l-118 -562q64 -19 114 -39t101 -52.5t84.5 -71t55 -95.5t21.5 -125q0 -192 -141 -313t-367 -121q-5 0 -17 1t-23 1l-37 -178h-74l39 180q-182 19 -281.5 126t-99.5 284zM295 1053q0 -94 58 -149.5t200 -96.5l115 545h-29q-149 0 -246.5 -85t-97.5 -214zM471 70h29 q160 0 266 91t106 228q0 105 -67 173t-209 108z" />
<glyph unicode="%" horiz-adv-x="1705" d="M141 965q0 85 24 168.5t69 154.5t118.5 115.5t163.5 44.5q130 0 204.5 -79.5t74.5 -211.5q0 -68 -14.5 -135.5t-46 -129.5t-75 -109.5t-106.5 -76t-137 -28.5q-129 0 -202 76.5t-73 210.5zM240 -68l1106 1557h112l-1106 -1557h-112zM252 979q0 -213 168 -213 q65 0 118.5 40t84 101t47 126.5t16.5 125.5q0 91 -43 145t-131 54q-65 0 -117.5 -37.5t-82 -96t-45 -122t-15.5 -123.5zM918 258q0 85 24 168.5t68.5 154.5t118 115.5t163.5 44.5q130 0 204.5 -79t74.5 -211q0 -68 -14.5 -135.5t-46 -130t-75 -110t-106.5 -76t-137 -28.5 q-129 0 -201.5 76.5t-72.5 210.5zM1028 272q0 -213 168 -213q65 0 118.5 40t84 101.5t47 127t16.5 125.5q0 91 -43 144.5t-131 53.5q-65 0 -117.5 -37.5t-82 -96t-45 -122t-15.5 -123.5z" />
<glyph unicode="&#x26;" horiz-adv-x="1251" d="M41 332q0 54 11.5 101.5t29.5 83.5t48 70t57.5 57t67 48.5t68.5 41t71 38t65 35.5q-42 67 -63 105.5t-41.5 101.5t-20.5 121q0 140 94 229.5t242 89.5q138 0 225.5 -75t87.5 -195q0 -44 -13 -85t-30 -72.5t-51 -65.5t-58 -54.5t-70.5 -50t-68.5 -42.5t-71 -40l256 -405 q90 132 118 274h123q-35 -197 -176 -375l176 -268h-145l-115 180q-174 -209 -422 -209q-170 0 -282.5 97t-112.5 264zM164 342q0 -115 78 -189.5t200 -74.5q97 0 193.5 53t161.5 141l-279 447q-12 -7 -46 -25.5t-49.5 -27t-47 -27.5t-48 -31t-43 -32.5t-40.5 -37.5 t-31.5 -40.5t-26.5 -46.5t-15.5 -51t-6.5 -58zM453 1139q0 -19 3 -38.5t6.5 -35t12.5 -37.5t14 -34t18.5 -36l18 -32t20.5 -34.5t19 -31.5q9 5 43 23.5t50 27.5t48.5 29.5t50.5 36t42.5 39.5t37 46t22 50.5t9.5 58.5q0 80 -54.5 129.5t-143.5 49.5q-95 0 -156 -59.5 t-61 -151.5z" />
<glyph unicode="'" horiz-adv-x="569" d="M283 840l106 575h111l-135 -575h-82z" />
<glyph unicode="(" horiz-adv-x="530" d="M96 309q0 318 133.5 617t364.5 551h106q-229 -267 -355 -586t-126 -660q0 -319 100 -614h-88q-63 155 -99 340.5t-36 351.5z" />
<glyph unicode=")" horiz-adv-x="530" d="M-211 -383q237 285 359 591t122 654q0 311 -98 615h88q62 -159 97.5 -338t35.5 -346q0 -327 -126 -614t-369 -562h-109z" />
<glyph unicode="*" horiz-adv-x="720" d="M174 1282l41 72l209 -115l51 244l82 -8l-53 -246l241 49l9 -78l-236 -51l121 -207l-74 -39l-123 217l-176 -190l-59 57l172 182z" />
<glyph unicode="+" horiz-adv-x="1228" d="M66 444v101h452v444h111v-444h454v-101h-454v-444h-111v444h-452z" />
<glyph unicode="," horiz-adv-x="569" d="M-27 -281l17 80q66 20 96.5 70.5t44.5 130.5h-74l45 211h164l-45 -211q-28 -132 -85 -197t-163 -84z" />
<glyph unicode="-" horiz-adv-x="757" d="M78 502l24 121h516l-26 -121h-514z" />
<glyph unicode="." horiz-adv-x="569" d="M47 0l47 211h170l-47 -211h-170z" />
<glyph unicode="/" horiz-adv-x="681" d="M-160 -25l846 1502h111l-844 -1502h-113z" />
<glyph unicode="0" d="M47 471q0 116 21.5 242.5t71 257t120 233.5t179 168.5t237.5 65.5q88 0 157.5 -25t116 -69t77 -107t43.5 -134.5t13 -156.5q0 -81 -10.5 -170t-34.5 -184.5t-58.5 -185t-86 -170t-114 -140t-146 -94.5t-178.5 -35q-195 0 -301.5 131.5t-106.5 372.5zM178 446 q0 -177 74 -272.5t211 -95.5q87 0 162.5 45.5t127 121t91.5 167.5t62.5 191.5t34 187t11.5 159.5q0 377 -278 377q-86 0 -161 -44.5t-128 -119t-94 -166.5t-65 -192.5t-36 -191t-12 -167.5z" />
<glyph unicode="1" d="M274 1073l21 101q298 32 457 253h102l-303 -1427h-133l254 1190q-76 -45 -189 -77t-209 -40z" />
<glyph unicode="2" d="M-25 0q5 67 25.5 129t49.5 110.5t74.5 96t88 82.5t103 74t106 65.5t109.5 61.5q9 5 14 7.5t12.5 7t13.5 7.5q46 26 73.5 41.5t71.5 44.5t71 51.5t59.5 57t50.5 67t30.5 75t12.5 87.5q0 120 -80 192t-213 72q-154 0 -249.5 -99t-110.5 -276h-121q12 223 144.5 354.5 t344.5 131.5q187 0 299.5 -101t112.5 -270q0 -56 -13.5 -107t-33 -91t-55 -80.5t-66.5 -68.5t-80.5 -61.5t-84 -54t-89.5 -51.5q-14 -8 -58.5 -32.5t-68.5 -38t-69 -40t-73 -46.5t-67 -48.5t-65 -54.5t-52.5 -56t-43.5 -62t-25 -64q9 0 35 1t94 1h676l-25 -115h-928z" />
<glyph unicode="3" d="M14 373q0 45 6 82h123q-4 -33 -4 -72q0 -141 86.5 -222t237.5 -81q162 0 269.5 100.5t107.5 261.5q0 250 -332 250q-20 0 -47 -2l22 109q37 -2 74 -2q58 0 110 8t102 28.5t85.5 52t57.5 82t22 115.5q0 110 -77 177t-206 67q-143 0 -237 -87.5t-119 -242.5h-123 q31 209 158 325t325 116q183 0 296.5 -95.5t113.5 -250.5q0 -135 -81 -229t-218 -120q101 -31 157 -110t56 -191q0 -108 -42.5 -198t-114 -149.5t-166 -92.5t-199.5 -33q-203 0 -323 109t-120 295z" />
<glyph unicode="4" d="M-4 354l27 121l872 961h113l-203 -975h217l-25 -107h-215l-73 -354h-127l75 354h-661zM141 459q17 0 51 1t50 1h438l115 543q6 30 53 233z" />
<glyph unicode="5" d="M33 365v43h127q-2 -23 -2 -48q0 -129 83 -205.5t224 -76.5q172 0 282.5 122t110.5 314q0 151 -83.5 236.5t-229.5 85.5q-201 0 -307 -158l-117 6l235 731h731l-24 -112h-625l-157 -467q121 112 303 112q188 0 301.5 -115t113.5 -305q0 -152 -67 -279.5t-190.5 -203.5 t-278.5 -76q-199 0 -314.5 106.5t-115.5 289.5z" />
<glyph unicode="6" d="M72 465q0 137 43 323q25 104 56 190.5t82.5 175.5t115 150t155 99.5t201.5 38.5q182 0 285.5 -96.5t103.5 -266.5v-12h-127q-10 131 -70 198.5t-194 67.5q-234 0 -364 -249q-55 -104 -117 -323q-8 -28 -9 -32q62 96 158.5 149.5t208.5 53.5q187 0 303.5 -118.5 t116.5 -309.5q0 -232 -143.5 -384.5t-362.5 -152.5q-212 0 -327 130t-115 368zM203 416q0 -154 87 -247t232 -93q159 0 263 121t104 307q0 142 -84 229.5t-225 87.5q-164 0 -270.5 -114t-106.5 -291z" />
<glyph unicode="7" d="M207 0q94 326 312.5 679t481.5 613h-776l25 123h913l-24 -112q-256 -248 -467.5 -599t-321.5 -704h-143z" />
<glyph unicode="8" d="M33 377q0 162 103 270t278 131q-97 40 -148 114.5t-51 174.5q0 166 121.5 268.5t318.5 102.5q187 0 299.5 -94.5t112.5 -251.5q0 -128 -85.5 -223.5t-215.5 -114.5q112 -37 175 -125.5t63 -208.5q0 -104 -42.5 -190t-114.5 -141.5t-163.5 -85.5t-191.5 -30 q-212 0 -335.5 109t-123.5 295zM168 375q0 -137 89 -216t243 -79q164 0 266 95t102 247q0 141 -92 214t-235 73q-170 0 -271.5 -91t-101.5 -243zM340 1055q0 -112 79 -178t214 -66q137 0 222 75.5t85 198.5q0 122 -80.5 185t-204.5 63q-143 0 -229 -76t-86 -202z" />
<glyph unicode="9" d="M37 332v12h123v-12q0 -119 73.5 -186.5t202.5 -67.5q68 0 126.5 22t100.5 55.5t79 87t61 103.5t46 118.5t34 118t26 115.5q-134 -217 -374 -217q-184 0 -299 118.5t-115 307.5q0 230 145 383.5t363 153.5q216 0 325 -132.5t109 -359.5q0 -119 -26 -267t-68 -265 q-29 -82 -62.5 -147.5t-80.5 -124t-103 -97.5t-130 -61.5t-161 -22.5q-186 0 -290.5 96.5t-104.5 268.5zM250 905q0 -141 85 -226t226 -85q157 0 263 118.5t106 293.5q0 151 -77 237t-226 86q-163 0 -270 -120.5t-107 -303.5z" />
<glyph unicode=":" horiz-adv-x="569" d="M61 0l48 211h170l-48 -211h-170zM233 815l48 211h170l-48 -211h-170z" />
<glyph unicode=";" horiz-adv-x="569" d="M-16 -281l16 80q66 20 96.5 70.5t44.5 130.5h-73l45 211h163l-45 -211q-28 -132 -85 -197t-162 -84zM233 815l48 211h170l-48 -211h-170z" />
<glyph unicode="&#x3c;" horiz-adv-x="1228" d="M45 477v111l1018 409v-110l-891 -355l891 -352v-108z" />
<glyph unicode="=" horiz-adv-x="1228" d="M63 281v98h1018v-98h-1018zM63 655v99h1018v-99h-1018z" />
<glyph unicode="&#x3e;" horiz-adv-x="1228" d="M113 72v108l891 352l-891 355v110l1017 -409v-111z" />
<glyph unicode="?" horiz-adv-x="1099" d="M178 1006q23 217 147 347t341 130q180 0 289.5 -94.5t109.5 -251.5q0 -63 -20 -120t-41 -93.5t-75 -85.5t-79 -67.5t-96 -68.5q-17 -12 -25 -18q-24 -17 -44.5 -34t-35.5 -30.5t-29 -32t-22.5 -28.5t-18 -30.5t-13.5 -28t-11 -31t-8.5 -29.5t-8.5 -33.5t-8 -33.5h-120 q24 154 78.5 237t185.5 172q53 35 91.5 67t79 76t62 96t21.5 109q0 109 -72.5 175.5t-193.5 66.5q-163 0 -250 -99.5t-111 -266.5h-123zM315 0l45 203h152l-43 -203h-154z" />
<glyph unicode="@" horiz-adv-x="1638" d="M61 705q0 163 64 307.5t174.5 247.5t265 163t328.5 60q199 0 355 -76t242.5 -213.5t86.5 -312.5q0 -141 -57 -264t-153 -196t-206 -73q-69 0 -112 39t-43 102q0 21 14 76q-52 -104 -123 -160.5t-178 -56.5q-121 0 -197 83.5t-76 217.5q0 129 55.5 242.5t149 181.5 t199.5 68q103 0 169 -51.5t83 -143.5l49 166h102l-116 -389q-47 -151 -47 -213q0 -41 27 -65.5t71 -24.5q79 0 153 65.5t119 172.5t45 223q0 236 -170 383t-444 147q-159 0 -299.5 -55t-240.5 -149t-158 -225.5t-58 -279.5q0 -150 59 -275t158.5 -208t231 -128.5 t276.5 -45.5q309 0 582 197l41 -54q-151 -109 -299 -162t-326 -53q-161 0 -306 51.5t-254 144t-173 231.5t-64 305zM567 651q0 -106 49 -168.5t132 -62.5q68 0 128 48t96.5 119t57.5 147t21 138q0 89 -49.5 143t-129.5 54q-76 0 -147 -59.5t-114.5 -157t-43.5 -201.5z" />
<glyph unicode="A" horiz-adv-x="1290" d="M-152 0l891 1458h154l264 -1458h-143l-76 459h-659l-273 -459h-158zM344 571h576l-84 484q-35 206 -43 282q-34 -74 -183 -325z" />
<glyph unicode="B" horiz-adv-x="1366" d="M4 0l307 1458h467q59 0 103 -2t100 -9.5t96 -21t81.5 -38.5t67 -59.5t42 -86.5t16.5 -117q0 -145 -84 -242t-231 -122q118 -26 183 -105t65 -198q0 -151 -87.5 -271t-230.5 -159q-62 -17 -121 -22t-192 -5h-582zM164 119h399q187 0 277 20q105 25 172 112t67 200 q0 51 -13.5 90.5t-33 65.5t-54 44.5t-63.5 27.5t-75.5 14t-76.5 6t-79 1h-395zM311 809h404q66 0 107 2.5t98 16t98 40.5q61 40 95 104.5t34 141.5q0 45 -12 80.5t-30 59t-48.5 40t-58.5 25.5t-69.5 13.5t-71 5.5t-73.5 1h-362z" />
<glyph unicode="C" horiz-adv-x="1441" d="M72 584v6q0 171 54 330q55 162 154.5 289t251.5 203.5t332 76.5q241 0 392 -132t151 -343v-15h-135q-10 180 -115.5 274.5t-294.5 94.5q-120 0 -225.5 -44.5t-181.5 -120.5t-131.5 -175t-83 -210.5t-27.5 -225.5q0 -236 119.5 -372t326.5 -136q195 0 336 111t193 307h141 q-66 -254 -242 -395.5t-430 -141.5q-270 0 -426.5 166t-158.5 453z" />
<glyph unicode="D" horiz-adv-x="1402" d="M4 0l307 1458h375q166 0 253.5 -15.5t158.5 -56.5q120 -69 182.5 -200t62.5 -314q0 -141 -41 -278t-115.5 -252.5t-189 -200t-252.5 -116.5q-108 -25 -313 -25h-428zM168 119h385q124 0 230.5 41t183.5 112.5t132 168t82 208.5t27 232q0 129 -31.5 219t-96 142t-151 74.5 t-206.5 22.5h-299z" />
<glyph unicode="E" horiz-adv-x="1175" d="M4 0l309 1458h979l-24 -119h-842l-113 -526h787l-25 -119h-784l-123 -575h860l-27 -119h-997z" />
<glyph unicode="F" horiz-adv-x="1099" d="M4 0l309 1458h936l-24 -119h-797l-113 -528h711l-25 -115h-710l-148 -696h-139z" />
<glyph unicode="G" horiz-adv-x="1517" d="M86 588q0 183 56 345.5t158.5 285.5t257.5 194.5t341 71.5q249 0 398 -127.5t155 -345.5h-135q-15 176 -126 266t-298 90q-124 0 -232.5 -44t-187 -120t-135.5 -175.5t-85 -212.5t-28 -230q0 -238 124.5 -372t346.5 -134q128 0 231 43.5t172 121t113 172.5t68 210h-504 l25 114h624l-153 -741h-94l28 246q-108 -148 -231 -214.5t-301 -66.5q-275 0 -431.5 165.5t-156.5 457.5z" />
<glyph unicode="H" horiz-adv-x="1441" d="M10 0l309 1458h138l-133 -637h841l135 637h138l-308 -1458h-139l150 702h-842l-152 -702h-137z" />
<glyph unicode="I" horiz-adv-x="454" d="M8 0l309 1458h140l-310 -1458h-139z" />
<glyph unicode="J" horiz-adv-x="1024" d="M-12 303q0 76 18 166h133q-18 -111 -18 -162q0 -109 63 -167t183 -58q51 0 92.5 11t71.5 28.5t55 47.5t40.5 57.5t30 71t22.5 75.5t19 82l213 1003h138l-209 -991q-37 -167 -63 -234q-21 -52 -48 -94q-110 -172 -362 -172q-181 0 -280 88t-99 248z" />
<glyph unicode="K" horiz-adv-x="1327" d="M2 0l307 1458h137l-165 -780l948 780h190l-745 -608l518 -850h-156l-465 766l-325 -260l-107 -506h-137z" />
<glyph unicode="L" horiz-adv-x="1099" d="M6 0l309 1458h140l-285 -1339h801l-27 -119h-938z" />
<glyph unicode="M" horiz-adv-x="1744" d="M8 0l311 1458h189l190 -1003q3 -14 15 -76t16.5 -88t11 -73t9.5 -85q115 202 153 266l647 1059h195l-309 -1458h-136l179 825q43 202 125 510q-52 -104 -195 -334l-621 -1001h-124l-201 1020q-25 132 -53 315q-35 -234 -101 -540l-168 -795h-133z" />
<glyph unicode="N" horiz-adv-x="1441" d="M-2 0l311 1458h152l467 -1018q95 -202 123 -295q17 76 44 229.5t44 229.5l180 854h131l-307 -1458h-154l-475 1032q-69 151 -115 275q-60 -331 -71 -383l-195 -924h-135z" />
<glyph unicode="O" horiz-adv-x="1517" d="M72 592q0 142 33.5 274.5t100.5 245t161 196.5t222 131.5t275 47.5q270 0 434 -167.5t164 -440.5q0 -141 -32 -274.5t-97.5 -250.5t-158 -204.5t-222 -138t-280.5 -50.5q-280 0 -440 169t-160 462zM209 592q0 -236 127.5 -374t345.5 -138q124 0 230 47t180 125.5 t126.5 182t77.5 216t25 226.5q0 223 -123.5 356t-343.5 133q-125 0 -231.5 -43.5t-181.5 -118.5t-128 -174t-78.5 -210.5t-25.5 -227.5z" />
<glyph unicode="P" horiz-adv-x="1290" d="M-2 0l309 1458h486q165 0 256 -26q104 -31 167.5 -125t63.5 -220q0 -128 -61 -237t-164 -164q-65 -35 -145 -47t-236 -12h-404l-133 -627h-139zM295 741h377q86 0 122 1t102 15.5t110 45.5q63 41 100 116t37 160t-40 151.5t-118 88.5q-74 20 -233 20h-330z" />
<glyph unicode="Q" horiz-adv-x="1517" d="M70 590q0 191 60 358t164.5 285t251.5 186t316 68q278 0 439 -167t161 -454q0 -220 -85.5 -418t-233.5 -321l186 -176l-82 -84l-203 192q-167 -96 -376 -96q-278 0 -438 172.5t-160 454.5zM209 606q0 -238 131.5 -380t351.5 -142q146 0 258 63l-168 158l82 84l187 -176 q129 108 199.5 286t70.5 359q0 234 -125 371t-338 137q-149 0 -273.5 -65t-205.5 -172.5t-125.5 -243t-44.5 -279.5z" />
<glyph unicode="R" horiz-adv-x="1327" d="M2 0l307 1458h512q156 0 232 -18q120 -26 190 -118t70 -224q0 -164 -102.5 -276.5t-266.5 -129.5q182 -38 182 -264q0 -49 -8 -147.5t-8 -147.5q0 -77 23 -133h-144q-18 50 -18 121q0 19 10 132t10 169q0 45 -7.5 79.5t-20 58.5t-35.5 40t-45.5 25.5t-59 14t-67 6 t-78.5 1.5h-402l-137 -647h-137zM301 760h416q75 0 119.5 2.5t108 18.5t106.5 48q58 41 91.5 110t33.5 146q0 104 -62 172q-43 47 -107 63.5t-202 16.5h-383z" />
<glyph unicode="S" horiz-adv-x="1290" d="M29 438q0 23 2 43h133v-32q0 -363 416 -363q189 0 304 87t115 230q0 30 -6.5 56.5t-14.5 46.5t-26 39t-31 31.5t-39.5 26t-41.5 20.5t-48 18t-47 15l-49 14q-174 50 -230 72q-176 72 -229 197q-26 62 -26 140q0 185 140 294.5t376 109.5q85 0 159 -13.5t139.5 -44.5 t111.5 -78t73 -118t27 -160q0 -17 -2 -35h-131v25q0 309 -379 309q-177 0 -280 -76t-103 -205q0 -30 7.5 -56.5t17.5 -47.5t30.5 -40.5t36 -33t46 -28.5t47.5 -23t53 -19.5t51 -16t52.5 -14.5t47.5 -13q51 -14 87.5 -26t81.5 -30.5t76.5 -38.5t63.5 -49t51.5 -62.5 t31.5 -78.5t12 -98q0 -198 -154 -319.5t-406 -121.5q-260 0 -403 122t-143 345z" />
<glyph unicode="T" d="M125 1339l25 119h1150l-24 -119h-500l-282 -1339h-140l283 1339h-512z" />
<glyph unicode="U" horiz-adv-x="1441" d="M98 391q0 77 29 219l180 848h137l-182 -866q-24 -108 -24 -193q0 -148 99.5 -231.5t276.5 -83.5q92 0 175.5 24.5t142.5 67.5q57 42 97 114t56.5 131t36.5 154l187 883h139l-191 -893q-15 -74 -21.5 -101t-23 -85t-36.5 -100t-48 -82q-77 -109 -206.5 -166.5 t-300.5 -57.5q-238 0 -380.5 114t-142.5 304z" />
<glyph unicode="V" horiz-adv-x="1214" d="M133 1458h143l146 -997q19 -130 41 -336q28 50 82.5 152.5t83.5 152.5l581 1028h150l-838 -1458h-162z" />
<glyph unicode="W" horiz-adv-x="1857" d="M145 1458h140l61 -915q14 -233 14 -398q55 140 172 379l455 934h160l72 -860q24 -293 28 -442q90 228 189 434l409 868h144l-693 -1458h-149l-82 981q-18 210 -23 348q-33 -66 -89 -193t-81 -180l-464 -956h-152z" />
<glyph unicode="X" horiz-adv-x="1175" d="M-135 0l667 760l-356 698h150l299 -612l528 612h164l-629 -719l379 -739h-147l-324 651l-565 -651h-166z" />
<glyph unicode="Y" horiz-adv-x="1175" d="M137 1458h148l325 -743l611 743h163l-725 -868l-124 -590h-138l127 604z" />
<glyph unicode="Z" horiz-adv-x="1175" d="M-104 0l26 125l1159 1214h-882l26 119h1047l-25 -123l-1167 -1220q33 0 99.5 2t99.5 2h776l-25 -119h-1134z" />
<glyph unicode="[" horiz-adv-x="493" d="M-53 -375l393 1845h332l-21 -98h-213l-348 -1646h211l-22 -101h-332z" />
<glyph unicode="\" horiz-adv-x="681" d="M-125 1477h111l845 -1502h-112z" />
<glyph unicode="]" horiz-adv-x="493" d="M-250 -375l21 101h213l352 1644h-211l20 100h332l-395 -1845h-332z" />
<glyph unicode="^" horiz-adv-x="1228" d="M217 608l344 850h109l342 -850h-117l-283 721l-276 -721h-119z" />
<glyph unicode="_" horiz-adv-x="1024" d="M0 -154h1024v-102h-1024v102z" />
<glyph unicode="`" horiz-adv-x="378" d="M33 1507h149l170 -293h-102z" />
<glyph unicode="a" horiz-adv-x="1062" d="M-14 258q0 60 17.5 109.5t44.5 83t70.5 60t84.5 41.5t98 26t99.5 15.5t99.5 8.5q4 0 30 1.5t38 2t38.5 3t41.5 5t37.5 7.5t37 11.5t28.5 15.5t23 20q15 20 26 66t11 87q0 150 -238 150q-138 0 -215 -54.5t-108 -173.5h-123q70 336 442 336q175 0 269 -65.5t94 -186.5 q0 -47 -29 -180l-76 -338q-1 -5 -9.5 -43.5t-12.5 -64.5t-4 -45q0 -66 55 -66q21 0 62 8l-19 -98q-53 -14 -94 -14q-59 0 -90 31.5t-31 91.5q0 19 8 55q-136 -195 -383 -195q-150 0 -236.5 77.5t-86.5 211.5zM111 266q0 -92 63 -144t172 -52q138 0 244 92q61 53 90.5 114.5 t62.5 198.5l23 94q-17 -17 -42.5 -28.5t-64.5 -18t-61 -9.5t-69.5 -6t-51.5 -3q-40 -3 -69 -5.5t-70 -10t-70 -17.5t-60.5 -28t-51 -41.5t-32.5 -58t-13 -77.5z" />
<glyph unicode="b" horiz-adv-x="1175" d="M-8 0l311 1458h125l-125 -592q141 217 377 217q186 0 288.5 -123.5t102.5 -316.5q0 -95 -23 -191t-70 -182.5t-111 -153.5t-153.5 -107t-191.5 -40q-142 0 -237.5 72t-126.5 201l-47 -242h-119zM213 395q0 -148 80 -235.5t215 -87.5q83 0 155.5 35.5t123 93.5t87.5 132.5 t54.5 153t17.5 154.5q0 148 -74 243t-217 95q-180 0 -299 -150q-64 -79 -103.5 -199t-39.5 -235z" />
<glyph unicode="c" horiz-adv-x="1062" d="M41 410q0 128 40 248t112 215t184 152.5t246 57.5q173 0 277 -93.5t104 -250.5v-12h-127v2q0 116 -70 182t-193 66q-86 0 -160 -33t-125.5 -89t-88.5 -128.5t-54.5 -151.5t-17.5 -159q0 -162 77 -250t218 -88q120 0 211 68t137 194h131q-123 -371 -487 -371 q-196 0 -305 116t-109 325z" />
<glyph unicode="d" horiz-adv-x="1175" d="M33 389q0 126 39 248.5t109.5 222.5t182 161.5t244.5 61.5q138 0 227.5 -64t112.5 -179q5 32 23 112l104 506h125l-307 -1458h-119l21 92q19 87 28 121q-61 -117 -161 -180.5t-232 -63.5q-189 0 -293 110t-104 310zM160 389q0 -150 77 -233.5t214 -83.5q87 0 162 39 t126.5 102t88 143.5t54 163.5t17.5 162q0 130 -70.5 211.5t-189.5 81.5h-25q-88 0 -164 -35t-128 -94t-89.5 -135t-55 -158t-17.5 -164z" />
<glyph unicode="e" horiz-adv-x="1062" d="M25 416q0 186 73 338.5t201.5 239.5t284.5 87q189 0 296 -114.5t107 -315.5q0 -64 -12 -153h-817q-8 -49 -8 -86q0 -160 81 -250t224 -90q123 0 213 69.5t131 196.5h131q-54 -178 -174.5 -275.5t-306.5 -97.5q-200 0 -312 119.5t-112 331.5zM174 602h686q4 29 4 60 q0 149 -76 232t-213 83q-148 0 -254.5 -100t-146.5 -275z" />
<glyph unicode="f" horiz-adv-x="530" d="M49 0l203 946h-180l22 107h180l19 75q36 149 60 200q47 101 145 130q49 15 116 15q54 0 113 -15l-20 -108q-46 10 -84 10q-43 0 -74 -11t-49.5 -26t-33 -45t-22 -54.5t-17.5 -66.5q-5 -19 -7 -29l-19 -75h211l-22 -107h-211l-203 -946h-127z" />
<glyph unicode="g" d="M-41 -88h129q0 -110 72 -168.5t207 -58.5q59 0 108 11.5t85 29t65.5 49t49.5 62t37.5 77t28.5 85t25 95.5l29 117q-57 -94 -150.5 -145.5t-208.5 -51.5q-177 0 -285 116t-108 306q0 177 68.5 322.5t189 229t266.5 83.5q148 0 242.5 -66.5t116.5 -185.5l47 234h119 l-195 -916q-16 -76 -31.5 -132.5t-39 -117.5t-51 -103.5t-68 -82.5t-89.5 -64t-115.5 -38.5t-146.5 -14.5q-76 0 -144 17.5t-126 52.5t-92.5 96t-34.5 141v21zM172 442q0 -151 78 -237t213 -86q81 0 150 34.5t115.5 91.5t80 130t48.5 149t15 150q0 136 -78 218.5t-212 82.5 q-78 0 -146 -33t-115.5 -87t-81.5 -123.5t-50.5 -143.5t-16.5 -146z" />
<glyph unicode="h" horiz-adv-x="1099" d="M-10 0l307 1458h127l-131 -600q161 221 399 221q138 0 222.5 -73.5t84.5 -194.5q0 -75 -26 -193l-133 -618h-129l131 612q24 109 24 176q0 85 -56.5 133t-156.5 48q-94 0 -178.5 -45.5t-144.5 -128.5q-65 -91 -99 -246l-116 -549h-125z" />
<glyph unicode="i" horiz-adv-x="378" d="M-25 0l224 1053h127l-224 -1053h-127zM242 1253l43 211h129l-45 -211h-127z" />
<glyph unicode="j" horiz-adv-x="378" d="M-283 -395l23 108q39 -8 65 -8q70 0 101 39q16 21 26 58t35 152q6 29 10 46l222 1053h127l-226 -1073q-3 -13 -8 -39q-8 -41 -12.5 -60.5t-12.5 -54t-14.5 -51t-16.5 -43.5t-20.5 -40.5t-25.5 -32t-32 -27.5t-39 -18.5t-48 -13t-57 -3.5q-52 0 -97 8zM240 1253l45 211 h127l-43 -211h-129z" />
<glyph unicode="k" horiz-adv-x="948" d="M-10 0l309 1458h123l-197 -919l633 514h172l-504 -404l324 -649h-143l-279 569l-235 -186l-80 -383h-123z" />
<glyph unicode="l" horiz-adv-x="378" d="M-25 0l310 1458h127l-310 -1458h-127z" />
<glyph unicode="m" horiz-adv-x="1705" d="M-8 0l223 1053h121l-43 -193q74 106 171.5 163.5t205.5 57.5q115 0 183.5 -60t76.5 -167q149 223 377 223q124 0 205 -67t81 -170q0 -73 -28 -205l-133 -635h-129l135 637q22 108 22 166q0 75 -51.5 119.5t-140.5 44.5q-138 0 -246 -117q-51 -54 -77.5 -115t-51.5 -180 l-117 -555h-129l133 631q27 132 27 176q0 73 -48 117.5t-128 44.5q-138 0 -250 -115q-57 -57 -87.5 -121.5t-55.5 -177.5l-119 -555h-127z" />
<glyph unicode="n" horiz-adv-x="1099" d="M-23 0l224 1053h118l-40 -197q160 223 399 223q138 0 222.5 -72.5t84.5 -191.5q0 -52 -29 -197l-131 -618h-129l133 631q23 102 23 164q0 80 -57 127t-154 47q-171 0 -291 -135q-53 -59 -81 -127t-50 -168l-115 -539h-127z" />
<glyph unicode="o" d="M31 414q0 190 74.5 343t207 239.5t297.5 86.5q198 0 311 -112.5t113 -311.5q0 -101 -23 -200t-70.5 -188t-114 -156.5t-160.5 -107.5t-203 -40q-205 0 -318.5 117.5t-113.5 329.5zM158 416q0 -161 82.5 -251.5t228.5 -90.5q85 0 157.5 36t123 95.5t86 135.5t52.5 156 t17 158q0 148 -79.5 235t-225.5 87q-187 0 -314.5 -161.5t-127.5 -399.5z" />
<glyph unicode="p" horiz-adv-x="1175" d="M-92 -393l305 1446h117l-41 -199q63 111 164.5 170t228.5 59q179 0 283 -119t104 -323q0 -121 -36 -238.5t-102 -215t-172 -158t-233 -60.5q-147 0 -244 73t-116 198l-133 -633h-125zM211 387q0 -145 81.5 -230t219.5 -85q83 0 155 35.5t121.5 94t85.5 133.5t53 153.5 t17 154.5q0 152 -75.5 244t-223.5 92q-85 0 -158 -37.5t-122.5 -98.5t-85 -139.5t-52 -159t-16.5 -157.5z" />
<glyph unicode="q" horiz-adv-x="1175" d="M45 389q0 124 39.5 246.5t110.5 222.5t181.5 162.5t241.5 62.5q141 0 232.5 -65.5t114.5 -183.5l45 219h116l-305 -1446h-125l129 592q-140 -230 -393 -230q-181 0 -284 111.5t-103 308.5zM174 391q0 -151 75.5 -234t211.5 -83q87 0 162.5 38.5t127 101.5t88.5 143 t54.5 163.5t17.5 163.5q0 134 -78 213.5t-210 79.5q-88 0 -163 -35.5t-126.5 -94t-88.5 -135t-54 -158.5t-17 -163z" />
<glyph unicode="r" horiz-adv-x="645" d="M-14 0l225 1053h119l-56 -246q147 264 392 264q36 0 65 -4l-29 -133q-50 4 -53 4q-126 0 -217 -66q-41 -30 -74 -69t-54.5 -77t-40 -87.5t-29.5 -90.5t-23 -97l-98 -451h-127z" />
<glyph unicode="s" horiz-adv-x="985" d="M-6 305q0 19 2 37h123v-29q0 -115 75.5 -177t215.5 -62q125 0 202.5 55.5t77.5 144.5q0 19 -4.5 36.5t-10.5 32t-20 28.5l-24 24t-31.5 22.5t-34.5 20t-40.5 19t-42.5 17.5l-47.5 19l-47.5 19q-48 20 -78 34t-69 38.5t-60.5 51t-37 66t-15.5 86.5q0 132 106 212.5 t283 80.5t274 -81t97 -230v-25h-125v15q0 213 -260 213q-115 0 -183.5 -47t-68.5 -127q0 -31 14.5 -58.5t32.5 -45t54 -36.5t58 -28t67.5 -25t60.5 -22q56 -21 94.5 -39t76.5 -44t60.5 -55t36.5 -68.5t14 -88.5q0 -66 -24.5 -121t-65.5 -91t-96 -61t-113 -36t-119 -11 q-191 0 -299 89t-108 247z" />
<glyph unicode="t" horiz-adv-x="606" d="M63 946l25 107h186l70 319h127l-68 -319h213l-22 -107h-213l-137 -637q-21 -95 -21 -129q0 -78 113 -78q36 0 106 13l-22 -113q-64 -10 -123 -10q-205 0 -205 160q0 42 25 157l135 637h-189z" />
<glyph unicode="u" horiz-adv-x="1099" d="M43 242q0 56 27 188l131 623h129l-135 -639q-21 -100 -21 -154q0 -84 59.5 -133t161.5 -49q86 0 156.5 38t117 103t77 137t47.5 154l114 543h127l-223 -1053h-119l43 197q-138 -226 -379 -226q-141 0 -227 74t-86 197z" />
<glyph unicode="v" horiz-adv-x="948" d="M70 1053h133l100 -666q18 -130 27 -266q34 86 119 239l380 693h138l-590 -1053h-139z" />
<glyph unicode="w" horiz-adv-x="1517" d="M61 1053h134l53 -514q31 -294 31 -404q21 56 92 201l344 717h149l60 -633q16 -177 18 -279q31 86 92 205l359 707h135l-549 -1053h-139l-64 694q-6 66 -14 205q-47 -103 -84 -178l-352 -721h-142z" />
<glyph unicode="x" horiz-adv-x="948" d="M-121 0l506 555l-250 498h146l194 -418l363 418h153l-461 -508l281 -545h-145l-226 463l-405 -463h-156z" />
<glyph unicode="y" horiz-adv-x="948" d="M-113 -389l23 108q51 -10 88 -10q65 0 110.5 38.5t88.5 107.5l90 145l-197 1053h135l152 -895l489 895h140l-619 -1094l-35 -63t-34 -58t-37 -57.5t-37 -49t-41.5 -46t-43.5 -35t-49.5 -29t-53.5 -15.5t-62 -7q-48 0 -107 12z" />
<glyph unicode="z" horiz-adv-x="872" d="M-119 0l21 102l821 844h-633l25 107h790l-20 -97l-832 -856q26 4 59 5.5t55.5 1.5t63 -0.5t56.5 -0.5h454l-22 -106h-838z" />
<glyph unicode="{" horiz-adv-x="681" d="M-29 518l17 74q115 0 198 47q35 19 59.5 43.5t40.5 61t23.5 61t20.5 74.5l59 243q30 126 74.5 198.5t142.5 115.5q102 45 234 45l-15 -72q-46 0 -99 -15t-93 -40q-25 -15 -45.5 -35.5t-36.5 -49t-27 -50.5t-21.5 -60t-15.5 -57t-14 -61.5t-12 -55.5l-29 -127 q-17 -74 -37 -123t-54.5 -90.5t-88 -65t-129.5 -32.5q85 -25 136.5 -79t51.5 -136q0 -38 -10 -96l-43 -228q-14 -74 -14 -131q0 -95 82 -143q48 -27 137 -35l-17 -70h-14q-118 0 -204.5 67.5t-86.5 184.5q0 49 13 125l43 227q12 67 12 109q0 55 -41.5 98t-99.5 62 q-40 10 -97 16z" />
<glyph unicode="|" horiz-adv-x="454" d="M172 -438v2048h111v-2048h-111z" />
<glyph unicode="}" horiz-adv-x="681" d="M-211 -371l14 72q46 0 100 15t93 40q25 15 45.5 35.5t36.5 49t27 50.5t21.5 60t15.5 57t14 61.5t12 55.5l29 127q17 74 37 123t54.5 90.5t88 65t129.5 32.5q-85 25 -137 79t-52 136q0 32 11 96l43 228q14 74 14 131q0 95 -82 143q-47 26 -137 35l14 70h17 q118 0 203 -67.5t85 -184.5q0 -55 -12 -125l-41 -227q-12 -67 -12 -109q0 -55 41.5 -98t99.5 -62q41 -11 96 -16l-16 -74q-111 0 -201 -49q-44 -24 -73 -64t-39 -69.5t-26 -93.5q-2 -7 -3 -11l-59 -243q-30 -126 -74.5 -198.5t-142.5 -115.5q-102 -45 -234 -45z" />
<glyph unicode="~" horiz-adv-x="1228" d="M41 373q8 45 19 81t30.5 72t45 60.5t65 39.5t88.5 15q20 0 41.5 -2.5t49.5 -9t45 -10.5t51.5 -15.5l43.5 -14.5t48 -17l38 -13q7 -3 58 -21.5t73 -26t61 -16t68 -8.5q70 0 112.5 48t57.5 120h74q-5 -52 -21.5 -98.5t-45 -84t-74 -59.5t-101.5 -22q-40 0 -96.5 13 t-86 22.5t-95.5 32.5q-20 7 -70.5 25t-82.5 28.5t-75 20.5t-73 10q-64 0 -110.5 -47.5t-57.5 -122.5h-80z" />
<glyph unicode="&#xa3;" d="M-6 82q154 123 218 222.5t64 213.5q0 66 -24 152h-178l14 69h143q-53 148 -53 277q0 191 136 314.5t345 123.5q201 0 323 -115t122 -305q0 -26 -2 -49h-125v33q0 155 -80.5 238t-237.5 83q-155 0 -253.5 -92.5t-98.5 -240.5q0 -135 53 -267h326l-16 -69h-291 q18 -79 18 -146q0 -66 -15.5 -119.5t-58 -107t-68 -79t-92.5 -85.5q-16 -15 -24 -22q106 49 207 49q65 0 182 -37q118 -35 179 -35q44 0 81.5 11.5t54 21.5t53.5 39.5t50 38.5l51 -103q-149 -129 -307 -129q-19 0 -40.5 3t-37.5 6t-40.5 10t-36.5 11t-40 13.5t-36 12.5 q-109 36 -176 36q-57 0 -107 -18.5t-135 -69.5z" />
<glyph unicode="&#xa7;" d="M31 -41q0 7 1 19t1 22h123q-2 -16 -2 -35q0 -106 70.5 -170.5t185.5 -64.5q93 0 156 52.5t63 129.5q0 39 -15 77.5t-48.5 82t-65.5 78.5t-88 91l-21 21q-16 16 -60.5 60t-67.5 67.5t-59 66.5t-54.5 76.5t-33 78t-14.5 87.5q0 117 79.5 203t205.5 105q-51 83 -51 163 q0 128 98 210.5t250 82.5q162 0 257 -85.5t95 -231.5q0 -20 -2 -43h-123q2 16 2 33q0 103 -61 162t-168 59q-95 0 -156 -52.5t-61 -134.5q0 -33 10 -63.5t24 -54.5t47.5 -60.5t60 -62.5t83.5 -80.5t99 -95.5q49 -48 73.5 -74.5t58.5 -72t49 -91.5t15 -98 q0 -123 -79.5 -208.5t-213.5 -105.5q66 -78 66 -180q0 -129 -102.5 -214t-256.5 -85q-167 0 -268.5 92t-101.5 244zM225 709q0 -107 156 -263l258 -264q92 9 153.5 68.5t61.5 150.5q0 62 -36.5 124.5t-119.5 144.5l-260 254q-84 -6 -148.5 -65.5t-64.5 -149.5z" />
<glyph unicode="&#xa9;" horiz-adv-x="1638" d="M68 723q0 153 59.5 292.5t159.5 240t239.5 160t292.5 59.5t292 -59.5t240 -160t160.5 -240t59.5 -292.5q0 -152 -59.5 -291t-160.5 -239.5t-240 -160t-292 -59.5t-292.5 59.5t-239.5 160t-159.5 239t-59.5 291.5zM139 725q0 -139 54 -265t145 -217t217 -144.5t264 -53.5 t264 54t217 145t145 216.5t54 262.5q0 138 -54 264t-145 217t-217 145t-264 54t-264 -53.5t-217 -144.5t-145 -216.5t-54 -263.5zM434 729q0 189 111 313.5t280 124.5q141 0 241 -84t110 -211h-91q-19 97 -87 154t-167 57q-127 0 -207.5 -97t-80.5 -251q0 -158 84.5 -259 t216.5 -101q93 0 159.5 52t88.5 142h90q-17 -122 -112.5 -200t-227.5 -78q-175 0 -291.5 125t-116.5 313z" />
<glyph unicode="&#xab;" horiz-adv-x="872" d="M82 500l31 131l323 231l-30 -139l-238 -172l158 -211l-29 -127zM410 500l30 131l324 233l-31 -143l-237 -170l155 -209l-26 -127z" />
<glyph unicode="&#xac;" horiz-adv-x="1228" d="M51 655v99h1018v-473h-102v374h-916z" />
<glyph unicode="&#xad;" horiz-adv-x="757" d="M78 502l24 121h516l-26 -121h-514z" />
<glyph unicode="&#xae;" horiz-adv-x="819" d="M121 1106q0 155 109.5 265t263.5 110q155 0 264.5 -110t109.5 -265q0 -157 -109.5 -267t-264.5 -110q-154 0 -263.5 110.5t-109.5 266.5zM176 1104q0 -131 94 -225.5t224 -94.5q132 0 225.5 94.5t93.5 225.5q0 132 -93.5 226.5t-225.5 94.5q-131 0 -224.5 -94.5 t-93.5 -226.5zM350 920v376h142q172 0 172 -110q0 -66 -70 -90q35 -17 49 -44t14 -75q0 -31 13 -57h-68q-7 20 -7.5 41.5t-2.5 29.5q-4 24 -11 39t-13.5 23t-24.5 11.5t-29.5 4t-42.5 0.5h-57v-149h-64zM414 1122h73q59 0 86 15t27 49q0 20 -9.5 33t-29 17.5t-32.5 5.5 t-36 1h-8h-71v-121z" />
<glyph unicode="&#xb0;" horiz-adv-x="819" d="M193 1155q0 126 88.5 214.5t214.5 88.5t214.5 -88.5t88.5 -214.5t-88.5 -214.5t-214.5 -88.5t-214.5 88.5t-88.5 214.5zM291 1155q0 -86 60 -145.5t145 -59.5t144.5 59.5t59.5 145.5q0 85 -59.5 145t-144.5 60t-145 -60t-60 -145z" />
<glyph unicode="&#xb1;" horiz-adv-x="1228" d="M57 -16v98h1018v-98h-1018zM57 541v98h455v362h109v-362h454v-98h-454v-365h-109v365h-455z" />
<glyph unicode="&#xb5;" horiz-adv-x="1099" d="M-102 -393l311 1446h129l-125 -592q-2 -10 -9 -44.5t-10 -51t-6.5 -44t-3.5 -49.5q0 -93 56 -143.5t159 -50.5q86 0 157 37.5t118.5 101.5t78.5 136.5t48 154.5l117 545h126l-225 -1053h-121l45 197q-71 -109 -157 -167.5t-207 -58.5q-90 0 -148.5 34.5t-97.5 113.5 l-106 -512h-129z" />
<glyph unicode="&#xb6;" horiz-adv-x="1228" d="M141 893q0 132 52 240.5t140 178.5t201.5 108t239.5 38h488l-19 -92h-110l-365 -1720h-111l367 1720h-258l-367 -1720h-110l190 893q-160 12 -249 105t-89 249z" />
<glyph unicode="&#xb7;" horiz-adv-x="569" d="M174 500l47 211h170l-47 -211h-170z" />
<glyph unicode="&#xbb;" horiz-adv-x="872" d="M39 215l31 143l235 170l-153 209l26 125l215 -282l-31 -131zM367 217l30 139l238 172l-156 209l25 127l217 -284l-31 -131z" />
<glyph unicode="&#xf7;" horiz-adv-x="1228" d="M53 442v101h1018v-101h-1018zM489 27v204h144v-204h-144zM489 754v204h144v-204h-144z" />
<glyph unicode="&#x192;" d="M-41 -348l29 108q33 -6 69 -6q38 0 68.5 9.5t52.5 29t37.5 41t28 54t20.5 59t18 63.5q5 18 7 27l207 756h-207l26 102h207l64 233q17 63 33.5 106.5t43.5 87t61.5 69t86 41.5t117.5 16q54 0 125 -10l-29 -109q-55 8 -88 8q-96 0 -142.5 -49t-84.5 -190l-56 -203h238 l-29 -102h-237l-207 -762q-44 -161 -74 -222q-62 -123 -182 -154q-45 -11 -101 -11q-39 0 -102 8z" />
<glyph unicode="&#x401;" horiz-adv-x="1175" d="M4 0l309 1458h979l-24 -119h-842l-113 -526h787l-25 -119h-784l-123 -575h860l-27 -119h-997zM569 1595l43 207h131l-43 -207h-131zM905 1595l43 207h131l-41 -207h-133z" />
<glyph unicode="&#x402;" horiz-adv-x="1478" d="M104 1339l25 119h1159l-24 -119h-551l-142 -661h7q72 103 179.5 157t227.5 54q175 0 277 -114.5t102 -295.5q0 -141 -47.5 -272t-133 -234t-216 -165t-285.5 -62l27 121q128 9 228 63t161 139t92 190t31 224q0 132 -69 210.5t-198 78.5q-175 0 -292.5 -110.5 t-161.5 -319.5l-72 -342h-139l284 1339h-469z" />
<glyph unicode="&#x403;" horiz-adv-x="1062" d="M10 0l309 1458h904l-25 -119h-766l-285 -1339h-137zM674 1561l237 292h170l-299 -292h-108z" />
<glyph unicode="&#x404;" horiz-adv-x="1441" d="M72 584q-1 174 54 336t154.5 289t251.5 203.5t332 76.5q237 0 387.5 -128.5t155.5 -334.5h-137q-17 167 -121.5 254.5t-286.5 87.5q-120 0 -225.5 -44.5t-182.5 -122t-131.5 -176t-82.5 -212.5h796l-26 -117h-791q-6 -52 -6 -104q0 -236 119.5 -372t326.5 -136 q195 0 336 111t193 307h141q-66 -254 -242 -395.5t-430 -141.5q-270 0 -426.5 166t-158.5 453z" />
<glyph unicode="&#x405;" horiz-adv-x="1290" d="M29 438q0 23 2 43h133v-32q0 -363 416 -363q189 0 304 87t115 230q0 30 -6.5 56.5t-14.5 46.5t-26 39t-31 31.5t-39.5 26t-41.5 20.5t-48 18t-47 15l-49 14q-174 50 -230 72q-176 72 -229 197q-26 62 -26 140q0 185 140 294.5t376 109.5q85 0 159 -13.5t139.5 -44.5 t111.5 -78t73 -118t27 -160q0 -17 -2 -35h-131v25q0 309 -379 309q-177 0 -280 -76t-103 -205q0 -30 7.5 -56.5t17.5 -47.5t30.5 -40.5t36 -33t46 -28.5t47.5 -23t53 -19.5t51 -16t52.5 -14.5t47.5 -13q51 -14 87.5 -26t81.5 -30.5t76.5 -38.5t63.5 -49t51.5 -62.5 t31.5 -78.5t12 -98q0 -198 -154 -319.5t-406 -121.5q-260 0 -403 122t-143 345z" />
<glyph unicode="&#x406;" horiz-adv-x="454" d="M8 0l309 1458h140l-310 -1458h-139z" />
<glyph unicode="&#x407;" horiz-adv-x="454" d="M8 0l309 1458h140l-310 -1458h-139zM168 1595l43 207h131l-43 -207h-131zM504 1595l43 207h131l-41 -207h-133z" />
<glyph unicode="&#x408;" horiz-adv-x="1024" d="M-12 303q0 76 18 166h133q-18 -111 -18 -162q0 -109 63 -167t183 -58q51 0 92.5 11t71.5 28.5t55 47.5t40.5 57.5t30 71t22.5 75.5t19 82l213 1003h138l-209 -991q-37 -167 -63 -234q-21 -52 -48 -94q-110 -172 -362 -172q-181 0 -280 88t-99 248z" />
<glyph unicode="&#x409;" horiz-adv-x="2048" d="M-131 -4l25 115q18 -9 60 -16t73 -7q41 0 76 22.5t70.5 75t70 146.5t67.5 231l219 895h783l-131 -618h272q162 0 256 -27q106 -31 171 -126t65 -222q0 -129 -62.5 -239.5t-165.5 -166.5q-66 -36 -145 -47.5t-238 -11.5h-471l285 1339h-512l-211 -858q-23 -93 -48 -166 t-60.5 -140t-77.5 -111t-98.5 -69.5t-123.5 -25.5q-85 0 -149 27zM1030 119h307h22q72 0 112 2t98.5 16t101.5 43q62 41 99.5 117t37.5 160q0 85 -39.5 152t-117.5 89q-85 23 -234 23h-260z" />
<glyph unicode="&#x40a;" horiz-adv-x="2048" d="M10 0l309 1458h138l-129 -618h710l131 618h138l-131 -618h284q162 0 256 -27q106 -31 171 -126t65 -222q0 -129 -62.5 -239.5t-165.5 -166.5q-66 -36 -145 -47.5t-238 -11.5h-483l156 721h-711l-156 -721h-137zM1024 119h319h22q72 0 112 2t98.5 16t101.5 43 q63 41 100.5 116.5t37.5 160.5t-40 152t-118 89q-85 23 -234 23h-272z" />
<glyph unicode="&#x40b;" horiz-adv-x="1478" d="M119 1339l24 119h1160l-25 -119h-551l-115 -538q67 32 173.5 60t168.5 28q112 0 192.5 -25.5t123 -70t61.5 -94t19 -107.5q0 -63 -17 -143l-96 -449h-139l98 461q14 77 14 112q0 38 -11 70t-38 61.5t-79.5 46.5t-127.5 17q-80 0 -189 -28.5t-179 -65.5l-144 -674h-139 l285 1339h-469z" />
<glyph unicode="&#x40c;" horiz-adv-x="1327" d="M2 0l307 1458h137l-165 -780l948 780h190l-745 -608l518 -850h-156l-465 766l-325 -260l-107 -506h-137zM694 1561l238 292h170l-299 -292h-109z" />
<glyph unicode="&#x40e;" horiz-adv-x="1214" d="M-31 6l25 119q58 -37 158 -37q69 0 130 54t128 147l34 49l-315 1120h147l269 -973l672 973h159l-837 -1212q-63 -91 -118 -148t-108 -84.5t-96 -36t-104 -8.5q-68 0 -144 37zM504 1780q0 5 1 17t1 18h80v-21q0 -69 46 -108t130 -39q88 0 154 44t98 124h80 q-39 -129 -124 -198t-210 -69q-121 0 -188.5 60t-67.5 172z" />
<glyph unicode="&#x40f;" horiz-adv-x="1441" d="M10 0l309 1458h140l-285 -1339h844l285 1339h139l-309 -1458h-492l-84 -393h-139l84 393h-492z" />
<glyph unicode="&#x410;" horiz-adv-x="1290" d="M-152 0l891 1458h154l264 -1458h-143l-76 459h-659l-273 -459h-158zM344 571h576l-84 484q-35 206 -43 282q-34 -74 -183 -325z" />
<glyph unicode="&#x411;" horiz-adv-x="1366" d="M10 0l309 1458h986l-25 -119h-846l-104 -499h413q159 0 258 -27q106 -31 170 -126t64 -222q0 -129 -61.5 -239t-165.5 -167q-67 -35 -147 -47t-236 -12h-615zM176 119h451h22q73 0 112.5 2t98.5 16t101 43q63 41 100 116.5t37 160.5t-40 152t-118 89q-85 23 -233 23h-404 z" />
<glyph unicode="&#x412;" horiz-adv-x="1366" d="M4 0l307 1458h467q59 0 103 -2t100 -9.5t96 -21t81.5 -38.5t67 -59.5t42 -86.5t16.5 -117q0 -145 -84 -242t-231 -122q118 -26 183 -105t65 -198q0 -151 -87.5 -271t-230.5 -159q-62 -17 -121 -22t-192 -5h-582zM164 119h399q187 0 277 20q105 25 172 112t67 200 q0 51 -13.5 90.5t-33 65.5t-54 44.5t-63.5 27.5t-75.5 14t-76.5 6t-79 1h-395zM311 809h404q66 0 107 2.5t98 16t98 40.5q61 40 95 104.5t34 141.5q0 45 -12 80.5t-30 59t-48.5 40t-58.5 25.5t-69.5 13.5t-71 5.5t-73.5 1h-362z" />
<glyph unicode="&#x413;" horiz-adv-x="1062" d="M10 0l309 1458h904l-25 -119h-766l-285 -1339h-137z" />
<glyph unicode="&#x414;" horiz-adv-x="1441" d="M-217 -393l108 512h129q87 116 159 251t117.5 247t87.5 255t63 231.5t50 219.5q7 34 11 51l18 84h906l-285 -1339h153l-108 -512h-139l84 393h-1131l-84 -393h-139zM174 119h834l260 1220h-625l-6 -26q-5 -23 -23 -100t-26 -111.5t-28 -112.5t-33.5 -122.5t-38 -121 t-45.5 -128.5t-52 -124t-62.5 -129t-71 -122t-83.5 -123z" />
<glyph unicode="&#x415;" horiz-adv-x="1175" d="M4 0l309 1458h979l-24 -119h-842l-113 -526h787l-25 -119h-784l-123 -575h860l-27 -119h-997z" />
<glyph unicode="&#x416;" horiz-adv-x="2027" d="M-150 0l842 836l-446 622h176l536 -772l162 772h140l-160 -758l835 758h199l-717 -629l479 -829h-165l-422 733l-248 -217l-111 -516h-139l111 516l-156 215l-723 -731h-193z" />
<glyph unicode="&#x417;" horiz-adv-x="1290" d="M12 440q0 23 2 43h133v-32q0 -363 416 -363q110 0 211 44t168.5 132t67.5 201q0 108 -82.5 171.5t-212.5 63.5h-234l25 113h225q141 0 244.5 90.5t103.5 229.5q0 122 -89 182.5t-242 60.5t-268 -91t-146 -212h-137q44 203 201.5 311.5t357.5 108.5q129 0 233 -40 t168 -121.5t64 -192.5q0 -130 -80 -228t-205 -145v-4q102 -28 157.5 -100.5t55.5 -186.5q0 -118 -49 -215t-131.5 -159t-188 -95t-221.5 -33q-271 0 -409 121t-138 346z" />
<glyph unicode="&#x418;" horiz-adv-x="1441" d="M10 0l309 1458h140l-277 -1308l1065 1308h193l-310 -1458h-139l279 1309l-1067 -1309h-193z" />
<glyph unicode="&#x419;" horiz-adv-x="1441" d="M10 0l309 1458h140l-277 -1308l1065 1308h193l-310 -1458h-139l279 1309l-1067 -1309h-193zM610 1780q0 5 1 17t1 18h80v-21q0 -69 46 -108t130 -39q88 0 154 44t98 124h80q-39 -129 -124 -198t-210 -69q-121 0 -188.5 60t-67.5 172z" />
<glyph unicode="&#x41a;" horiz-adv-x="1327" d="M2 0l307 1458h137l-165 -780l948 780h190l-745 -608l518 -850h-156l-465 766l-325 -260l-107 -506h-137z" />
<glyph unicode="&#x41b;" horiz-adv-x="1366" d="M-131 -4l25 115q18 -9 60 -16t73 -7q41 0 76 22.5t70.5 75t70 146.5t67.5 231l219 895h836l-309 -1458h-139l284 1339h-565l-211 -858q-23 -93 -48 -166t-60.5 -140t-77.5 -111t-98.5 -69.5t-123.5 -25.5q-75 0 -149 27z" />
<glyph unicode="&#x41c;" horiz-adv-x="1744" d="M8 0l311 1458h189l190 -1003q3 -14 15 -76t16.5 -88t11 -73t9.5 -85q115 202 153 266l647 1059h195l-309 -1458h-136l179 825q43 202 125 510q-52 -104 -195 -334l-621 -1001h-124l-201 1020q-25 132 -53 315q-35 -234 -101 -540l-168 -795h-133z" />
<glyph unicode="&#x41d;" horiz-adv-x="1441" d="M10 0l309 1458h138l-133 -637h841l135 637h138l-308 -1458h-139l150 702h-842l-152 -702h-137z" />
<glyph unicode="&#x41e;" horiz-adv-x="1517" d="M72 592q0 142 33.5 274.5t100.5 245t161 196.5t222 131.5t275 47.5q270 0 434 -167.5t164 -440.5q0 -141 -32 -274.5t-97.5 -250.5t-158 -204.5t-222 -138t-280.5 -50.5q-280 0 -440 169t-160 462zM209 592q0 -236 127.5 -374t345.5 -138q124 0 230 47t180 125.5 t126.5 182t77.5 216t25 226.5q0 223 -123.5 356t-343.5 133q-125 0 -231.5 -43.5t-181.5 -118.5t-128 -174t-78.5 -210.5t-25.5 -227.5z" />
<glyph unicode="&#x41f;" horiz-adv-x="1441" d="M10 0l309 1458h1119l-308 -1458h-139l285 1339h-842l-287 -1339h-137z" />
<glyph unicode="&#x420;" horiz-adv-x="1290" d="M-2 0l309 1458h486q165 0 256 -26q104 -31 167.5 -125t63.5 -220q0 -128 -61 -237t-164 -164q-65 -35 -145 -47t-236 -12h-404l-133 -627h-139zM295 741h377q86 0 122 1t102 15.5t110 45.5q63 41 100 116t37 160t-40 151.5t-118 88.5q-74 20 -233 20h-330z" />
<glyph unicode="&#x421;" horiz-adv-x="1441" d="M72 584q-1 174 54 336t154.5 289t251.5 203.5t332 76.5q241 0 392 -132t151 -343v-15h-135q-10 180 -115.5 274.5t-294.5 94.5q-120 0 -225.5 -44.5t-181.5 -120.5t-131.5 -175t-83 -210.5t-27.5 -225.5q0 -236 119.5 -372t326.5 -136q195 0 336 111t193 307h141 q-66 -254 -242 -395.5t-430 -141.5q-270 0 -426.5 166t-158.5 453z" />
<glyph unicode="&#x422;" d="M125 1339l25 119h1150l-24 -119h-500l-282 -1339h-140l283 1339h-512z" />
<glyph unicode="&#x423;" horiz-adv-x="1214" d="M-31 6l25 119q58 -37 158 -37q69 0 130 54t128 147l34 49l-315 1120h147l269 -973l672 973h159l-837 -1212q-63 -91 -118 -148t-108 -84.5t-96 -36t-104 -8.5q-68 0 -144 37z" />
<glyph unicode="&#x424;" horiz-adv-x="1536" d="M57 655q0 148 59.5 271t160 203.5t231.5 124.5t276 44h35l35 160h139l-35 -160q150 -6 267 -61t187.5 -163t70.5 -255q0 -148 -59.5 -271t-160.5 -203.5t-232 -124.5t-275 -44h-35l-39 -176h-139l39 176q-150 6 -267 61t-187.5 163t-70.5 255zM195 655q0 -167 111 -255.5 t300 -104.5l189 887q-168 -3 -302 -62.5t-216 -179.5t-82 -285zM745 293q125 2 233.5 37.5t190.5 100t129.5 164.5t47.5 224q0 167 -111.5 256t-300.5 105z" />
<glyph unicode="&#x425;" horiz-adv-x="1175" d="M-135 0l667 760l-356 698h150l299 -612l528 612h164l-629 -719l379 -739h-147l-324 651l-565 -651h-166z" />
<glyph unicode="&#x426;" horiz-adv-x="1478" d="M10 0l309 1458h140l-285 -1339h868l285 1339h139l-284 -1339h153l-108 -512h-140l84 393h-1161z" />
<glyph unicode="&#x427;" horiz-adv-x="1310" d="M154 942q0 65 18 150l78 366h139l-84 -395q-12 -62 -12 -102q0 -205 264 -205q116 0 253 19.5t222 39.5l137 643h140l-310 -1458h-139l148 696q-78 -18 -225 -39.5t-236 -21.5q-393 0 -393 307z" />
<glyph unicode="&#x428;" horiz-adv-x="2138" d="M10 0l309 1458h140l-285 -1339h713l284 1339h140l-285 -1339h713l284 1339h140l-310 -1458h-1843z" />
<glyph unicode="&#x429;" horiz-adv-x="2174" d="M10 0l309 1458h140l-285 -1339h713l284 1339h140l-285 -1339h713l284 1339h140l-285 -1339h154l-109 -512h-139l84 393h-1858z" />
<glyph unicode="&#x42a;" horiz-adv-x="1607" d="M125 1339l25 119h624l-129 -618h373q159 0 258 -27q106 -31 169.5 -126t63.5 -222q0 -129 -61.5 -239t-165.5 -167q-67 -35 -147 -47t-236 -12h-573l284 1339h-485zM492 119h409h22q73 0 112.5 2t98.5 16t101 43q63 41 100 116.5t37 160.5t-40 152t-118 89 q-85 23 -233 23h-363z" />
<glyph unicode="&#x42b;" horiz-adv-x="1722" d="M-8 0l309 1458h139l-129 -618h373q159 0 258 -27q106 -31 170 -126t64 -222q0 -129 -62 -239t-166 -167q-67 -35 -147 -47t-236 -12h-573zM158 119h409h22q73 0 112.5 2t98.5 16t101 43q63 41 100 116.5t37 160.5t-39.5 152t-117.5 89q-85 23 -234 23h-362zM1280 0 l309 1458h137l-307 -1458h-139z" />
<glyph unicode="&#x42c;" horiz-adv-x="1290" d="M10 0l309 1458h140l-129 -618h372q160 0 259 -27q106 -31 169.5 -126t63.5 -222q0 -129 -61.5 -239t-165.5 -167q-67 -35 -147 -47t-236 -12h-574zM176 119h410h22q73 0 112.5 2t98.5 16t101 43q63 41 100 116.5t37 160.5t-40 152t-118 89q-85 23 -233 23h-363z" />
<glyph unicode="&#x42d;" horiz-adv-x="1441" d="M49 440v15h135q10 -180 115.5 -274.5t294.5 -94.5q104 0 196 32.5t162.5 89t126.5 134t92.5 166.5t55.5 188h-766l26 117h754q2 16 2 49q0 236 -119.5 372t-326.5 136q-177 0 -309 -90.5t-195 -253.5h-146q47 132 138 240q189 223 514 223q270 0 427.5 -166t157.5 -453 q0 -139 -34 -271t-102.5 -246.5t-162 -201.5t-221 -136.5t-272.5 -49.5q-241 0 -392 132t-151 343z" />
<glyph unicode="&#x42e;" horiz-adv-x="2048" d="M10 0l309 1458h138l-133 -639h301q30 142 95 262t161 211.5t228 143t286 51.5q270 0 434 -167.5t164 -440.5q0 -141 -32 -274.5t-98 -250.5t-158.5 -204.5t-222 -138t-280.5 -50.5q-280 0 -440 169t-160 462q0 54 6 110h-309l-152 -702h-137zM739 592q0 -236 127.5 -374 t345.5 -138q124 0 230 47t180 125.5t126.5 182t77.5 216t25 226.5q0 223 -123.5 356t-343.5 133q-125 0 -231.5 -43.5t-181.5 -118.5t-128 -174t-78.5 -210.5t-25.5 -227.5z" />
<glyph unicode="&#x42f;" horiz-adv-x="1290" d="M-131 0l633 639q-162 16 -257 106t-95 256q0 126 60.5 234.5t162.5 163.5q65 34 145.5 46.5t233.5 12.5h546l-309 -1458h-139l137 635h-309l-629 -635h-180zM287 1010q0 -83 38.5 -148t112.5 -86q78 -22 232 -22h340l125 585h-385q-147 0 -207 -12q-72 -13 -123 -47 q-61 -41 -97 -114t-36 -156z" />
<glyph unicode="&#x430;" horiz-adv-x="1062" d="M-14 258q0 60 17.5 109.5t44.5 83t70.5 60t84.5 41.5t98 26t99.5 15.5t99.5 8.5q4 0 30 1.5t38 2t38.5 3t41.5 5t37.5 7.5t37 11.5t28.5 15.5t23 20q15 20 26 66t11 87q0 150 -238 150q-138 0 -215 -54.5t-108 -173.5h-123q70 336 442 336q175 0 269 -65.5t94 -186.5 q0 -47 -29 -180l-76 -338q-1 -5 -9.5 -43.5t-12.5 -64.5t-4 -45q0 -66 55 -66q21 0 62 8l-19 -98q-53 -14 -94 -14q-59 0 -90 31.5t-31 91.5q0 19 8 55q-136 -195 -383 -195q-150 0 -236.5 77.5t-86.5 211.5zM111 266q0 -92 63 -144t172 -52q138 0 244 92q61 53 90.5 114.5 t62.5 198.5l23 94q-17 -17 -42.5 -28.5t-64.5 -18t-61 -9.5t-69.5 -6t-51.5 -3q-40 -3 -69 -5.5t-70 -10t-70 -17.5t-60.5 -28t-51 -41.5t-32.5 -58t-13 -77.5z" />
<glyph unicode="&#x431;" d="M53 422q0 204 67 432.5t177 362.5q86 107 194 156.5t263 58.5l100 6q79 4 110.5 16t49.5 39h143q-26 -93 -99.5 -130.5t-211.5 -45.5l-158 -10q-180 -12 -298.5 -137.5t-190.5 -378.5h6q60 112 174 190t242 78q194 0 302.5 -108.5t108.5 -303.5q0 -101 -22.5 -198.5 t-69.5 -184.5t-112 -153t-157 -105t-198 -39q-200 0 -310 118.5t-110 336.5zM180 403q0 -156 79.5 -242.5t219.5 -86.5q82 0 152.5 35t119.5 92.5t84 131.5t51.5 153t16.5 157q0 142 -76.5 225.5t-216.5 83.5q-119 0 -217.5 -71.5t-155.5 -197.5t-57 -280z" />
<glyph unicode="&#x432;" horiz-adv-x="1062" d="M-12 0l221 1053h403q43 0 74.5 -1.5t72 -7t69 -15t58.5 -28t48.5 -43.5t30.5 -62.5t12 -84.5q0 -103 -61 -174t-166 -88q86 -19 132 -75.5t46 -143.5q0 -108 -63 -195.5t-165 -116.5q-45 -12 -87 -15t-140 -3h-485zM139 106h316q127 0 188 15q71 17 116.5 76t45.5 135 q0 40 -10.5 69.5t-32.5 47.5t-44.5 29.5t-57.5 16t-60 6t-63 1.5h-314zM244 602h327q46 0 71 1.5t63 10.5t65 27q40 25 62 67t22 93q0 34 -9.5 59t-28.5 40.5t-38.5 25t-50.5 14t-53.5 5.5t-55.5 1h-301z" />
<glyph unicode="&#x433;" horiz-adv-x="819" d="M-10 0l223 1053h698l-22 -109h-570l-200 -944h-129z" />
<glyph unicode="&#x434;" d="M-207 -336l94 442h125q106 140 182.5 336t135.5 476l28 135h689l-201 -947h147l-94 -442h-129l72 336h-848l-72 -336h-129zM145 106h572l178 840h-434l-15 -69q-51 -250 -131.5 -448.5t-169.5 -322.5z" />
<glyph unicode="&#x435;" horiz-adv-x="1062" d="M25 416q0 186 73 338.5t201.5 239.5t284.5 87q189 0 296 -114.5t107 -315.5q0 -64 -12 -153h-817q-8 -49 -8 -86q0 -160 81 -250t224 -90q123 0 213 69.5t131 196.5h131q-54 -178 -174.5 -275.5t-306.5 -97.5q-200 0 -312 119.5t-112 331.5zM174 602h686q4 29 4 60 q0 149 -76 232t-213 83q-148 0 -254.5 -100t-146.5 -275z" />
<glyph unicode="&#x436;" horiz-adv-x="1441" d="M-154 0l584 631l-317 422h161l369 -514l109 514h129l-107 -502l561 502h178l-495 -426l332 -627h-146l-282 543l-183 -156l-82 -387h-129l84 391l-114 150l-488 -541h-164z" />
<glyph unicode="&#x437;" horiz-adv-x="993" d="M-8 305q0 19 2 37h123v-29q0 -115 75.5 -177t215.5 -62q138 0 230.5 68.5t92.5 199.5q0 72 -49.5 114t-153.5 42h-180l23 102h141q106 0 188 60t82 159q0 66 -56 111t-189 45q-138 0 -215.5 -61t-102.5 -166h-127q74 335 461 335q167 0 259.5 -66t92.5 -194 q0 -99 -67 -171.5t-156 -90.5v-4q72 -13 123 -67t51 -144q0 -75 -24 -138t-65.5 -106.5t-98.5 -74t-123 -44.5t-139 -14q-185 0 -299.5 90t-114.5 246z" />
<glyph unicode="&#x438;" horiz-adv-x="1099" d="M-23 0l224 1053h129l-191 -901l742 901h170l-224 -1053h-129l193 901l-744 -901h-170z" />
<glyph unicode="&#x439;" horiz-adv-x="1099" d="M-23 0l224 1053h129l-191 -901l742 901h170l-224 -1053h-129l193 901l-744 -901h-170zM391 1427q0 23 2 35h80q0 -3 -1 -10t-1 -10q0 -70 46 -109t130 -39q88 0 155 44.5t99 123.5h80q-38 -128 -124.5 -197t-211.5 -69q-120 0 -187 60t-67 171z" />
<glyph unicode="&#x43a;" horiz-adv-x="948" d="M-20 0l225 1053h125l-115 -531l637 531h172l-522 -428l329 -625h-147l-283 541l-219 -181l-76 -360h-126z" />
<glyph unicode="&#x43b;" horiz-adv-x="1099" d="M-123 2l23 104q46 -22 104 -22q138 0 215 313l164 656h670l-224 -1053h-129l201 946h-418l-137 -555q-54 -216 -136.5 -316t-207.5 -100q-60 0 -125 27z" />
<glyph unicode="&#x43c;" horiz-adv-x="1366" d="M-23 0l224 1053h166l196 -908l578 908h178l-223 -1053h-129l184 866h-6l-551 -866h-115l-182 866h-6l-185 -866h-129z" />
<glyph unicode="&#x43d;" horiz-adv-x="1099" d="M-23 0l224 1053h129l-94 -449h589l95 449h129l-224 -1053h-129l105 496h-590l-105 -496h-129z" />
<glyph unicode="&#x43e;" d="M31 414q0 190 74.5 343t207 239.5t297.5 86.5q198 0 311 -112.5t113 -311.5q0 -101 -23 -200t-70.5 -188t-114 -156.5t-160.5 -107.5t-203 -40q-205 0 -318.5 117.5t-113.5 329.5zM158 416q0 -161 82.5 -251.5t228.5 -90.5q85 0 157.5 36t123 95.5t86 135.5t52.5 156 t17 158q0 148 -79.5 235t-225.5 87q-187 0 -314.5 -161.5t-127.5 -399.5z" />
<glyph unicode="&#x43f;" horiz-adv-x="1099" d="M-23 0l224 1053h848l-224 -1053h-129l201 946h-590l-201 -946h-129z" />
<glyph unicode="&#x440;" horiz-adv-x="1175" d="M-92 -393l305 1446h117l-41 -199q63 111 164.5 170t228.5 59q179 0 283 -119t104 -323q0 -121 -36 -238.5t-102 -215t-172 -158t-233 -60.5q-147 0 -244 73t-116 198l-133 -633h-125zM211 387q0 -145 81.5 -230t219.5 -85q83 0 155 35.5t121.5 94t85.5 133.5t53 153.5 t17 154.5q0 152 -75.5 244t-223.5 92q-85 0 -158 -37.5t-122.5 -98.5t-85 -139.5t-52 -159t-16.5 -157.5z" />
<glyph unicode="&#x441;" horiz-adv-x="1062" d="M41 410q0 128 40 248t112 215t184 152.5t246 57.5q173 0 277 -93.5t104 -250.5v-12h-127v2q0 116 -70 182t-193 66q-86 0 -160 -33t-125.5 -89t-88.5 -128.5t-54.5 -151.5t-17.5 -159q0 -162 77 -250t218 -88q120 0 211 68t137 194h131q-123 -371 -487 -371 q-196 0 -305 116t-109 325z" />
<glyph unicode="&#x442;" horiz-adv-x="909" d="M53 946l23 107h911l-22 -107h-392l-200 -946h-129l200 946h-391z" />
<glyph unicode="&#x443;" horiz-adv-x="948" d="M-113 -389l23 108q51 -10 88 -10q65 0 110.5 38.5t88.5 107.5l90 145l-197 1053h135l152 -895l489 895h140l-619 -1094l-35 -63t-34 -58t-37 -57.5t-37 -49t-41.5 -46t-43.5 -35t-49.5 -29t-53.5 -15.5t-62 -7q-48 0 -107 12z" />
<glyph unicode="&#x444;" horiz-adv-x="1638" d="M16 354q0 97 21.5 197.5t67 196t109 170t155 120t198.5 45.5q87 0 147 -36t85 -103h4l110 514h129l-110 -514h4q114 139 285 139q151 0 238 -102.5t87 -278.5q0 -79 -16 -163t-46.5 -166t-78.5 -155t-107.5 -128.5t-138 -88t-166.5 -32.5q-85 0 -148 39.5t-85 102.5h-4 l-107 -504l-129 2l107 502h-4q-51 -64 -127 -103t-160 -39q-139 0 -229.5 103.5t-90.5 281.5zM145 350q0 -137 63 -204.5t175 -67.5q101 0 182.5 64t102.5 165l96 447q4 32 4 49q0 78 -52 127t-138 49t-159.5 -41.5t-122.5 -107.5t-84 -150t-51 -168t-16 -162zM791 254 q0 -79 53 -127.5t139 -48.5q87 0 160 40t122 104.5t83 146.5t49.5 165t15.5 162q0 143 -64.5 213t-174.5 70q-99 0 -179 -63.5t-102 -161.5l-96 -447q-6 -27 -6 -53z" />
<glyph unicode="&#x445;" horiz-adv-x="948" d="M-121 0l506 555l-250 498h146l194 -418l363 418h153l-461 -508l281 -545h-145l-226 463l-405 -463h-156z" />
<glyph unicode="&#x446;" d="M-23 0l224 1053h129l-201 -947h590l201 947h129l-201 -947h156l-95 -442h-129l72 336h-875z" />
<glyph unicode="&#x447;" horiz-adv-x="1024" d="M94 778l58 275h129l-62 -289q-8 -37 -9 -67.5t6 -51.5t16 -37t26.5 -25.5t32 -15.5t37.5 -8.5t38.5 -3t39.5 -0.5q80 0 181.5 19t166.5 44l92 435h129l-223 -1053h-129l106 502q-71 -25 -178 -44.5t-197 -19.5q-165 0 -231 80t-29 260z" />
<glyph unicode="&#x448;" horiz-adv-x="1615" d="M-23 0l224 1053h129l-201 -944h487l201 944h129l-201 -944h488l201 944h129l-224 -1053h-1362z" />
<glyph unicode="&#x449;" horiz-adv-x="1654" d="M-23 0l224 1053h129l-201 -944h487l201 944h129l-201 -944h488l201 944h129l-201 -944h158l-95 -445h-129l72 336h-1391z" />
<glyph unicode="&#x44a;" horiz-adv-x="1251" d="M57 946l23 107h477l-90 -414h309q122 0 193 -21q80 -25 129 -99t49 -169t-47 -178.5t-125 -126.5q-51 -26 -111.5 -35.5t-175.5 -9.5h-481l201 946h-351zM356 106h340q55 0 82.5 1t71.5 11.5t76 31.5q45 29 70.5 81.5t25.5 112.5t-28 108t-85 64q-55 14 -159 14h-304z " />
<glyph unicode="&#x44b;" horiz-adv-x="1366" d="M-20 0l223 1053h127l-90 -414h247q123 0 193 -21q80 -25 129 -99t49 -169t-47 -178.5t-125 -126.5q-51 -26 -111.5 -35.5t-175.5 -9.5h-419zM129 106h279q54 0 82 1t71.5 11.5t75.5 31.5q45 29 70.5 81.5t25.5 112.5q0 61 -28 108.5t-84 63.5q-55 14 -160 14h-242zM963 0 l223 1053h129l-223 -1053h-129z" />
<glyph unicode="&#x44c;" horiz-adv-x="1024" d="M-20 0l223 1053h127l-90 -414h309q121 0 192 -21q80 -25 129.5 -99t49.5 -169t-47 -178.5t-125 -126.5q-51 -26 -111.5 -35.5t-175.5 -9.5h-481zM129 106h340q54 0 82 1t71.5 11.5t75.5 31.5q45 29 71 82t26 112q0 60 -28 108t-85 64q-55 14 -160 14h-303z" />
<glyph unicode="&#x44d;" horiz-adv-x="1062" d="M-4 313v13h127v-2q0 -116 69.5 -182t192.5 -66q88 0 162.5 34t127 92.5t88 131t52.5 155.5h-483l22 107h475q2 14 2 41q0 163 -76.5 250.5t-217.5 87.5q-113 0 -200 -60t-136 -172h-133q129 340 477 340q196 0 304.5 -115.5t108.5 -324.5q0 -102 -24.5 -200t-74 -183.5 t-118 -150.5t-162.5 -102.5t-202 -37.5q-173 0 -277 93.5t-104 250.5z" />
<glyph unicode="&#x44e;" horiz-adv-x="1556" d="M-23 0l224 1053h129l-94 -449h233q52 216 203 347.5t356 131.5q198 0 311 -112.5t113 -311.5q0 -101 -23 -200t-70.5 -188t-114 -156.5t-160.5 -107.5t-203 -40q-205 0 -318.5 117.5t-113.5 329.5q0 28 4 82h-242l-105 -496h-129zM575 416q0 -161 83 -251.5t229 -90.5 q85 0 157.5 36t123 95.5t86 135.5t52.5 156t17 158q0 148 -79.5 235t-225.5 87q-123 0 -225 -73.5t-160 -202.5t-58 -285z" />
<glyph unicode="&#x44f;" horiz-adv-x="1062" d="M-92 0l457 461q-117 11 -186.5 76.5t-69.5 185.5q0 92 44 170.5t117 116.5q46 26 103 34.5t172 8.5h467l-224 -1053h-129l99 459h-236l-452 -459h-162zM233 731q0 -54 26 -96t75 -55q56 -15 149 -15h297l80 381h-325q-53 0 -77 -1t-66 -10t-70 -28q-40 -26 -64.5 -74 t-24.5 -102z" />
<glyph unicode="&#x451;" horiz-adv-x="1062" d="M25 416q0 186 73 338.5t201.5 239.5t284.5 87q189 0 296 -114.5t107 -315.5q0 -64 -12 -153h-817q-8 -49 -8 -86q0 -160 81 -250t224 -90q123 0 213 69.5t131 196.5h131q-54 -178 -174.5 -275.5t-306.5 -97.5q-200 0 -312 119.5t-112 331.5zM174 602h686q4 29 4 60 q0 149 -76 232t-213 83q-148 0 -254.5 -100t-146.5 -275zM360 1245l43 207h132l-43 -207h-132zM696 1245l43 207h131l-41 -207h-133z" />
<glyph unicode="&#x452;" horiz-adv-x="1099" d="M-10 0l200 946h-106l22 107h107l86 405h129l-86 -405h477l-22 -107h-478l-77 -368h4q158 213 393 213q138 0 222.5 -74t84.5 -195q0 -30 -7 -78.5t-13 -80t-20.5 -97t-16.5 -76.5q-24 -115 -83.5 -218.5t-144 -182.5t-196 -127.5t-232.5 -52.5l27 121q189 10 327 146 t177 333q5 26 18 86t17.5 82.5t9 58.5t4.5 64q0 85 -56.5 132.5t-156.5 47.5q-94 0 -179 -45.5t-145 -128.5q-34 -48 -55.5 -103t-42.5 -143l-59 -260h-129z" />
<glyph unicode="&#x453;" horiz-adv-x="819" d="M-23 0l224 1053h698l-22 -109h-570l-201 -944h-129zM438 1214l238 293h170l-299 -293h-109z" />
<glyph unicode="&#x454;" horiz-adv-x="1062" d="M41 410q0 128 40 248t112 215t184 152.5t246 57.5q172 0 276 -92t105 -246h-127q-5 108 -75 170t-188 62q-83 0 -154.5 -30.5t-123 -84t-87.5 -120t-56 -144.5h497l-22 -109h-496q-4 -50 -4 -73q0 -162 77 -250t218 -88q120 0 211 68t137 194h131q-123 -371 -487 -371 q-196 0 -305 116t-109 325z" />
<glyph unicode="&#x455;" horiz-adv-x="985" d="M-6 305q0 19 2 37h123v-29q0 -115 75.5 -177t215.5 -62q125 0 202.5 55.5t77.5 144.5q0 19 -4.5 36.5t-10.5 32t-20 28.5l-24 24t-31.5 22.5t-34.5 20t-40.5 19t-42.5 17.5l-47.5 19l-47.5 19q-48 20 -78 34t-69 38.5t-60.5 51t-37 66t-15.5 86.5q0 132 106 212.5 t283 80.5t274 -81t97 -230v-25h-125v15q0 213 -260 213q-115 0 -183.5 -47t-68.5 -127q0 -31 14.5 -58.5t32.5 -45t54 -36.5t58 -28t67.5 -25t60.5 -22q56 -21 94.5 -39t76.5 -44t60.5 -55t36.5 -68.5t14 -88.5q0 -66 -24.5 -121t-65.5 -91t-96 -61t-113 -36t-119 -11 q-191 0 -299 89t-108 247z" />
<glyph unicode="&#x456;" horiz-adv-x="378" d="M-25 0l224 1053h127l-224 -1053h-127zM242 1253l43 211h129l-45 -211h-127z" />
<glyph unicode="&#x457;" horiz-adv-x="378" d="M-25 0l224 1053h127l-224 -1053h-127zM55 1245l43 207h131l-43 -207h-131zM391 1245l43 207h131l-41 -207h-133z" />
<glyph unicode="&#x458;" horiz-adv-x="378" d="M-283 -395l23 108q39 -8 65 -8q70 0 101 39q16 21 26 58t35 152q6 29 10 46l222 1053h127l-226 -1073q-3 -13 -8 -39q-8 -41 -12.5 -60.5t-12.5 -54t-14.5 -51t-16.5 -43.5t-20.5 -40.5t-25.5 -32t-32 -27.5t-39 -18.5t-48 -13t-57 -3.5q-52 0 -97 8zM240 1253l45 211 h127l-43 -211h-129z" />
<glyph unicode="&#x459;" horiz-adv-x="1593" d="M-137 2l22 104q18 -9 56 -15.5t63 -6.5q66 0 119 68.5t86 207.5l164 693h620l-90 -430h223q118 0 189 -21q78 -23 126 -94.5t48 -165.5t-46 -176t-122 -123q-49 -26 -107.5 -34.5t-175.5 -8.5h-395l199 946h-367l-137 -592q-88 -379 -336 -379q-28 0 -72 9t-67 18z M793 106h251h23h24.5t23 0.5t24.5 1t22.5 2t24 3.5t22 5t23 7t20.5 9.5t21 12.5q42 28 67 79.5t25 109.5t-27 104t-80 60q-57 14 -157 14h-221z" />
<glyph unicode="&#x45a;" horiz-adv-x="1593" d="M-23 0l224 1053h129l-92 -430h514l92 430h129l-90 -430h243q120 0 191 -21q77 -23 124.5 -95t47.5 -165q0 -94 -46 -176t-122 -123q-49 -26 -107.5 -34.5t-175.5 -8.5h-415l106 514h-514l-109 -514h-129zM772 106h272q57 0 83 1t70 10.5t75 29.5q43 29 67.5 79.5 t24.5 109.5q0 58 -27 104t-80 60q-57 14 -157 14h-242z" />
<glyph unicode="&#x45b;" horiz-adv-x="1099" d="M-10 0l200 946h-106l22 107h107l86 405h129l-86 -405h477l-22 -107h-478l-77 -368h4q158 213 393 213q138 0 222.5 -74t84.5 -195q0 -74 -26 -192l-76 -330h-129l73 324q17 72 21 102t4 74q0 85 -56.5 132.5t-156.5 47.5q-94 0 -179 -45.5t-145 -128.5 q-34 -48 -55.5 -103t-42.5 -143l-59 -260h-129z" />
<glyph unicode="&#x45c;" horiz-adv-x="948" d="M-20 0l225 1053h127l-113 -531l641 531h172l-526 -428l334 -625h-148l-286 541l-222 -181l-78 -360h-126zM508 1214l237 293h170l-299 -293h-108z" />
<glyph unicode="&#x45e;" horiz-adv-x="948" d="M-113 -389l23 108q51 -10 88 -10q65 0 110.5 38.5t88.5 107.5l90 145l-197 1053h135l152 -895l489 895h140l-619 -1094l-35 -63t-34 -58t-37 -57.5t-37 -49t-41.5 -46t-43.5 -35t-49.5 -29t-53.5 -15.5t-62 -7q-48 0 -107 12zM319 1427q0 17 3 35h79q0 -3 -1 -10t-1 -10 q0 -70 46 -109t130 -39q88 0 155 44.5t99 123.5h80q-38 -128 -124.5 -197t-211.5 -69q-120 0 -187 60t-67 171z" />
<glyph unicode="&#x45f;" horiz-adv-x="1099" d="M-20 0l223 1053h129l-201 -947h588l201 947h129l-224 -1053h-358l-72 -336h-129l72 336h-358z" />
<glyph unicode="&#x490;" horiz-adv-x="1062" d="M8 0l309 1458h762l72 334h139l-96 -453h-762l-285 -1339h-139z" />
<glyph unicode="&#x491;" horiz-adv-x="819" d="M-14 0l223 1053h555l70 321h129l-93 -430h-555l-200 -944h-129z" />
<glyph unicode="&#x2000;" horiz-adv-x="926" />
<glyph unicode="&#x2001;" horiz-adv-x="1853" />
<glyph unicode="&#x2002;" horiz-adv-x="926" />
<glyph unicode="&#x2003;" horiz-adv-x="1853" />
<glyph unicode="&#x2004;" horiz-adv-x="617" />
<glyph unicode="&#x2005;" horiz-adv-x="463" />
<glyph unicode="&#x2006;" horiz-adv-x="308" />
<glyph unicode="&#x2007;" horiz-adv-x="308" />
<glyph unicode="&#x2008;" horiz-adv-x="231" />
<glyph unicode="&#x2009;" horiz-adv-x="370" />
<glyph unicode="&#x200a;" horiz-adv-x="102" />
<glyph unicode="&#x2010;" horiz-adv-x="757" d="M78 502l24 121h516l-26 -121h-514z" />
<glyph unicode="&#x2011;" horiz-adv-x="757" d="M78 502l24 121h516l-26 -121h-514z" />
<glyph unicode="&#x2012;" horiz-adv-x="757" d="M78 502l24 121h516l-26 -121h-514z" />
<glyph unicode="&#x2013;" horiz-adv-x="1024" d="M-25 500l25 123h1022l-27 -123h-1020z" />
<glyph unicode="&#x2014;" horiz-adv-x="2048" d="M-25 500l25 123h2050l-27 -123h-2048z" />
<glyph unicode="&#x2018;" horiz-adv-x="569" d="M260 991l41 197q14 65 30.5 110t44.5 86t72 66.5t105 36.5l-18 -84q-67 -23 -94.5 -67t-47.5 -130h76l-45 -215h-164z" />
<glyph unicode="&#x2019;" horiz-adv-x="569" d="M242 963l18 84q67 23 94 66t47 130h-75l45 215h164l-41 -196q-14 -65 -30.5 -110t-44.5 -86t-72 -66.5t-105 -36.5z" />
<glyph unicode="&#x201a;" horiz-adv-x="569" d="M-35 -281l19 82q30 11 51.5 27.5t34.5 31.5t23.5 41.5t15 44.5t12.5 54h-72l43 207h158l-43 -197q-31 -142 -86 -209t-156 -82z" />
<glyph unicode="&#x201c;" horiz-adv-x="757" d="M193 997l43 197q31 142 86 209t155 82l-18 -82q-30 -11 -51.5 -27.5t-34.5 -31.5t-23.5 -41.5t-15 -44.5t-12.5 -54h71l-43 -207h-157zM506 997l43 197q31 142 86 209t156 82l-19 -82q-30 -11 -51.5 -27.5t-34.5 -31.5t-23.5 -41.5t-15 -44.5t-12.5 -54h72l-43 -207h-158 z" />
<glyph unicode="&#x201d;" horiz-adv-x="757" d="M178 971l19 82q30 11 51.5 27t34.5 31.5t23.5 41.5t15 44t12.5 54h-72l43 207h158l-43 -196q-31 -142 -86 -209t-156 -82zM492 971l18 82q30 11 51.5 27t34.5 31.5t23.5 41.5t15 44t12.5 54h-72l43 207h158l-43 -196q-31 -142 -86 -209t-155 -82z" />
<glyph unicode="&#x201e;" horiz-adv-x="757" d="M-76 -281l19 82q30 11 51.5 27.5t34.5 31.5t23.5 41.5t15 44.5t12.5 54h-72l43 207h158l-43 -197q-31 -142 -86 -209t-156 -82zM238 -281l18 82q30 11 51.5 27.5t34.5 31.5t23.5 41.5t15 44.5t12.5 54h-71l43 207h157l-43 -197q-31 -142 -86 -209t-155 -82z" />
<glyph unicode="&#x2020;" d="M137 897l23 109h409l97 452h122l-96 -452h410l-23 -109h-409l-256 -1206h-123l254 1206h-408z" />
<glyph unicode="&#x2021;" d="M-29 100l25 105h407l156 737h-407l22 107h408l88 409h118l-86 -409h412l-22 -107h-412l-154 -737h410l-23 -105h-411l-86 -407h-121l86 407h-410z" />
<glyph unicode="&#x2022;" horiz-adv-x="1024" d="M147 729q0 151 107 258t258 107t258 -107t107 -258t-107 -257.5t-258 -106.5t-258 106.5t-107 257.5z" />
<glyph unicode="&#x2026;" horiz-adv-x="2048" d="M106 0l48 211h170l-48 -211h-170zM780 0l47 211h170l-47 -211h-170zM1466 0l47 211h170l-47 -211h-170z" />
<glyph unicode="&#x202f;" horiz-adv-x="370" />
<glyph unicode="&#x2030;" horiz-adv-x="2162" d="M76 -68l1165 1557h111l-1166 -1557h-110zM115 1028q0 109 39.5 203t122.5 155.5t194 61.5q124 0 192 -69.5t68 -194.5q0 -186 -100.5 -307t-255.5 -121q-122 0 -191 72.5t-69 199.5zM221 1016q0 -83 42.5 -128.5t119.5 -45.5q59 0 107 32t76.5 82.5t43.5 107.5t15 112 q0 80 -41 133t-119 53q-61 0 -110 -33.5t-77 -86.5t-42.5 -111t-14.5 -115zM702 250q0 109 40 203t123 155.5t194 61.5q124 0 192 -69.5t68 -194.5q0 -186 -100.5 -307.5t-255.5 -121.5q-122 0 -191.5 73t-69.5 200zM809 238q0 -83 42.5 -129t119.5 -46q59 0 107 32t76 82.5 t43 107.5t15 112q0 80 -40.5 133.5t-118.5 53.5q-61 0 -110 -33.5t-77 -86.5t-42.5 -111t-14.5 -115zM1430 250q0 109 39.5 203t122.5 155.5t194 61.5q124 0 192 -69.5t68 -194.5q0 -186 -100.5 -307.5t-255.5 -121.5q-121 0 -190.5 72.5t-69.5 200.5zM1536 238 q0 -83 42.5 -129t119.5 -46q59 0 107 32t76 82.5t43 107.5t15 112q0 80 -40.5 133.5t-118.5 53.5q-61 0 -110 -33.5t-77 -86.5t-42.5 -111t-14.5 -115z" />
<glyph unicode="&#x2039;" horiz-adv-x="530" d="M66 500l32 131l322 231l-29 -141l-237 -170l155 -211l-26 -125z" />
<glyph unicode="&#x203a;" horiz-adv-x="530" d="M45 215l31 143l237 170l-157 209l28 127l215 -284l-30 -131z" />
<glyph unicode="&#x205f;" horiz-adv-x="463" />
<glyph unicode="&#x2122;" horiz-adv-x="2027" d="M291 1382v76h596v-76h-256v-653h-84v653h-256zM1022 729v729h127l231 -604l232 604h123v-729h-76v645l-246 -645h-72l-243 645v-645h-76z" />
<glyph unicode="&#x2206;" horiz-adv-x="1366" d="M-14 0l583 1458h129l590 -1458h-1302zM143 106h981l-491 1246z" />
<glyph unicode="&#x221a;" horiz-adv-x="1228" d="M39 307l180 90l340 -710l397 1923h101l-430 -2048h-113l-344 708l-92 -45z" />
<glyph unicode="&#x221e;" horiz-adv-x="1478" d="M43 504q0 125 75.5 207t192.5 82q27 0 56.5 -7t52.5 -14.5t54.5 -27t48 -30t50.5 -38t44 -36t45.5 -40t39.5 -35.5q8 7 52.5 49.5t60 55.5t56.5 45t67.5 44t65.5 24t77 12q121 0 199 -80t78 -205q0 -126 -75.5 -205.5t-195.5 -79.5q-88 0 -172 47t-213 168 q-22 -17 -68.5 -57t-74 -61t-70 -47t-86 -38t-90.5 -12q-119 0 -194.5 78t-75.5 201zM141 506q0 -83 48 -132.5t128 -49.5q72 0 159 55t157 125q-2 2 -28 24t-33 28t-33 27t-38.5 29t-36.5 24.5t-40.5 24t-37.5 17t-40 13t-37 3.5q-72 0 -120 -53.5t-48 -134.5zM770 504 q41 -38 70.5 -62.5t74 -55.5t89 -46.5t88.5 -15.5q75 0 121.5 50t46.5 130q0 88 -47.5 140t-127.5 52q-21 0 -44 -6t-41.5 -13t-44 -23.5t-40 -26t-41.5 -32t-36.5 -30.5t-36.5 -32.5t-31 -28.5z" />
<glyph unicode="&#x2248;" horiz-adv-x="1228" d="M33 207q8 45 19 81t30.5 72t45 60.5t65 39.5t88.5 15q20 0 41.5 -2.5t49.5 -9t45 -10.5t51.5 -15.5l43.5 -14.5t48 -17l38 -13q12 -4 47 -17t55.5 -20t51 -16t57 -13.5t49.5 -4.5q70 0 112.5 47.5t57.5 119.5h74q-5 -52 -21.5 -98.5t-45 -84t-74 -59.5t-101.5 -22 q-40 0 -96.5 13t-86 22.5t-95.5 32.5q-20 7 -70.5 25t-82.5 28.5t-75 20.5t-73 10q-64 0 -110.5 -47.5t-57.5 -122.5h-80zM33 537q8 45 19 81t30.5 72t45 60.5t65 39.5t88.5 15q20 0 41.5 -2.5t49.5 -9t45 -10.5t51.5 -15.5l43.5 -14.5t48 -17l38 -13q7 -3 58 -21.5t73 -26 t61 -16t68 -8.5q70 0 112.5 48t57.5 120h74q-5 -52 -21.5 -98.5t-45 -84t-74 -59.5t-101.5 -22q-40 0 -96.5 13t-86 22.5t-95.5 32.5q-20 7 -70.5 25t-82.5 28.5t-75 20.5t-73 10q-64 0 -110.5 -47.5t-57.5 -122.5h-80z" />
<glyph unicode="&#x2260;" horiz-adv-x="1228" d="M66 281v98h372l146 276h-518v99h573l158 297l86 -45l-135 -252h335v-99h-389l-147 -276h536v-98h-589l-154 -289l-86 47l131 242h-319z" />
<glyph unicode="&#x2264;" horiz-adv-x="1228" d="M51 47h1018v-98h-1018v98zM51 532v111l1018 395v-110l-883 -340l883 -340v-109z" />
<glyph unicode="&#x2265;" horiz-adv-x="1228" d="M104 47h1018v-98h-1018v98zM104 139v109l881 340l-881 340v110l1018 -395v-111z" />
<glyph unicode="&#x25fc;" horiz-adv-x="1054" d="M0 0v1055h1055v-1055h-1055z" />
</font>
</defs>
</svg>
