<?xml version="1.0" standalone="no"?>
<!DOCTYPE svg PUBLIC "-//W3C//DTD SVG 1.1//EN" "http://www.w3.org/Graphics/SVG/1.1/DTD/svg11.dtd" >
<svg xmlns="http://www.w3.org/2000/svg">
<metadata></metadata>
<defs>
<font id="helveticaneuecyrbold_italic" horiz-adv-x="1138" >
<font-face units-per-em="2048" ascent="1638" descent="-410" />
<missing-glyph horiz-adv-x="569" />
<glyph horiz-adv-x="2048" />
<glyph horiz-adv-x="2048" />
<glyph unicode="&#xd;" horiz-adv-x="2048" />
<glyph unicode=" "  horiz-adv-x="569" />
<glyph unicode="&#x09;" horiz-adv-x="569" />
<glyph unicode="&#xa0;" horiz-adv-x="569" />
<glyph unicode="!" horiz-adv-x="606" d="M-4 0l65 303h310l-64 -303h-311zM172 438l51 625l84 395h305l-84 -391l-213 -629h-143z" />
<glyph unicode="&#x22;" horiz-adv-x="985" d="M254 768l88 653h213l-162 -653h-139zM610 768l88 653h215l-163 -653h-140z" />
<glyph unicode="#" d="M-14 393l39 172h186l61 289h-186l39 174h186l84 393h201l-84 -393h221l86 393h201l-86 -393h186l-37 -174h-186l-63 -289h186l-37 -172h-186l-86 -393h-201l86 393h-223l-84 -393h-201l84 393h-186zM412 565h221l63 289h-223z" />
<glyph unicode="$" d="M-68 381q0 45 2 72h291q-4 -36 -4 -39q0 -187 185 -217l92 434q-73 20 -121.5 37.5t-105.5 48.5t-91 68t-57 94t-23 129q0 202 146.5 325t386.5 123q23 0 39 -2l33 158h98l-35 -162q78 -9 144.5 -33.5t122 -66.5t87 -107.5t31.5 -148.5q0 -7 -1 -27.5t-1 -32.5h-272 q2 14 2 37q0 69 -42.5 114t-115.5 54l-82 -387q217 -51 319.5 -146.5t102.5 -244.5q0 -90 -29.5 -169t-82 -136.5t-122.5 -99t-152.5 -62.5t-170.5 -21h-51l-37 -178h-99l39 180q-192 13 -309 125t-117 281zM381 1044q0 -32 10 -57t22 -39.5t39.5 -29t43.5 -20t53 -17.5 l78 366h-15q-103 0 -167 -56t-64 -147zM500 188q4 0 10 -1t8 -1q109 0 181.5 66t72.5 164q0 72 -42.5 115t-139.5 71z" />
<glyph unicode="%" horiz-adv-x="1972" d="M154 948q0 210 111.5 351t277.5 141q151 0 235 -80t84 -223q0 -192 -106 -342q-107 -148 -305 -148q-139 0 -218 80t-79 221zM350 -55l1057 1528h190l-1054 -1528h-193zM356 915q0 -57 30 -89.5t81 -32.5q78 0 121 81q27 52 48 140.5t21 150.5q0 60 -29 93.5t-81 33.5 q-72 0 -111 -61q-31 -45 -55.5 -143.5t-24.5 -172.5zM1100 270q0 210 111.5 351t277.5 141q151 0 235 -80t84 -223q0 -192 -106 -342q-107 -148 -305 -148q-139 0 -218 80t-79 221zM1303 238q0 -57 29.5 -90t80.5 -33q37 0 69 22t52 60q28 52 49 140t21 150q0 60 -29.5 93.5 t-81.5 33.5q-72 0 -111 -61q-30 -45 -54.5 -143t-24.5 -172z" />
<glyph unicode="&#x26;" horiz-adv-x="1402" d="M37 381q0 299 391 457q-54 90 -74 147t-20 125q0 158 112 260.5t287 102.5q166 0 272.5 -91.5t106.5 -232.5q0 -123 -77.5 -216.5t-254.5 -182.5l158 -254q71 71 106 204h261q-41 -224 -230 -413l185 -287h-318l-70 115q-91 -77 -181.5 -111.5t-203.5 -34.5 q-200 0 -325 114.5t-125 297.5zM313 387q0 -78 52.5 -129t134.5 -51q132 0 243 117l-188 319q-38 -18 -66 -33t-63.5 -40t-58 -50t-38.5 -60t-16 -73zM588 1120q0 -10 1.5 -20.5t3.5 -19.5t6.5 -21t7 -19.5t9.5 -21t9.5 -19t11 -20.5t10 -18t11.5 -18.5t10 -16.5 q206 102 206 221q0 55 -37.5 89t-97.5 34q-66 0 -108.5 -42t-42.5 -108z" />
<glyph unicode="'" horiz-adv-x="569" d="M225 768l84 653h219l-170 -653h-133z" />
<glyph unicode="(" horiz-adv-x="606" d="M51 299q0 316 126.5 615.5t348.5 553.5h250q-219 -279 -335.5 -596t-116.5 -659q0 -318 77 -588h-223q-127 330 -127 674z" />
<glyph unicode=")" horiz-adv-x="606" d="M-225 -375q450 579 450 1262q0 286 -75 581h221q127 -310 127 -667q0 -330 -121 -617.5t-352 -558.5h-250z" />
<glyph unicode="*" horiz-adv-x="833" d="M145 1190l72 147l221 -114l37 245l164 -6l-47 -260l248 45l28 -160l-243 -36l114 -217l-147 -78l-113 223l-176 -199l-119 115l185 188z" />
<glyph unicode="+" horiz-adv-x="1228" d="M35 428v207h422v428h221v-428h422v-207h-422v-428h-221v428h-422z" />
<glyph unicode="," horiz-adv-x="569" d="M-102 -340l30 143q90 15 129.5 58.5t57.5 138.5h-146l68 319h323l-57 -268q-20 -97 -48 -164.5t-74 -120t-116 -79t-167 -27.5z" />
<glyph unicode="-" horiz-adv-x="833" d="M49 432l55 252h617l-55 -252h-617z" />
<glyph unicode="." horiz-adv-x="569" d="M-35 0l70 319h332l-70 -319h-332z" />
<glyph unicode="/" horiz-adv-x="796" d="M-166 -43l864 1536h260l-862 -1536h-262z" />
<glyph unicode="0" d="M0 496q0 102 17.5 208t51.5 213t90.5 200.5t128.5 166t171 114.5t213 42q220 0 342.5 -135.5t122.5 -378.5q0 -88 -12.5 -179t-39 -184.5t-65 -179t-94 -160.5t-122.5 -130t-155 -86.5t-186 -31.5q-152 0 -258 69.5t-155.5 185t-49.5 266.5zM281 469q0 -128 53.5 -195 t154.5 -67q128 0 209 125q68 109 114 283t46 335q0 258 -203 258q-136 0 -219 -133q-69 -111 -112 -287.5t-43 -318.5z" />
<glyph unicode="1" d="M205 961l47 215q182 3 292.5 63t180.5 193h236l-306 -1432h-305l209 979l-16 -2q-134 -16 -273 -16h-65z" />
<glyph unicode="2" d="M-90 0q6 59 19.5 111.5t30 95t46 84t54 71.5t70 66t78 60t93 59.5t100 57t113.5 61.5q60 32 95 52t79 48.5t68.5 52t48 54t33.5 64.5t10 73q0 86 -57 137t-154 51q-124 0 -190.5 -77.5t-81.5 -205.5h-275q22 245 168.5 386t398.5 141q221 0 353.5 -111.5t132.5 -298.5 q0 -60 -15 -114.5t-38.5 -98t-62 -86t-75.5 -73.5t-89 -65.5t-92 -58.5t-95 -55q-17 -9 -25 -14q-152 -88 -218.5 -131.5t-115.5 -89.5h717l-57 -246h-1067z" />
<glyph unicode="3" d="M-45 410q0 24 6 79h275q-3 -30 -3 -45q0 -109 64.5 -169t181.5 -60t193 70t76 180q0 182 -238 182q-35 0 -72 -2l41 203h96q50 0 94.5 9.5t84.5 31t63 61.5t23 94q0 78 -55.5 122t-151.5 44q-107 0 -173.5 -59.5t-88.5 -175.5h-273q34 225 179.5 347t379.5 122 q209 0 336 -99t127 -262q0 -127 -72 -211.5t-196 -119.5q92 -29 143.5 -103.5t51.5 -179.5q0 -117 -49.5 -213.5t-132.5 -157.5t-187 -94t-217 -33q-230 0 -368 119.5t-138 319.5z" />
<glyph unicode="4" d="M-70 328l58 258l831 850h279l-180 -875h190l-51 -233h-191l-67 -328h-279l68 328h-658zM233 561h404l113 537z" />
<glyph unicode="5" d="M-39 387q0 17 2 31h283v-8q0 -92 63.5 -147.5t169.5 -55.5q129 0 211 85.5t82 219.5q0 110 -63.5 174t-173.5 64q-149 0 -232 -117h-260l248 788h848l-52 -247h-612l-92 -293q111 80 260 80q190 0 306 -115.5t116 -304.5q0 -164 -80.5 -295t-214 -202t-291.5 -71 q-102 0 -192 23.5t-164.5 71t-118 129.5t-43.5 190z" />
<glyph unicode="6" d="M25 528q0 129 26 256.5t82.5 247t137 211t198.5 146.5t258 55q203 0 326 -105t123 -278h-281q-18 166 -188 166q-124 0 -213.5 -103.5t-149.5 -316.5q127 139 315 139q189 0 305.5 -115.5t116.5 -304.5q0 -156 -72.5 -283t-200 -198.5t-284.5 -71.5q-235 0 -367 147 t-132 408zM305 449q0 -110 64 -177t170 -67q110 0 185 86t75 213q0 109 -62.5 172t-171.5 63q-113 0 -186.5 -82t-73.5 -208z" />
<glyph unicode="7" d="M133 0q71 301 272.5 626.5t438.5 532.5h-703l56 262h1015l-51 -237q-540 -527 -702 -1184h-326z" />
<glyph unicode="8" d="M-37 395q0 148 96.5 251t257.5 126q-178 82 -178 272q0 179 139 289.5t363 110.5q221 0 352 -97.5t131 -263.5q0 -126 -75 -216t-199 -113q106 -34 164.5 -116.5t58.5 -197.5q0 -143 -81 -250.5t-210 -160t-284 -52.5q-89 0 -167.5 15t-146.5 48t-116.5 81t-76.5 118 t-28 156zM252 408q0 -100 67 -157.5t185 -57.5q127 0 202.5 70t75.5 186q0 100 -65 154t-185 54q-129 0 -204.5 -67t-75.5 -182zM401 1028q0 -86 59 -134t163 -48q108 0 169.5 55.5t63.5 151.5q0 86 -58 133t-167 47q-104 0 -167 -55.5t-63 -149.5z" />
<glyph unicode="9" d="M-20 362h268q18 -172 198 -172q70 0 126 26.5t91.5 66t63.5 99t42.5 112.5t27.5 120q-120 -141 -318 -141q-187 0 -300 116.5t-113 307.5q0 156 73 281.5t202 196.5t290 71q230 0 358.5 -141.5t128.5 -395.5q0 -108 -16 -215t-49 -213.5t-88.5 -197t-128.5 -160.5 t-175 -110t-223 -40q-215 0 -336.5 103t-121.5 286zM344 913q0 -106 60 -167.5t161 -61.5q120 0 196.5 83t76.5 212q0 107 -61.5 170t-164.5 63q-112 0 -190 -87t-78 -212z" />
<glyph unicode=":" horiz-adv-x="569" d="M-35 0l70 319h332l-70 -319h-332zM113 723l69 319h332l-70 -319h-331z" />
<glyph unicode=";" horiz-adv-x="569" d="M-102 -340l30 143q90 15 129.5 58.5t57.5 138.5h-146l68 319h323l-57 -268q-20 -97 -48 -164.5t-74 -120t-116 -79t-167 -27.5zM113 723l69 319h332l-70 -319h-331z" />
<glyph unicode="&#x3c;" horiz-adv-x="1228" d="M25 424v215l1065 410v-250l-742 -267l742 -266v-254z" />
<glyph unicode="=" horiz-adv-x="1228" d="M49 203v229h1065v-229h-1065zM49 631v229h1065v-229h-1065z" />
<glyph unicode="&#x3e;" horiz-adv-x="1228" d="M82 12v254l741 266l-741 267v250l1065 -410v-215z" />
<glyph unicode="?" horiz-adv-x="1175" d="M152 995q25 226 172.5 358t377.5 132q214 0 340.5 -100t126.5 -267q0 -49 -10 -93t-24.5 -77t-43 -66.5t-51 -55.5t-64.5 -50t-69 -44t-76 -44q-90 -51 -124.5 -97.5t-57.5 -148.5h-270q21 144 74 231.5t172 155.5q8 4 30.5 17t33 19t31.5 19t32 21t28.5 22.5t27 26 t21.5 27.5t18 31.5t10.5 34t4.5 38.5q0 72 -47.5 115t-130.5 43q-58 0 -102.5 -20t-72.5 -56t-44.5 -78.5t-22.5 -93.5h-290zM266 0l64 303h311l-63 -303h-312z" />
<glyph unicode="@" horiz-adv-x="1638" d="M61 709q0 163 64 308.5t173.5 249.5t262 165t324.5 61q201 0 358.5 -78t245.5 -218t88 -318q0 -140 -58.5 -265t-156.5 -199.5t-207 -74.5q-80 0 -127 40t-47 109q0 25 4 41q-45 -88 -117 -139t-166 -51q-124 0 -201 86.5t-77 226.5q0 130 57 245t152 183t203 68 q168 0 231 -139l29 106h174l-133 -457q-21 -77 -21 -110q0 -38 22 -60t62 -22q65 0 126 60.5t98.5 159t37.5 202.5q0 221 -159.5 359t-415.5 138q-201 0 -364 -88.5t-255 -245t-92 -350.5q0 -183 87 -327.5t243 -224.5t354 -80q152 0 286 46.5t275 149.5l60 -82 q-159 -116 -306.5 -167.5t-320.5 -51.5q-343 0 -561 203q-112 102 -172 243t-60 298zM629 643q0 -83 34 -129.5t95 -46.5q56 0 104.5 48.5t78 118t46.5 138t17 117.5q0 59 -33.5 97t-91.5 38q-56 0 -105 -41.5t-79.5 -102.5t-48 -124.5t-17.5 -112.5z" />
<glyph unicode="A" horiz-adv-x="1402" d="M-158 0l865 1458h329l244 -1458h-319l-50 326h-542l-187 -326h-340zM494 561h391l-80 553z" />
<glyph unicode="B" horiz-adv-x="1478" d="M-6 0l309 1458h553q48 0 81.5 -1t81.5 -4.5t82 -10t75.5 -18.5t70.5 -29t58 -42.5t46.5 -58t28.5 -77t11 -97.5q0 -133 -74 -227t-199 -119q101 -34 155 -110.5t54 -186.5q0 -155 -91.5 -282t-238.5 -166q-63 -17 -129.5 -23t-197.5 -6h-676zM356 250h303q41 0 70 1t69 6 t67.5 14t58 25.5t48.5 40t30 58.5t12 80q0 36 -10 64.5t-23.5 46.5t-39.5 31t-45.5 19t-55.5 9t-54.5 3.5t-56.5 0.5h-4.5h-3.5h-4h-4h-271zM487 864h293q49 0 86 3.5t77.5 16t67 34t43.5 59.5t17 90q0 30 -9 53t-21 38t-34.5 25.5t-39.5 15.5t-47 7.5t-46 3t-47 0.5h-8 h-258z" />
<glyph unicode="C" horiz-adv-x="1517" d="M90 608q0 143 34 274.5t102 242t162.5 192.5t222.5 128t276 46q262 0 420.5 -139t158.5 -369v-31h-309q-6 143 -76 211t-215 68q-91 0 -168 -38.5t-129 -102t-88.5 -145.5t-53.5 -167t-17 -168q0 -183 84.5 -285t236.5 -102q136 0 228.5 77.5t127.5 221.5h320 q-47 -259 -235.5 -408t-460.5 -149q-292 0 -456.5 169.5t-164.5 473.5z" />
<glyph unicode="D" horiz-adv-x="1517" d="M-6 0l307 1458h377q205 0 288.5 -9t161.5 -38q150 -55 236 -201.5t86 -345.5q0 -167 -55.5 -327t-153.5 -275q-72 -86 -151.5 -140t-173 -80t-178.5 -34t-208 -8h-536zM365 264h192q120 0 203 16.5t155 71.5q97 73 156 209.5t59 284.5q0 183 -93 264.5t-279 81.5h-197z " />
<glyph unicode="E" horiz-adv-x="1366" d="M2 0l309 1458h1108l-53 -260h-793l-67 -321h735l-53 -250h-735l-78 -361h809l-58 -266h-1124z" />
<glyph unicode="F" horiz-adv-x="1214" d="M-10 0l309 1458h1042l-55 -268h-723l-74 -340h631l-53 -252h-631l-127 -598h-319z" />
<glyph unicode="G" horiz-adv-x="1554" d="M80 594q0 186 56 348.5t159 284t260.5 192t349.5 70.5q98 0 184.5 -19.5t160 -60.5t126.5 -101t83 -144.5t30 -186.5h-307q-17 250 -295 250q-98 0 -180.5 -38t-138.5 -100.5t-95 -145t-56.5 -171t-17.5 -178.5q0 -183 89 -281t253 -98q310 0 398 336h-336l51 235h616 l-163 -786h-205v145q-152 -180 -426 -180q-285 0 -440.5 171t-155.5 458z" />
<glyph unicode="H" horiz-adv-x="1517" d="M-8 0l309 1458h320l-119 -559h594l118 559h320l-309 -1458h-320l133 629h-594l-133 -629h-319z" />
<glyph unicode="I" horiz-adv-x="606" d="M-8 0l309 1458h320l-310 -1458h-319z" />
<glyph unicode="J" d="M-25 328q0 70 27 217h295q-27 -137 -27 -176q0 -72 41 -111t115 -39q45 0 79 14t54.5 37t35 56.5t23.5 67t18 75.5q2 11 3 16l205 973h319l-196 -930q-15 -71 -28 -121.5t-32 -108t-41 -97t-52 -80.5t-67.5 -67t-86 -47.5t-109.5 -31.5t-135 -10q-207 0 -324 96t-117 267 z" />
<glyph unicode="K" horiz-adv-x="1478" d="M-6 0l309 1458h318l-125 -598l669 598h422l-700 -600l446 -858h-360l-334 655l-229 -194l-99 -461h-317z" />
<glyph unicode="L" horiz-adv-x="1175" d="M-2 0l309 1458h320l-252 -1188h712l-57 -270h-1032z" />
<glyph unicode="M" horiz-adv-x="1857" d="M-10 0l317 1458h445l108 -1055l565 1055h455l-315 -1458h-301l266 1161l-623 -1161h-245l-144 1163l-221 -1163h-307z" />
<glyph unicode="N" horiz-adv-x="1517" d="M-14 0l311 1458h332l399 -1036l211 1036h301l-315 -1458h-322l-403 1026l-211 -1026h-303z" />
<glyph unicode="O" horiz-adv-x="1593" d="M78 610q0 249 102 450t283 315t405 114q308 0 482 -165t174 -458q0 -185 -55 -348.5t-156.5 -287t-257 -195.5t-344.5 -72q-296 0 -464.5 172.5t-168.5 474.5zM395 606q0 -181 89.5 -283t248.5 -102q93 0 172 40.5t132 106t91 150t55 171.5t17 171q0 177 -88.5 273 t-251.5 96q-77 0 -145 -27t-117.5 -74t-89 -108.5t-64 -131.5t-37 -141.5t-12.5 -140.5z" />
<glyph unicode="P" horiz-adv-x="1366" d="M-29 0l310 1458h567q153 0 256 -28q118 -35 189 -140.5t71 -245.5q0 -135 -61.5 -252.5t-165.5 -183.5q-81 -51 -185.5 -67.5t-236.5 -16.5h-314l-112 -524h-318zM455 776h325q124 0 198.5 58t74.5 180q0 49 -16 84t-39.5 54t-62.5 30t-73 13.5t-84 2.5h-235z" />
<glyph unicode="Q" horiz-adv-x="1593" d="M78 606q-1 253 103 455t289.5 315t418.5 113q296 0 467.5 -169t171.5 -462q0 -201 -75 -383t-220 -313l164 -182l-172 -142l-181 201q-141 -78 -335 -78q-290 0 -460.5 174t-170.5 471zM399 604q0 -177 88 -280t240 -103q41 0 67.5 5t71.5 22l-123 137l170 143l131 -147 q162 213 162 471q0 180 -87 278.5t-245 98.5q-134 0 -243 -81t-170.5 -224t-61.5 -320z" />
<glyph unicode="R" horiz-adv-x="1478" d="M-16 0l307 1458h610q157 0 254 -20q127 -29 196.5 -121t69.5 -232q0 -160 -90 -269t-241 -134q78 -34 113.5 -92.5t35.5 -153.5q0 -51 -5 -152.5t-5 -152.5q0 -85 20 -131h-317q-14 41 -14 102q0 48 7 144.5t7 144.5q0 59 -15 95.5t-49 54.5t-72 24t-100 6h-276 l-121 -571h-315zM469 801h301q56 0 98.5 4t88.5 18.5t75.5 39t48.5 68t19 103.5q0 45 -14.5 77.5t-36.5 50.5t-57.5 28t-68 13t-77.5 3h-291z" />
<glyph unicode="S" horiz-adv-x="1327" d="M6 451v34h313v-20q0 -250 304 -250q127 0 202.5 55.5t75.5 149.5q0 26 -8 48.5t-17.5 38t-31 30.5t-34.5 23t-43 18.5t-42 14.5t-45 13q-181 52 -242 77q-187 76 -243 208q-27 64 -27 145q0 203 155.5 326t411.5 123q267 0 410 -113t143 -325v-23h-303q-9 124 -68 173.5 t-192 49.5q-116 0 -184 -48.5t-68 -131.5q0 -23 7.5 -43.5t17 -34.5t30 -28t33.5 -22t41.5 -18t40 -13.5t43 -12t37.5 -10.5q183 -50 254 -82q161 -73 209 -206q24 -65 24 -148q0 -100 -35.5 -181.5t-94.5 -135.5t-139.5 -91t-167.5 -53.5t-181 -16.5q-97 0 -181.5 15 t-160 51t-129 90t-84.5 137t-31 187z" />
<glyph unicode="T" horiz-adv-x="1251" d="M113 1194l55 264h1221l-56 -264h-444l-254 -1194h-320l254 1194h-456z" />
<glyph unicode="U" horiz-adv-x="1517" d="M84 410q0 72 31 217l176 831h317l-170 -807q-30 -141 -30 -200q0 -101 72 -159.5t198 -58.5q59 0 107.5 13t82 31.5t61.5 53.5t44.5 65t32 81t23.5 85t20 93q5 26 8 39l164 764h317l-178 -850q-27 -130 -60.5 -223.5t-87 -175t-126 -131t-176.5 -77.5t-240 -28 q-89 0 -169.5 13t-158 45t-133.5 80.5t-90.5 125t-34.5 173.5z" />
<glyph unicode="V" horiz-adv-x="1290" d="M147 1458h322l98 -1093l555 1093h334l-778 -1458h-363z" />
<glyph unicode="W" horiz-adv-x="1933" d="M150 1458h319l25 -1067l462 1067h306l43 -1063l440 1063h328l-684 -1458h-320l-39 1044l-457 -1044h-323z" />
<glyph unicode="X" horiz-adv-x="1366" d="M-143 0l665 768l-344 690h348l211 -473l373 473h379l-604 -704l362 -754h-354l-229 516l-418 -516h-389z" />
<glyph unicode="Y" horiz-adv-x="1327" d="M88 1458h330l217 -618l455 618h380l-716 -905l-117 -553h-313l118 565z" />
<glyph unicode="Z" horiz-adv-x="1327" d="M-90 0l55 266l959 928h-731l57 264h1151l-53 -256l-965 -936h815l-55 -266h-1233z" />
<glyph unicode="[" horiz-adv-x="681" d="M-70 -354l387 1822h531l-47 -223h-264l-293 -1376h264l-47 -223h-531z" />
<glyph unicode="\" horiz-adv-x="796" d="M-166 1493h260l864 -1536h-262z" />
<glyph unicode="]" horiz-adv-x="681" d="M-225 -354l47 223h264l293 1376h-264l47 223h530l-387 -1822h-530z" />
<glyph unicode="^" horiz-adv-x="1228" d="M137 549l361 872h233l361 -872h-244l-240 590l-227 -590h-244z" />
<glyph unicode="_" horiz-adv-x="1024" d="M0 -154h1024v-102h-1024v102z" />
<glyph unicode="`" horiz-adv-x="530" d="M-23 1489h312l178 -295h-199z" />
<glyph unicode="a" horiz-adv-x="1175" d="M-20 258q0 78 28 139t74 100t113.5 66t137 40.5t154.5 19.5l42 3q51 4 75.5 6t61 8.5t53 15.5t35 24.5t25.5 39.5t7 56q0 56 -46 85.5t-134 29.5q-89 0 -139.5 -36t-75.5 -118h-272q19 99 65.5 169t116.5 108t149.5 54.5t178.5 16.5q204 0 320 -69.5t116 -192.5 q0 -66 -27 -192l-84 -381q-24 -109 -24 -174q0 -45 8 -76h-287q-2 18 -2 39q0 36 4 65q-125 -137 -334 -137q-156 0 -247.5 78.5t-91.5 212.5zM272 289q0 -63 43.5 -99t118.5 -36q110 0 179 66t96 181l24 107q-11 -9 -23.5 -15.5t-27.5 -11t-26 -8t-30 -6t-27.5 -3.5 t-30.5 -2.5t-27 -2.5q-36 -4 -57.5 -6.5t-53.5 -9t-51.5 -13.5t-42 -20t-35 -29t-21 -39.5t-8.5 -52.5z" />
<glyph unicode="b" horiz-adv-x="1251" d="M-31 0l312 1458h288l-110 -518q131 143 317 143q178 0 282.5 -117t104.5 -317q0 -128 -36 -247.5t-103.5 -217t-176 -156.5t-241.5 -59q-115 0 -201.5 48t-125.5 149l-33 -166h-277zM350 418q0 -103 57 -164t154 -61q62 0 114.5 28t88 73t60.5 102.5t36.5 116t11.5 114.5 q0 116 -53.5 176.5t-156.5 60.5q-79 0 -141.5 -43.5t-98 -112t-54 -143.5t-18.5 -147z" />
<glyph unicode="c" d="M27 428q0 135 41.5 254t117.5 208.5t191.5 141t255.5 51.5q96 0 177.5 -23.5t144.5 -70.5t99 -123.5t36 -175.5h-281q0 90 -48 136t-138 46q-65 0 -119 -29.5t-88.5 -76t-58.5 -107t-34 -120.5t-10 -119q0 -242 211 -242q169 0 230 207h286q-54 -207 -186.5 -312.5 t-337.5 -105.5q-233 0 -361 112t-128 349z" />
<glyph unicode="d" horiz-adv-x="1251" d="M23 401q0 101 22.5 199t69.5 186t112.5 154.5t157.5 105.5t199 39q231 0 313 -172l117 545h286l-307 -1458h-276l31 135q-60 -86 -137 -125t-189 -39q-192 0 -295.5 114.5t-103.5 315.5zM315 416q0 -106 53.5 -163.5t151.5 -57.5q80 0 143.5 44t99.5 114t54.5 146 t18.5 150q0 97 -57 153t-154 56q-80 0 -142.5 -42t-97.5 -109.5t-52.5 -141.5t-17.5 -149z" />
<glyph unicode="e" horiz-adv-x="1175" d="M20 438q0 282 170 464.5t431 182.5q219 0 346 -123.5t127 -336.5q0 -57 -17 -168h-778q-2 -23 -2 -49q0 -112 59.5 -175t165.5 -63q162 0 226 152h284q-52 -180 -191.5 -268.5t-336.5 -88.5q-232 0 -358 122t-126 351zM328 633h491v31q0 101 -55 159t-152 58 q-103 0 -178 -65.5t-106 -182.5z" />
<glyph unicode="f" horiz-adv-x="720" d="M35 0l182 856h-174l45 201h172l10 43q13 54 23.5 91t27.5 78.5t36 68.5t47 53.5t63 41.5t82.5 24t105.5 9q65 0 201 -12l-43 -209q-50 6 -100 6q-34 0 -58.5 -7.5t-39.5 -18.5t-27 -33.5t-18 -40.5t-15 -53l-10 -41h209l-41 -201h-205l-182 -856h-291z" />
<glyph unicode="g" horiz-adv-x="1251" d="M-41 -55h291q9 -152 192 -152q41 0 74.5 8t57.5 19.5t44.5 33.5t33 42t25 53t19.5 57.5t17 65.5l24 98q-113 -139 -305 -139q-178 0 -286.5 115.5t-108.5 304.5q0 95 22 186t66.5 172t107 142.5t149.5 97.5t187 36q239 0 324 -192l33 164h276l-215 -1004 q-23 -108 -63 -187.5t-90.5 -129t-118 -79.5t-137 -41t-156.5 -11q-216 0 -339.5 85.5t-123.5 235.5v19zM322 465q0 -107 54.5 -168t149.5 -61q126 0 213.5 118.5t87.5 288.5q0 106 -55.5 165.5t-153.5 59.5q-73 0 -131.5 -38t-93 -98.5t-53 -129.5t-18.5 -137z" />
<glyph unicode="h" horiz-adv-x="1251" d="M-6 0l309 1458h287l-119 -547q149 172 360 172h4q134 0 220 -74q88 -75 88 -192q0 -74 -23 -182l-135 -635h-291l127 592q17 80 17 125q0 64 -38.5 99.5t-107.5 35.5q-66 0 -118 -25.5t-87 -70.5t-57 -96.5t-35 -114.5l-114 -545h-287z" />
<glyph unicode="i" horiz-adv-x="530" d="M-29 0l224 1057h290l-223 -1057h-291zM231 1219l50 239h290l-51 -239h-289z" />
<glyph unicode="j" horiz-adv-x="530" d="M-276 -375l49 230q34 -5 67 -5q62 0 85.5 28t39.5 104l230 1075h290l-227 -1073q-18 -84 -37 -140t-48.5 -102.5t-71 -72.5t-100.5 -40t-140 -14q-73 0 -137 10zM231 1219l50 239h290l-51 -239h-289z" />
<glyph unicode="k" d="M-16 0l311 1458h285l-168 -788l424 387h358l-469 -406l266 -651h-319l-170 463l-162 -135l-70 -328h-286z" />
<glyph unicode="l" horiz-adv-x="530" d="M-29 0l310 1458h288l-307 -1458h-291z" />
<glyph unicode="m" horiz-adv-x="1857" d="M-23 0l226 1057h276l-33 -150q158 178 363 178q224 0 268 -184q84 92 167 136t200 44q137 0 223 -72.5t86 -187.5q0 -69 -31 -215l-127 -606h-292l124 594q21 100 21 141q0 52 -36.5 83.5t-96.5 31.5q-52 0 -94 -19t-69 -47.5t-49 -71.5t-33.5 -81.5t-22.5 -87.5 l-115 -543h-293l127 596q22 108 22 145q0 51 -34.5 83t-89.5 32q-60 0 -108.5 -25t-80.5 -68.5t-52.5 -92t-33.5 -105.5l-121 -565h-291z" />
<glyph unicode="n" horiz-adv-x="1251" d="M-16 0l223 1057h276l-32 -152q153 180 368 180q138 0 227 -73.5t89 -188.5q0 -80 -23 -186l-135 -637h-295l133 623q12 52 12 100q0 62 -38.5 95.5t-108.5 33.5q-118 0 -189.5 -81.5t-97.5 -205.5l-121 -565h-288z" />
<glyph unicode="o" horiz-adv-x="1214" d="M18 430q0 189 78.5 339t218.5 234t316 84q230 0 358.5 -120.5t128.5 -337.5q0 -185 -73 -334t-215.5 -238.5t-329.5 -89.5q-226 0 -354 121t-128 342zM305 424q0 -117 57 -180.5t160 -63.5q79 0 140.5 45.5t96.5 116.5t52.5 147t17.5 148q0 112 -55.5 174.5t-155.5 62.5 q-131 0 -222 -130.5t-91 -319.5z" />
<glyph unicode="p" horiz-adv-x="1251" d="M-115 -375l303 1432h277l-29 -131q129 157 332 157q179 0 284 -120t105 -324q0 -99 -21.5 -195t-67 -182t-108.5 -151t-152.5 -103.5t-193.5 -38.5q-116 0 -202.5 48t-126.5 133l-111 -525h-289zM346 418q0 -104 58.5 -166t156.5 -62q130 0 216.5 123t86.5 308 q0 113 -56.5 174t-160.5 61q-76 0 -137 -43.5t-95 -111t-51.5 -141t-17.5 -142.5z" />
<glyph unicode="q" horiz-adv-x="1251" d="M25 399q0 101 23 199.5t70 186.5t113 155t159 106t200 39q239 0 319 -186l35 158h273l-302 -1432h-288l106 494q-68 -77 -145 -112.5t-176 -35.5q-183 0 -285 113t-102 315zM315 416q0 -109 53 -168.5t148 -59.5q80 0 144 42.5t101 110.5t56 143.5t19 150.5q0 97 -55 159 t-150 62q-138 0 -227 -124t-89 -316z" />
<glyph unicode="r" horiz-adv-x="796" d="M-23 0l226 1057h274l-45 -195q73 107 158 165t203 58q40 0 94 -10l-58 -270q-63 16 -114 16q-80 0 -141.5 -28t-101.5 -80t-64.5 -110.5t-40.5 -133.5l-101 -469h-289z" />
<glyph unicode="s" horiz-adv-x="1062" d="M-20 311v31h270v-8q0 -81 54.5 -123.5t156.5 -42.5q85 0 135.5 34.5t50.5 92.5q0 59 -52.5 87t-218.5 77l-9 3t-8 2.5t-9 2.5q-132 40 -194 107t-62 171q0 157 126 248.5t343 91.5q201 0 314.5 -81t113.5 -226q0 -20 -2 -30h-268q0 82 -44.5 116.5t-129.5 34.5 q-76 0 -122 -31t-46 -82q0 -55 46.5 -79.5t206.5 -68.5q21 -6 32 -9q268 -74 268 -293q0 -96 -45 -169.5t-118.5 -115t-157.5 -62t-173 -20.5q-215 0 -336.5 91t-121.5 251z" />
<glyph unicode="t" horiz-adv-x="757" d="M43 858l45 199h178l72 317h289l-68 -317h211l-43 -199h-211l-113 -518q-8 -36 -8 -61q0 -68 99 -68q37 0 116 8l-47 -217q-79 -14 -182 -14q-291 0 -291 207q0 27 5 57.5t15.5 76t12.5 56.5l100 473h-180z" />
<glyph unicode="u" horiz-adv-x="1251" d="M39 248q0 57 22 170l136 639h292l-120 -572q-25 -119 -25 -153q0 -131 150 -131q60 0 108 25t80 69t52.5 93t33.5 106l121 563h289l-224 -1057h-278l35 154q-130 -185 -355 -185q-147 0 -232 75t-85 204z" />
<glyph unicode="v" horiz-adv-x="1062" d="M57 1057h299l68 -752l377 752h305l-578 -1057h-331z" />
<glyph unicode="w" horiz-adv-x="1669" d="M61 1057h297l43 -744l328 744h295l35 -738l342 738h309l-555 -1057h-305l-37 743l-330 -743h-305z" />
<glyph unicode="x" horiz-adv-x="1062" d="M-156 0l488 563l-240 494h307l125 -297l232 297h327l-440 -510l268 -547h-305l-151 346l-281 -346h-330z" />
<glyph unicode="y" horiz-adv-x="1062" d="M-123 -371l49 234q57 -13 117 -13q30 0 53 4.5t42.5 17t31.5 22t27 33.5t21.5 36.5t23.5 44.5l-193 1049h297l100 -738l359 738h307l-577 -1061q-85 -156 -122 -207q-85 -116 -203 -152q-71 -22 -165 -22q-89 0 -168 14z" />
<glyph unicode="z" horiz-adv-x="1024" d="M-106 0l45 215l657 623h-502l47 219h883l-45 -215l-660 -623h578l-45 -219h-958z" />
<glyph unicode="{" horiz-adv-x="681" d="M-14 494l24 131q125 13 179.5 71t78.5 187l35 186q13 72 36 129t51.5 98t68.5 71t80.5 48t94.5 30t103.5 17t114.5 8l-25 -131q-64 -6 -107.5 -24.5t-73 -54.5t-46.5 -83t-31 -120l-22 -117q-33 -176 -119.5 -267t-259.5 -114q246 -21 246 -250q0 -59 -27 -193.5 t-27 -183.5q0 -71 36 -107.5t128 -45.5l-24 -129q-213 9 -306.5 77.5t-93.5 223.5q0 73 28 215t28 186q0 65 -37.5 98.5t-132.5 43.5z" />
<glyph unicode="|" horiz-adv-x="454" d="M104 -438v2048h248v-2048h-248z" />
<glyph unicode="}" horiz-adv-x="681" d="M-199 -350l25 131q64 6 107.5 24.5t73 54.5t46.5 83t31 120l22 117q33 176 120 267t259 114q-131 11 -187 75.5t-56 174.5q0 59 26.5 193.5t26.5 183.5q0 70 -36.5 107t-127.5 46l25 129q213 -9 305 -77.5t92 -223.5q0 -73 -27.5 -215t-27.5 -186q0 -65 38 -98t134 -43 l-27 -131q-123 -13 -176.5 -70.5t-79.5 -187.5l-37 -187q-14 -72 -37.5 -129t-52 -98t-68.5 -71t-80 -48t-94 -30t-103 -17t-114 -8z" />
<glyph unicode="~" horiz-adv-x="1228" d="M0 348q5 54 17 103.5t36 98.5t57.5 84t84 57t112.5 22q33 0 72.5 -8t65 -15.5t74 -24t65.5 -22.5q7 -2 44 -15t56.5 -19.5t52 -15.5t58 -13.5t45.5 -4.5q99 0 123 138h159q-39 -363 -313 -363q-44 0 -106.5 14.5t-105.5 28.5t-121.5 42.5t-98.5 35.5q-68 21 -92 21 q-53 0 -84.5 -43.5t-40.5 -100.5h-160z" />
<glyph unicode="&#xa3;" d="M-23 170q55 36 96 70.5t79 79.5t58.5 100t20.5 117q0 36 -8 96h-194l37 168h131q-45 116 -45 217q0 198 151.5 328.5t380.5 130.5q219 0 349 -118.5t130 -316.5q0 -28 -2 -53h-280q2 18 2 41q0 95 -54.5 150t-148.5 55q-100 0 -162.5 -65t-62.5 -169q0 -96 39 -200h288 l-34 -168h-236q0 -14 1 -32.5t1 -27.5q0 -49 -10 -91t-23 -70.5t-43 -63.5t-51.5 -55.5t-67.5 -61.5q101 37 173 37q56 0 129 -18q80 -21 104.5 -26t54.5 -5q44 0 82 14t105 54l10 6l82 -217q-155 -103 -309 -103q-25 0 -50.5 2.5t-54.5 8t-47 9.5t-53 13t-49 12 q-126 33 -201 33q-57 0 -104 -16t-125 -62z" />
<glyph unicode="&#xa7;" horiz-adv-x="1214" d="M18 -16q0 23 2 39h261q0 -33 6 -70q12 -57 57.5 -88t114.5 -31q75 0 121.5 38t46.5 99t-58.5 118t-218.5 173q-127 93 -176 143q-111 113 -111 244q0 126 79 212.5t208 103.5q-55 78 -55 168q0 68 25.5 126.5t68.5 98.5t100 68t119 41.5t127 13.5q186 0 298 -90.5 t112 -241.5q0 -33 -2 -53h-258q2 8 2 20q0 71 -42.5 111.5t-115.5 40.5q-68 0 -112 -37.5t-44 -95.5q0 -27 14 -55t31 -48.5t50 -48t51 -40t56 -37.5t44 -29q175 -119 239 -202.5t64 -187.5q0 -123 -78 -212.5t-206 -112.5q61 -76 61 -180q0 -160 -126.5 -263.5 t-321.5 -103.5t-314 101.5t-119 267.5zM317 678q0 -69 89 -143l208 -175q40 -33 65 -45t54 -12q54 0 93.5 41t39.5 98q0 75 -63 127l-250 209q-49 39 -94 39q-57 0 -99.5 -41t-42.5 -98z" />
<glyph unicode="&#xa9;" horiz-adv-x="1638" d="M39 731q0 208 102.5 384t279 279t384.5 103q156 0 298.5 -61t245 -163.5t163.5 -244.5t61 -297q0 -208 -103 -384.5t-279 -279t-384 -102.5q-209 0 -385.5 102.5t-279.5 279t-103 384.5zM172 731q0 -129 50 -246t135 -202t202 -135t246 -50t246.5 50t202.5 135t135.5 202 t50.5 246t-50.5 246t-135.5 202t-202.5 135t-246.5 50t-246 -50t-202 -135t-135 -202t-50 -246zM397 731q0 201 114.5 329t295.5 128q158 0 265 -93t118 -239h-189q-12 76 -60 119t-122 43q-89 0 -140.5 -75.5t-51.5 -207.5q0 -134 53.5 -209t150.5 -75q76 0 116.5 39 t56.5 116h188q-17 -146 -118.5 -235.5t-250.5 -89.5q-184 0 -305 128t-121 322z" />
<glyph unicode="&#xab;" horiz-adv-x="948" d="M43 428l59 264l367 234l-51 -248l-221 -143l155 -170l-45 -222zM444 428l60 262l366 236l-51 -248l-221 -143l156 -170l-47 -222z" />
<glyph unicode="&#xac;" horiz-adv-x="1228" d="M27 631v229h1065v-657h-232v428h-833z" />
<glyph unicode="&#xad;" horiz-adv-x="833" d="M49 432l55 252h617l-55 -252h-617z" />
<glyph unicode="&#xae;" horiz-adv-x="819" d="M102 1112q0 158 111.5 269.5t269.5 111.5t270.5 -111.5t112.5 -269.5t-112.5 -270.5t-270.5 -112.5t-269.5 112.5t-111.5 270.5zM168 1112q0 -130 92 -222.5t223 -92.5t223.5 92.5t92.5 222.5t-92.5 222.5t-223.5 92.5t-223 -92.5t-92 -222.5zM324 901v424h151 q189 0 189 -125q0 -74 -78 -100q41 -17 55.5 -45t15.5 -97q0 -30 11 -57h-99q-7 17 -10 60q-2 62 -19 80t-75 18h-41v-158h-100zM424 1137h47q50 0 71 12.5t21 42.5q0 29 -21.5 42t-70.5 13h-47v-110z" />
<glyph unicode="&#xb0;" horiz-adv-x="819" d="M152 1108q0 138 97.5 236t235.5 98t236 -98t98 -236t-98 -236t-236 -98t-235.5 98t-97.5 236zM338 1108q0 -62 43 -104.5t104 -42.5q62 0 105 43t43 104q0 62 -43.5 105.5t-104.5 43.5t-104 -43.5t-43 -105.5z" />
<glyph unicode="&#xb1;" horiz-adv-x="1228" d="M18 -35v228h1065v-228h-1065zM18 553v227h412v318h242v-318h411v-227h-411v-311h-242v311h-412z" />
<glyph unicode="&#xb5;" horiz-adv-x="1251" d="M-104 -430l297 1487h294l-98 -465q-45 -213 -45 -262q0 -54 35 -90.5t115 -36.5q58 0 105 24.5t76.5 59.5t53.5 92t36 102t26 109l98 467h289l-224 -1057h-272l29 141q-55 -75 -122 -119.5t-122 -44.5q-57 0 -107.5 18.5t-76.5 55.5l-97 -481h-290z" />
<glyph unicode="&#xb6;" horiz-adv-x="1228" d="M55 850q0 124 36 225t100 171.5t152.5 118.5t191.5 70.5t219 22.5h563l-35 -166h-111l-354 -1667h-201l355 1667h-223l-355 -1667h-203l189 881q-324 45 -324 344z" />
<glyph unicode="&#xb7;" horiz-adv-x="569" d="M66 434l69 320h332l-70 -320h-331z" />
<glyph unicode="&#xbb;" horiz-adv-x="948" d="M12 145l51 246l222 146l-156 170l47 219l262 -283l-57 -264zM414 145l51 248l221 144l-156 170l45 221l265 -285l-60 -264z" />
<glyph unicode="&#xf7;" horiz-adv-x="1228" d="M25 426v256h1065v-256h-1065zM430 16v275h254v-275h-254zM430 817v275h254v-275h-254z" />
<glyph unicode="&#x192;" d="M-63 -340l61 219q29 -4 61 -4q20 0 37 3.5t30 8t25 15l20 17.5t16.5 23.5t13 24.5t11 28.5t8.5 28t8 31t8 29.5l165 604h-194l53 191h193l63 227q26 92 55.5 153.5t76.5 113t118 76t168 24.5q30 0 182 -15l-57 -215q-43 8 -86 8q-35 0 -61 -10.5t-42 -24.5t-30 -42 t-20.5 -48.5t-16.5 -58.5l-51 -188h209l-52 -191h-209l-178 -643q-23 -83 -46 -139.5t-58.5 -108.5t-82.5 -82t-115.5 -47.5t-158.5 -17.5q-60 0 -124 10z" />
<glyph unicode="&#x401;" horiz-adv-x="1366" d="M2 0l309 1458h1108l-53 -260h-793l-67 -321h735l-53 -250h-735l-78 -361h809l-58 -266h-1124zM526 1563l52 241h270l-51 -241h-271zM926 1563l53 241h268l-49 -241h-272z" />
<glyph unicode="&#x402;" horiz-adv-x="1593" d="M115 1194l55 264h1178l-56 -264h-479l-96 -446q146 159 358 159q184 0 292 -120t108 -341q0 -106 -26.5 -211.5t-81 -201t-130 -168.5t-182.5 -116.5t-230 -43.5q-104 0 -174 25l54 250q13 -8 49.5 -12.5t58.5 -4.5q71 0 129.5 31.5t95.5 81.5t62.5 115.5t36 129.5 t10.5 128q0 102 -51.5 156t-145.5 54q-119 0 -204 -86t-117 -239l-70 -334h-321l254 1194h-377z" />
<glyph unicode="&#x403;" horiz-adv-x="1175" d="M-4 0l309 1458h1016l-55 -264h-697l-254 -1194h-319zM614 1542l209 297h330l-334 -297h-205z" />
<glyph unicode="&#x404;" horiz-adv-x="1517" d="M90 608q0 143 34 274.5t102 242t162.5 192.5t222.5 128t276 46q259 0 416.5 -136t162.5 -362h-313q-14 122 -83.5 180t-203.5 58q-101 0 -184.5 -48.5t-136.5 -122.5t-88 -171h526l-53 -252h-520v-27q0 -183 84.5 -285t236.5 -102q132 0 223.5 74.5t128.5 212.5h322 q-51 -254 -238 -399.5t-456 -145.5q-292 0 -456.5 169.5t-164.5 473.5z" />
<glyph unicode="&#x405;" horiz-adv-x="1327" d="M6 451v34h313v-20q0 -250 304 -250q127 0 202.5 55.5t75.5 149.5q0 26 -8 48.5t-17.5 38t-31 30.5t-34.5 23t-43 18.5t-42 14.5t-45 13q-181 52 -242 77q-187 76 -243 208q-27 64 -27 145q0 203 155.5 326t411.5 123q267 0 410 -113t143 -325v-23h-303q-9 124 -68 173.5 t-192 49.5q-116 0 -184 -48.5t-68 -131.5q0 -23 7.5 -43.5t17 -34.5t30 -28t33.5 -22t41.5 -18t40 -13.5t43 -12t37.5 -10.5q183 -50 254 -82q161 -73 209 -206q24 -65 24 -148q0 -100 -35.5 -181.5t-94.5 -135.5t-139.5 -91t-167.5 -53.5t-181 -16.5q-97 0 -181.5 15 t-160 51t-129 90t-84.5 137t-31 187z" />
<glyph unicode="&#x406;" horiz-adv-x="606" d="M-8 0l309 1458h320l-310 -1458h-319z" />
<glyph unicode="&#x407;" horiz-adv-x="606" d="M-8 0l309 1458h320l-310 -1458h-319zM150 1563l51 241h270l-51 -241h-270zM549 1563l53 241h270l-51 -241h-272z" />
<glyph unicode="&#x408;" d="M-25 328q0 70 27 217h295q-27 -137 -27 -176q0 -72 41 -111t115 -39q45 0 79 14t54.5 37t35 56.5t23.5 67t18 75.5q2 11 3 16l205 973h319l-196 -930q-15 -71 -28 -121.5t-32 -108t-41 -97t-52 -80.5t-67.5 -67t-86 -47.5t-109.5 -31.5t-135 -10q-207 0 -324 96t-117 267 z" />
<glyph unicode="&#x409;" horiz-adv-x="2158" d="M-117 0l51 244q57 -17 99 -17q36 0 65 12.5t61 46.5t61.5 105.5t55.5 179.5l213 887h984l-119 -553h215q157 0 248 -26q115 -34 183 -136t68 -239q0 -130 -60 -244.5t-161 -177.5q-79 -50 -180 -66t-227 -16h-596l252 1194h-351l-151 -627q-42 -172 -95.5 -288.5 t-122 -183.5t-146.5 -95.5t-179 -28.5q-70 0 -168 29zM1219 256h282q117 0 186.5 54t69.5 169q0 46 -15 79t-37 51.5t-58.5 28.5t-69 12.5t-78.5 2.5h-199z" />
<glyph unicode="&#x40a;" horiz-adv-x="2158" d="M2 0l309 1458h320l-119 -553h522l119 553h320l-119 -553h215q157 0 248 -26q115 -34 183 -136t68 -239q0 -131 -59 -245t-160 -177q-80 -50 -181 -66t-228 -16h-594l135 653h-522l-137 -653h-320zM1219 256h282q117 0 187.5 54t70.5 169q0 46 -15 79t-37.5 51.5 t-59.5 28.5t-69.5 12.5t-78.5 2.5h-199z" />
<glyph unicode="&#x40b;" horiz-adv-x="1593" d="M113 1194l57 264h1178l-58 -264h-479l-68 -317q217 41 304 41q205 0 305 -76.5t100 -249.5q0 -84 -20 -184l-89 -408h-319l88 412q12 55 12 96q0 77 -45 110t-143 33q-31 0 -70.5 -4.5t-66.5 -9t-64.5 -11.5t-44.5 -8l-133 -618h-321l253 1194h-376z" />
<glyph unicode="&#x40c;" horiz-adv-x="1478" d="M-6 0l309 1458h318l-125 -598l669 598h422l-700 -600l446 -858h-360l-334 655l-229 -194l-99 -461h-317zM737 1542l209 297h330l-334 -297h-205z" />
<glyph unicode="&#x40e;" horiz-adv-x="1366" d="M63 6l58 266q61 -28 147 -28q80 0 131.5 47.5t51.5 124.5q0 17 -3.5 37t-7.5 34t-10.5 36.5t-9.5 33.5l-266 901h344l192 -774l443 774h368l-702 -1110q-134 -214 -250.5 -293.5t-294.5 -79.5q-42 0 -100.5 10.5t-90.5 20.5zM522 1792q0 19 4 59h115q4 -68 58.5 -101.5 t142.5 -33.5q91 0 157 33t80 102h115q-41 -295 -363 -295q-142 0 -225.5 58t-83.5 178z" />
<glyph unicode="&#x40f;" horiz-adv-x="1517" d="M-8 0l309 1458h320l-252 -1192h594l251 1192h320l-309 -1458h-461l-80 -375h-309l80 375h-463z" />
<glyph unicode="&#x410;" horiz-adv-x="1402" d="M-158 0l865 1458h329l244 -1458h-319l-50 326h-542l-187 -326h-340zM494 561h391l-80 553z" />
<glyph unicode="&#x411;" horiz-adv-x="1478" d="M-2 0l309 1458h1100l-53 -260h-791l-55 -264h330q150 0 256 -29q118 -35 189 -140t71 -245q0 -135 -61.5 -252.5t-166.5 -183.5q-81 -51 -185 -67.5t-236 -16.5h-707zM365 258h407q124 0 198 57.5t74 180.5q0 49 -16 84t-39 54t-62.5 30t-73.5 13.5t-83 2.5h-317z" />
<glyph unicode="&#x412;" horiz-adv-x="1478" d="M-6 0l309 1458h553q48 0 81.5 -1t81.5 -4.5t82 -10t75.5 -18.5t70.5 -29t58 -42.5t46.5 -58t28.5 -77t11 -97.5q0 -133 -74 -227t-199 -119q101 -34 155 -110.5t54 -186.5q0 -155 -91.5 -282t-238.5 -166q-63 -17 -129.5 -23t-197.5 -6h-676zM356 250h303q41 0 70 1t69 6 t67.5 14t58 25.5t48.5 40t30 58.5t12 80q0 36 -10 64.5t-23.5 46.5t-39.5 31t-45.5 19t-55.5 9t-54.5 3.5t-56.5 0.5h-4.5h-3.5h-4h-4h-271zM487 864h293q49 0 86 3.5t77.5 16t67 34t43.5 59.5t17 90q0 30 -9 53t-21 38t-34.5 25.5t-39.5 15.5t-47 7.5t-46 3t-47 0.5h-8 h-258z" />
<glyph unicode="&#x413;" horiz-adv-x="1175" d="M-4 0l309 1458h1016l-55 -264h-697l-254 -1194h-319z" />
<glyph unicode="&#x414;" horiz-adv-x="1593" d="M-193 -375l136 641h116q157 162 262 386.5t154 463.5l72 342h1026l-254 -1192h168l-135 -641h-310l80 375h-925l-80 -375h-310zM432 266h567l199 932h-389l-29 -133q-54 -249 -146.5 -457.5t-201.5 -341.5z" />
<glyph unicode="&#x415;" horiz-adv-x="1366" d="M2 0l309 1458h1108l-53 -260h-793l-67 -321h735l-53 -250h-735l-78 -361h809l-58 -266h-1124z" />
<glyph unicode="&#x416;" horiz-adv-x="2158" d="M-166 0l760 881l-391 577h372l386 -602l126 602h310l-123 -581l610 581h406l-662 -606l395 -852h-372l-267 629l-202 -187l-95 -442h-309l99 461l-115 172l-524 -633h-404z" />
<glyph unicode="&#x417;" horiz-adv-x="1327" d="M0 451v34h313v-20q0 -250 303 -250q119 0 205 75.5t86 192.5q0 168 -248 168h-118l47 217q25 -2 78 -2q55 0 104.5 12t93 36.5t69 69t25.5 103.5q0 74 -56.5 114t-160.5 40q-251 0 -299 -217h-303q19 125 78 217.5t147.5 145.5t191 77.5t222.5 24.5q228 0 357 -104.5 t129 -270.5q0 -114 -77.5 -203t-187.5 -118q104 -17 168 -98t64 -197q0 -124 -50.5 -224.5t-138.5 -166t-205 -101t-251 -35.5q-97 0 -181.5 15t-160 51t-129 90t-84.5 137t-31 187z" />
<glyph unicode="&#x418;" horiz-adv-x="1517" d="M-8 0l309 1458h320l-213 -1009h6l741 1009h379l-309 -1458h-320l215 1012h-6l-741 -1012h-381z" />
<glyph unicode="&#x419;" horiz-adv-x="1517" d="M-8 0l309 1458h320l-213 -1009h6l741 1009h379l-309 -1458h-320l215 1012h-6l-741 -1012h-381zM616 1792q0 9 5 59h114q4 -68 58.5 -101.5t142.5 -33.5q91 0 157.5 33t80.5 102h114q-41 -295 -362 -295q-142 0 -226 58t-84 178z" />
<glyph unicode="&#x41a;" horiz-adv-x="1478" d="M-6 0l309 1458h318l-125 -598l669 598h422l-700 -600l446 -858h-360l-334 655l-229 -194l-99 -461h-317z" />
<glyph unicode="&#x41b;" horiz-adv-x="1478" d="M-117 0l51 242q68 -15 103 -15q36 0 64.5 12.5t59.5 47t60 105.5t55 179l213 887h1012l-311 -1458h-320l254 1194h-379l-151 -627q-42 -172 -95.5 -288.5t-122 -183.5t-146.5 -95.5t-179 -28.5q-26 0 -55.5 5t-69.5 14t-43 10z" />
<glyph unicode="&#x41c;" horiz-adv-x="1857" d="M-10 0l317 1458h445l108 -1055l565 1055h455l-315 -1458h-301l266 1161l-623 -1161h-245l-144 1163l-221 -1163h-307z" />
<glyph unicode="&#x41d;" horiz-adv-x="1517" d="M-8 0l309 1458h320l-119 -559h594l118 559h320l-309 -1458h-320l133 629h-594l-133 -629h-319z" />
<glyph unicode="&#x41e;" horiz-adv-x="1593" d="M78 610q0 249 102 450t283 315t405 114q308 0 482 -165t174 -458q0 -185 -55 -348.5t-156.5 -287t-257 -195.5t-344.5 -72q-296 0 -464.5 172.5t-168.5 474.5zM395 606q0 -181 89.5 -283t248.5 -102q93 0 172 40.5t132 106t91 150t55 171.5t17 171q0 177 -88.5 273 t-251.5 96q-77 0 -145 -27t-117.5 -74t-89 -108.5t-64 -131.5t-37 -141.5t-12.5 -140.5z" />
<glyph unicode="&#x41f;" horiz-adv-x="1517" d="M-8 0l309 1458h1233l-309 -1458h-320l254 1194h-594l-254 -1194h-319z" />
<glyph unicode="&#x420;" horiz-adv-x="1366" d="M-29 0l310 1458h567q153 0 256 -28q118 -35 189 -140.5t71 -245.5q0 -135 -61.5 -252.5t-165.5 -183.5q-81 -51 -185.5 -67.5t-236.5 -16.5h-314l-112 -524h-318zM455 776h325q124 0 198.5 58t74.5 180q0 49 -16 84t-39.5 54t-62.5 30t-73 13.5t-84 2.5h-235z" />
<glyph unicode="&#x421;" horiz-adv-x="1517" d="M90 608q0 143 34 274.5t102 242t162.5 192.5t222.5 128t276 46q262 0 420.5 -139t158.5 -369v-31h-309q-6 143 -76 211t-215 68q-91 0 -168 -38.5t-129 -102t-88.5 -145.5t-53.5 -167t-17 -168q0 -183 84.5 -285t236.5 -102q136 0 228.5 77.5t127.5 221.5h320 q-47 -259 -235.5 -408t-460.5 -149q-292 0 -456.5 169.5t-164.5 473.5z" />
<glyph unicode="&#x422;" horiz-adv-x="1251" d="M113 1194l55 264h1221l-56 -264h-444l-254 -1194h-320l254 1194h-456z" />
<glyph unicode="&#x423;" horiz-adv-x="1366" d="M63 6l58 266q61 -28 147 -28q80 0 131.5 47.5t51.5 124.5q0 17 -3.5 37t-7.5 34t-10.5 36.5t-9.5 33.5l-266 901h344l192 -774l443 774h368l-702 -1110q-134 -214 -250.5 -293.5t-294.5 -79.5q-42 0 -100.5 10.5t-90.5 20.5z" />
<glyph unicode="&#x424;" horiz-adv-x="1736" d="M66 635q0 131 40.5 242t112 190.5t169 136t211.5 84t239 27.5l28 143h316l-29 -143q245 -17 384.5 -141t139.5 -334q0 -131 -40.5 -242t-112 -190.5t-168.5 -136t-211 -84t-238 -27.5l-35 -160h-315l35 160q-246 17 -386 141t-140 334zM375 662q0 -120 68.5 -190.5 t197.5 -80.5l145 684q-183 0 -297 -110.5t-114 -302.5zM958 399q182 0 296 111t114 303q0 120 -68 189.5t-196 80.5z" />
<glyph unicode="&#x425;" horiz-adv-x="1366" d="M-143 0l665 768l-344 690h348l211 -473l373 473h379l-604 -704l362 -754h-354l-229 516l-418 -516h-389z" />
<glyph unicode="&#x426;" horiz-adv-x="1550" d="M-8 0l309 1458h320l-254 -1192h596l254 1192h319l-254 -1192h162l-135 -641h-310l80 375h-1087z" />
<glyph unicode="&#x427;" horiz-adv-x="1366" d="M128 874q-7 85 19 197l82 387h320l-84 -391q-29 -131 11.5 -185.5t164.5 -54.5q95 0 297 33l127 598h319l-311 -1458h-319l129 602q-217 -41 -322 -41q-101 0 -177 17t-133.5 54.5t-86.5 97t-36 144.5z" />
<glyph unicode="&#x428;" horiz-adv-x="2201" d="M-8 0l309 1458h309l-252 -1192h496l252 1192h309l-252 -1192h496l252 1192h309l-309 -1458h-1919z" />
<glyph unicode="&#x429;" horiz-adv-x="2236" d="M-8 0l309 1458h309l-252 -1192h496l252 1192h309l-252 -1192h496l252 1192h309l-252 -1192h162l-137 -641h-310l80 375h-1771z" />
<glyph unicode="&#x42a;" horiz-adv-x="1650" d="M113 1194l55 264h737l-110 -524h247q150 0 256 -29q118 -35 189.5 -140t71.5 -245q0 -135 -61.5 -252.5t-166.5 -183.5q-81 -51 -185.5 -67.5t-236.5 -16.5h-630l253 1194h-419zM651 258h326q124 0 198 57.5t74 180.5q0 49 -16 84t-39 54t-62.5 30t-73.5 13.5t-83 2.5 h-236z" />
<glyph unicode="&#x42b;" horiz-adv-x="1857" d="M-6 0l309 1458h318l-111 -524h176q150 0 256 -29q118 -35 189 -140t71 -245q0 -135 -61.5 -252.5t-165.5 -183.5q-81 -51 -185.5 -67.5t-236.5 -16.5h-559zM367 258h254q124 0 198 57.5t74 180.5q0 49 -16 84t-39.5 54t-62.5 30t-73 13.5t-84 2.5h-163zM1247 0l309 1458 h320l-309 -1458h-320z" />
<glyph unicode="&#x42c;" horiz-adv-x="1366" d="M-6 0l309 1458h318l-111 -524h248q150 0 256 -29q118 -35 189 -140t71 -245q0 -135 -61.5 -252.5t-165.5 -183.5q-81 -51 -185.5 -67.5t-236.5 -16.5h-631zM367 258h325q124 0 198.5 58t74.5 180q0 49 -16 84t-39.5 54t-62.5 30t-73 13.5t-84 2.5h-235z" />
<glyph unicode="&#x42d;" horiz-adv-x="1517" d="M66 473v31h309q6 -143 76 -211t215 -68q84 0 156.5 33t124.5 90.5t88.5 127t58.5 151.5h-537l53 250h512q-8 169 -91.5 262.5t-229.5 93.5q-117 0 -202.5 -57t-129.5 -166h-326q64 226 245 353.5t433 127.5q292 0 456.5 -169.5t164.5 -473.5q0 -143 -34 -274.5t-102 -242 t-162.5 -192.5t-222.5 -128t-276 -46q-262 0 -420.5 139t-158.5 369z" />
<glyph unicode="&#x42e;" horiz-adv-x="2084" d="M-8 0l309 1458h320l-119 -559h213q38 127 103.5 233t156 186.5t211 125.5t258.5 45q275 0 422 -156.5t147 -425.5q0 -149 -30.5 -286t-94.5 -257.5t-156 -209t-224 -140t-289 -51.5q-258 0 -404.5 161t-146.5 441v64h-224l-133 -629h-319zM983 567q0 -165 71 -255.5 t201 -90.5q90 0 166 46t125 118t83.5 164t49.5 180.5t15 169.5q0 159 -70.5 244.5t-204.5 85.5q-88 0 -162 -43t-123.5 -112.5t-84.5 -158t-50.5 -177t-15.5 -171.5z" />
<glyph unicode="&#x42f;" horiz-adv-x="1478" d="M-158 0l594 600q-250 88 -250 358q0 130 58.5 243.5t158.5 176.5q78 50 177.5 65t228.5 15h688l-311 -1458h-318l121 561h-207l-530 -561h-410zM506 979q0 -48 15 -81.5t37.5 -51.5t60 -28t69.5 -12.5t80 -2.5h272l84 403h-358q-118 0 -189 -55t-71 -172z" />
<glyph unicode="&#x430;" horiz-adv-x="1175" d="M-20 258q0 78 28 139t74 100t113.5 66t137 40.5t154.5 19.5l42 3q51 4 75.5 6t61 8.5t53 15.5t35 24.5t25.5 39.5t7 56q0 56 -46 85.5t-134 29.5q-89 0 -139.5 -36t-75.5 -118h-272q19 99 65.5 169t116.5 108t149.5 54.5t178.5 16.5q204 0 320 -69.5t116 -192.5 q0 -66 -27 -192l-84 -381q-24 -109 -24 -174q0 -45 8 -76h-287q-2 18 -2 39q0 36 4 65q-125 -137 -334 -137q-156 0 -247.5 78.5t-91.5 212.5zM272 289q0 -63 43.5 -99t118.5 -36q110 0 179 66t96 181l24 107q-11 -9 -23.5 -15.5t-27.5 -11t-26 -8t-30 -6t-27.5 -3.5 t-30.5 -2.5t-27 -2.5q-36 -4 -57.5 -6.5t-53.5 -9t-51.5 -13.5t-42 -20t-35 -29t-21 -39.5t-8.5 -52.5z" />
<glyph unicode="&#x431;" horiz-adv-x="1214" d="M53 436q0 101 12.5 200t38.5 202t71 194.5t106 169.5t148.5 135t193.5 84q45 12 124.5 21t128 21.5t64.5 39.5h285q-14 -64 -42.5 -114t-70 -84t-86.5 -57.5t-106 -38.5t-114 -23t-124 -15q-97 -9 -168.5 -41.5t-117.5 -87.5t-73.5 -116.5t-48.5 -145.5h7 q142 277 413 277q197 0 313.5 -117.5t116.5 -325.5q0 -135 -42 -253t-118.5 -205.5t-191.5 -138t-252 -50.5q-218 0 -342.5 126t-124.5 343zM340 410q0 -111 53.5 -170.5t149.5 -59.5q74 0 132.5 43t92 111t51 142.5t17.5 146.5q0 107 -52 165t-145 58q-123 0 -211 -125.5 t-88 -310.5z" />
<glyph unicode="&#x432;" horiz-adv-x="1175" d="M-10 0l223 1057h498q46 0 76.5 -1t75 -6t74 -14.5t62.5 -28t53 -44t33 -64.5t13 -88q0 -97 -53 -164t-144 -86q74 -25 113 -80.5t39 -134.5q0 -112 -67 -204.5t-173 -121.5q-76 -20 -238 -20h-585zM311 197h217q38 0 64.5 2t61 10t55.5 23t36 43.5t15 68.5 q0 24 -6.5 42.5t-16 30.5t-26.5 20.5t-30 12.5t-36.5 6.5t-36.5 2.5h-37h-8h-196zM406 643h221q31 0 55 2.5t50 10t42.5 21t27.5 38t11 57.5q0 20 -6 35t-13.5 24.5t-23.5 16t-26 10t-31.5 5t-30.5 1.5h-31h-198z" />
<glyph unicode="&#x433;" horiz-adv-x="927" d="M-10 0l225 1057h786l-45 -219h-499l-178 -838h-289z" />
<glyph unicode="&#x434;" horiz-adv-x="1286" d="M-190 -311l112 530h127q70 88 154 288t119 365l38 185h838l-178 -838h137l-113 -530h-272l66 311h-691l-65 -311h-272zM342 219h393l133 623h-278l-6 -27q-38 -166 -109 -339.5t-133 -256.5z" />
<glyph unicode="&#x435;" horiz-adv-x="1175" d="M20 438q0 282 170 464.5t431 182.5q219 0 346 -123.5t127 -336.5q0 -57 -17 -168h-778q-2 -23 -2 -49q0 -112 59.5 -175t165.5 -63q162 0 226 152h284q-52 -180 -191.5 -268.5t-336.5 -88.5q-232 0 -358 122t-126 351zM328 633h491v31q0 101 -55 159t-152 58 q-103 0 -178 -65.5t-106 -182.5z" />
<glyph unicode="&#x436;" horiz-adv-x="1632" d="M-174 0l551 664l-258 393h311l242 -420l90 420h274l-84 -389l396 389h360l-463 -418l258 -639h-313l-156 449l-157 -144l-66 -305h-274l67 317l-84 127l-336 -444h-358z" />
<glyph unicode="&#x437;" horiz-adv-x="1062" d="M-29 311v35h271v-12q0 -81 54.5 -123.5t156.5 -42.5q89 0 146.5 46t57.5 132q0 113 -184 113h-92l41 180q16 -2 55 -2q58 0 103.5 12t79.5 47.5t34 91.5q0 103 -149 103q-181 0 -215 -148h-271q55 342 533 342q198 0 291.5 -74.5t93.5 -195.5q0 -85 -58 -153t-139 -91 q76 -11 124 -70t48 -145q0 -184 -135.5 -285.5t-365.5 -101.5q-221 0 -350.5 91.5t-129.5 250.5z" />
<glyph unicode="&#x438;" horiz-adv-x="1251" d="M-12 0l225 1057h279l-152 -715l508 715h350l-225 -1057h-279l152 715l-508 -715h-350z" />
<glyph unicode="&#x439;" horiz-adv-x="1251" d="M-12 0l225 1057h279l-152 -715l508 715h350l-225 -1057h-279l152 715l-508 -715h-350zM416 1399q0 19 4 59h115q4 -68 58 -101.5t142 -33.5q91 0 157.5 33t80.5 102h114q-41 -295 -362 -295q-142 0 -225.5 58t-83.5 178z" />
<glyph unicode="&#x43a;" d="M-8 0l225 1057h285l-84 -391l424 391h368l-485 -416l281 -641h-322l-180 453l-160 -138l-68 -315h-284z" />
<glyph unicode="&#x43b;" horiz-adv-x="1251" d="M-98 -8l49 227q30 -10 82 -10q65 0 105 55t77 211l139 582h844l-225 -1057h-289l180 838h-274l-94 -377q-15 -62 -28.5 -107t-35 -99.5t-44.5 -92.5t-56.5 -76.5t-73 -62t-93 -38t-116.5 -14.5q-29 0 -78 7.5t-69 13.5z" />
<glyph unicode="&#x43c;" horiz-adv-x="1517" d="M-14 0l225 1057h416l35 -768h8l362 768h428l-225 -1057h-274l169 803h-6l-376 -803h-275l-37 803h-6l-170 -803h-274z" />
<glyph unicode="&#x43d;" horiz-adv-x="1251" d="M-12 0l225 1057h289l-82 -383h407l82 383h289l-225 -1057h-289l94 444h-407l-95 -444h-288z" />
<glyph unicode="&#x43e;" horiz-adv-x="1214" d="M18 430q0 189 78.5 339t218.5 234t316 84q230 0 358.5 -120.5t128.5 -337.5q0 -185 -73 -334t-215.5 -238.5t-329.5 -89.5q-226 0 -354 121t-128 342zM305 424q0 -117 57 -180.5t160 -63.5q79 0 140.5 45.5t96.5 116.5t52.5 147t17.5 148q0 112 -55.5 174.5t-155.5 62.5 q-131 0 -222 -130.5t-91 -319.5z" />
<glyph unicode="&#x43f;" horiz-adv-x="1251" d="M-12 0l225 1057h985l-225 -1057h-289l180 838h-407l-181 -838h-288z" />
<glyph unicode="&#x440;" horiz-adv-x="1251" d="M-115 -375l303 1432h277l-29 -131q129 157 332 157q179 0 284 -120t105 -324q0 -99 -21.5 -195t-67 -182t-108.5 -151t-152.5 -103.5t-193.5 -38.5q-116 0 -202.5 48t-126.5 133l-111 -525h-289zM346 418q0 -104 58.5 -166t156.5 -62q130 0 216.5 123t86.5 308 q0 113 -56.5 174t-160.5 61q-76 0 -137 -43.5t-95 -111t-51.5 -141t-17.5 -142.5z" />
<glyph unicode="&#x441;" d="M27 428q0 135 41.5 254t117.5 208.5t191.5 141t255.5 51.5q96 0 177.5 -23.5t144.5 -70.5t99 -123.5t36 -175.5h-281q0 90 -48 136t-138 46q-65 0 -119 -29.5t-88.5 -76t-58.5 -107t-34 -120.5t-10 -119q0 -242 211 -242q169 0 230 207h286q-54 -207 -186.5 -312.5 t-337.5 -105.5q-233 0 -361 112t-128 349z" />
<glyph unicode="&#x442;" horiz-adv-x="1024" d="M39 838l47 219h985l-47 -219h-348l-178 -838h-289l178 838h-348z" />
<glyph unicode="&#x443;" horiz-adv-x="1062" d="M-123 -371l49 234q57 -13 117 -13q30 0 53 4.5t42.5 17t31.5 22t27 33.5t21.5 36.5t23.5 44.5l-193 1049h297l100 -738l359 738h307l-577 -1061q-85 -156 -122 -207q-85 -116 -203 -152q-71 -22 -165 -22q-89 0 -168 14z" />
<glyph unicode="&#x444;" horiz-adv-x="1732" d="M12 379q0 98 21 196.5t66 190.5t108 163.5t155 114.5t199 43q87 0 141.5 -31t69.5 -77h6l101 479h286l-100 -479h6q35 46 102 77t154 31q150 0 232.5 -109t82.5 -292q0 -100 -22.5 -200t-69 -193t-112.5 -164.5t-160 -114.5t-203 -43q-63 0 -118 29.5t-80 69.5h-7 l-94 -445h-287l95 445h-6q-40 -40 -108.5 -69.5t-131.5 -29.5q-87 0 -151.5 33t-102 91t-55 129t-17.5 155zM303 385q0 -190 150 -190q62 0 112 30t68 72l98 463q-6 58 -47 85t-94 27q-60 0 -110 -34.5t-82 -87.5t-54 -119.5t-31.5 -128.5t-9.5 -117zM920 295 q0 -40 37.5 -70t97.5 -30q75 0 134.5 52.5t93 132t50.5 161.5t17 153q0 178 -146 178q-53 0 -106 -27t-84 -85l-94 -463v-2z" />
<glyph unicode="&#x445;" horiz-adv-x="1062" d="M-156 0l488 563l-240 494h307l125 -297l232 297h327l-440 -510l268 -547h-305l-151 346l-281 -346h-330z" />
<glyph unicode="&#x446;" horiz-adv-x="1251" d="M-20 0l225 1057h289l-179 -834h392l178 834h289l-179 -834h133l-112 -534h-273l66 311h-829z" />
<glyph unicode="&#x447;" horiz-adv-x="1175" d="M74 651q0 55 12 117l59 289h289l-55 -262q-12 -61 -12 -103q0 -57 30 -80.5t101 -23.5q50 0 129.5 10t117.5 20l93 439h288l-223 -1057h-289l88 416q-205 -47 -348 -47q-140 0 -210 76t-70 206z" />
<glyph unicode="&#x448;" horiz-adv-x="1763" d="M-12 0l225 1057h289l-178 -834h315l178 834h289l-178 -834h315l178 834h289l-225 -1057h-1497z" />
<glyph unicode="&#x449;" horiz-adv-x="1781" d="M-16 0l225 1057h289l-179 -834h310l178 834h289l-178 -834h309l178 834h289l-178 -834h133l-113 -534h-272l65 311h-1345z" />
<glyph unicode="&#x44a;" horiz-adv-x="1327" d="M68 834l49 223h602l-80 -369h217q121 0 191 -20q92 -26 146 -104.5t54 -182.5q0 -98 -46.5 -184.5t-125.5 -135.5q-102 -61 -315 -61h-555l178 834h-315zM537 207h229q186 0 186 158q0 38 -13 62.5t-41 36t-58 15.5t-76 4h-170z" />
<glyph unicode="&#x44b;" horiz-adv-x="1593" d="M-10 0l225 1057h289l-80 -369h160q120 0 190 -20q92 -26 146.5 -105t54.5 -182q0 -98 -46.5 -184.5t-125.5 -135.5q-102 -61 -316 -61h-497zM322 207h172q186 0 186 158q0 38 -13 62.5t-41 36t-58 15.5t-76 4h-113zM1024 0l225 1057h289l-225 -1057h-289z" />
<glyph unicode="&#x44c;" horiz-adv-x="1099" d="M-23 0l226 1057h289l-80 -369h217q120 0 190 -20q92 -26 146.5 -105t54.5 -182q0 -98 -46.5 -184.5t-125.5 -135.5q-102 -61 -316 -61h-555zM309 207h230q186 0 186 158q0 38 -13 62.5t-41 36t-58 15.5t-76 4h-170z" />
<glyph unicode="&#x44d;" d="M-8 360h280q0 -90 48.5 -136t138.5 -46q76 0 136 40t94 98.5t54 134.5h-337l38 184h324q-3 237 -211 237q-146 0 -213 -157h-289q121 368 510 368q234 0 362 -112t128 -348q0 -182 -70.5 -329.5t-210 -237t-325.5 -89.5q-96 0 -177.5 23.5t-144.5 70.5t-99 123.5 t-36 175.5z" />
<glyph unicode="&#x44e;" horiz-adv-x="1712" d="M-12 0l225 1057h289l-84 -395h200q60 190 202.5 307.5t346.5 117.5q214 0 332.5 -115t118.5 -325q0 -134 -39.5 -255t-112.5 -216.5t-187.5 -152t-254.5 -56.5q-209 0 -326.5 115t-117.5 330q0 25 2 37h-211l-95 -449h-288zM860 408q0 -109 48 -168.5t136 -59.5 q60 0 111 34t83 86t55 117t32.5 124.5t9.5 111.5q0 105 -47 163t-133 58q-74 0 -133.5 -49.5t-93 -124.5t-51 -151t-17.5 -141z" />
<glyph unicode="&#x44f;" horiz-adv-x="1175" d="M-158 0l430 434q-182 67 -182 260q0 94 43.5 176.5t116.5 126.5q95 60 293 60h575l-225 -1057h-285l82 391h-147l-357 -391h-344zM383 707q0 -30 9.5 -50.5t23.5 -32t38 -17.5t44 -7.5t51 -1.5h186l53 252h-241q-74 0 -119 -34.5t-45 -108.5z" />
<glyph unicode="&#x451;" horiz-adv-x="1175" d="M20 438q0 282 170 464.5t431 182.5q219 0 346 -123.5t127 -336.5q0 -57 -17 -168h-778q-2 -23 -2 -49q0 -112 59.5 -175t165.5 -63q162 0 226 152h284q-52 -180 -191.5 -268.5t-336.5 -88.5q-232 0 -358 122t-126 351zM328 633h491v31q0 101 -55 159t-152 58 q-103 0 -178 -65.5t-106 -182.5zM348 1204l51 242h271l-52 -242h-270zM748 1204l51 242h270l-49 -242h-272z" />
<glyph unicode="&#x452;" horiz-adv-x="1175" d="M-10 0l188 891h-121l43 196h121l78 371h287l-78 -371h498l-43 -196h-498l-57 -266q71 82 164 127t196 45q136 1 223.5 -74.5t87.5 -192.5q0 -61 -22 -182l-35 -172q-53 -265 -226 -409.5t-493 -151.5l53 250q81 6 137.5 22.5t106.5 52t83 98.5t52 157l23 110 q16 75 16 125q0 64 -38 99.5t-107 35.5q-66 0 -118 -25.5t-87 -70.5t-57 -96.5t-35 -114.5l-56 -258h-286z" />
<glyph unicode="&#x453;" horiz-adv-x="927" d="M-10 0l225 1057h799l-47 -219h-510l-178 -838h-289zM420 1194l209 295h329l-333 -295h-205z" />
<glyph unicode="&#x454;" d="M27 428q0 135 41.5 254t117.5 208.5t191.5 141t255.5 51.5q93 0 172.5 -22t142 -65.5t100.5 -115.5t42 -165h-281q-15 157 -186 157q-101 0 -169.5 -64.5t-105.5 -168.5h342l-39 -184h-338v-35q0 -242 211 -242q157 0 221 182h289q-115 -393 -518 -393q-233 0 -361 112 t-128 349z" />
<glyph unicode="&#x455;" horiz-adv-x="1062" d="M-20 311v31h270v-8q0 -81 54.5 -123.5t156.5 -42.5q85 0 135.5 34.5t50.5 92.5q0 59 -52.5 87t-218.5 77l-9 3t-8 2.5t-9 2.5q-132 40 -194 107t-62 171q0 157 126 248.5t343 91.5q201 0 314.5 -81t113.5 -226q0 -20 -2 -30h-268q0 82 -44.5 116.5t-129.5 34.5 q-76 0 -122 -31t-46 -82q0 -55 46.5 -79.5t206.5 -68.5q21 -6 32 -9q268 -74 268 -293q0 -96 -45 -169.5t-118.5 -115t-157.5 -62t-173 -20.5q-215 0 -336.5 91t-121.5 251z" />
<glyph unicode="&#x456;" horiz-adv-x="530" d="M-29 0l224 1057h290l-223 -1057h-291zM231 1219l50 239h290l-51 -239h-289z" />
<glyph unicode="&#x457;" horiz-adv-x="530" d="M-29 0l224 1057h290l-223 -1057h-291zM37 1206l51 242h270l-51 -242h-270zM436 1206l51 242h271l-49 -242h-273z" />
<glyph unicode="&#x458;" horiz-adv-x="530" d="M-276 -375l49 230q34 -5 67 -5q62 0 85.5 28t39.5 104l230 1075h290l-227 -1073q-18 -84 -37 -140t-48.5 -102.5t-71 -72.5t-100.5 -40t-140 -14q-73 0 -137 10zM231 1219l50 239h290l-51 -239h-289z" />
<glyph unicode="&#x459;" horiz-adv-x="1683" d="M-98 -8l49 227q30 -10 82 -10q65 0 105 55t77 211l139 582h793l-84 -389h164q111 0 184 -21q88 -24 140.5 -100.5t52.5 -175.5q0 -97 -44.5 -181t-121.5 -131q-60 -37 -135 -48t-170 -11h-500l178 838h-221l-94 -377q-15 -62 -28.5 -107t-35 -99.5t-44.5 -92.5 t-56.5 -76.5t-73 -62t-93 -38t-116.5 -14.5q-29 0 -78 7.5t-69 13.5zM965 209h172q79 0 125.5 35t46.5 108q0 67 -43 88t-131 21h-115z" />
<glyph unicode="&#x45a;" horiz-adv-x="1683" d="M-12 0l225 1057h289l-82 -383h346l82 383h289l-84 -389h174q111 0 184 -21q88 -24 140.5 -100.5t52.5 -175.5q0 -97 -44.5 -181t-121.5 -131q-60 -37 -135 -48t-170 -11h-510l98 461h-346l-99 -461h-288zM954 209h183q79 0 125.5 35t46.5 108q0 67 -43 88t-131 21h-125z " />
<glyph unicode="&#x45b;" horiz-adv-x="1175" d="M-10 0l188 891h-121l43 196h121l78 371h287l-78 -371h498l-43 -196h-498l-57 -266q71 82 164 127t196 45q136 1 223.5 -74.5t87.5 -192.5q0 -78 -22 -182l-76 -348h-291l68 305q16 75 16 125q0 64 -38 99.5t-107 35.5q-66 0 -118 -25.5t-87 -70.5t-57 -96.5t-35 -114.5 l-56 -258h-286z" />
<glyph unicode="&#x45c;" d="M-8 0l225 1057h285l-84 -391l424 391h368l-485 -416l281 -641h-322l-180 453l-160 -138l-68 -315h-284zM461 1194l209 295h329l-333 -295h-205z" />
<glyph unicode="&#x45e;" horiz-adv-x="1062" d="M-123 -371l49 234q57 -13 117 -13q30 0 53 4.5t42.5 17t31.5 22t27 33.5t21.5 36.5t23.5 44.5l-193 1049h297l100 -738l359 738h307l-577 -1061q-85 -156 -122 -207q-85 -116 -203 -152q-71 -22 -165 -22q-89 0 -168 14zM293 1399q0 19 4 59h115q4 -68 58 -101.5 t142 -33.5q91 0 157.5 33t80.5 102h115q-41 -295 -363 -295q-142 0 -225.5 58t-83.5 178z" />
<glyph unicode="&#x45f;" horiz-adv-x="1251" d="M-12 0l225 1057h289l-178 -834h407l178 834h289l-225 -1057h-355l-65 -311h-274l65 311h-356z" />
<glyph unicode="&#x490;" horiz-adv-x="1175" d="M-8 0l309 1458h709l69 326h310l-127 -598h-699l-252 -1186h-319z" />
<glyph unicode="&#x491;" horiz-adv-x="927" d="M-10 0l225 1057h524l62 291h274l-108 -514h-510l-178 -834h-289z" />
<glyph unicode="&#x2000;" horiz-adv-x="925" />
<glyph unicode="&#x2001;" horiz-adv-x="1851" />
<glyph unicode="&#x2002;" horiz-adv-x="925" />
<glyph unicode="&#x2003;" horiz-adv-x="1851" />
<glyph unicode="&#x2004;" horiz-adv-x="617" />
<glyph unicode="&#x2005;" horiz-adv-x="462" />
<glyph unicode="&#x2006;" horiz-adv-x="308" />
<glyph unicode="&#x2007;" horiz-adv-x="308" />
<glyph unicode="&#x2008;" horiz-adv-x="231" />
<glyph unicode="&#x2009;" horiz-adv-x="370" />
<glyph unicode="&#x200a;" horiz-adv-x="102" />
<glyph unicode="&#x2010;" horiz-adv-x="833" d="M49 432l55 252h617l-55 -252h-617z" />
<glyph unicode="&#x2011;" horiz-adv-x="833" d="M49 432l55 252h617l-55 -252h-617z" />
<glyph unicode="&#x2012;" horiz-adv-x="833" d="M49 432l55 252h617l-55 -252h-617z" />
<glyph unicode="&#x2013;" horiz-adv-x="1024" d="M-53 434l51 246h1022l-53 -246h-1020z" />
<glyph unicode="&#x2014;" horiz-adv-x="2048" d="M-51 434l51 246h2044l-53 -246h-2042z" />
<glyph unicode="&#x2018;" horiz-adv-x="569" d="M162 827l55 258q20 94 47 160.5t71.5 122t114 83.5t164.5 28h11l-31 -144q-95 -13 -130 -53.5t-58 -142.5h145l-66 -312h-323z" />
<glyph unicode="&#x2019;" horiz-adv-x="569" d="M139 805l33 147q89 4 126 49t60 144h-145l66 313h323l-55 -270q-38 -185 -132 -284t-270 -99h-6z" />
<glyph unicode="&#x201a;" horiz-adv-x="569" d="M-90 -338l31 141q84 13 120 57.5t58 139.5h-139l67 307h293l-57 -274q-36 -176 -120.5 -268.5t-252.5 -102.5z" />
<glyph unicode="&#x201c;" horiz-adv-x="985" d="M164 834l67 294q38 166 122.5 254.5t242.5 92.5l-31 -136q-88 -17 -124 -60t-52 -138h135l-65 -307h-295zM600 834l68 294q38 166 122 254.5t242 92.5l-31 -136q-88 -17 -124 -60t-52 -138h136l-66 -307h-295z" />
<glyph unicode="&#x201d;" horiz-adv-x="985" d="M164 813l31 139q60 12 96 38t53 62t29 97h-137l65 309h295l-61 -282q-40 -183 -127 -268.5t-244 -94.5zM598 813l31 137q90 21 124 62.5t54 136.5h-135l63 309h293l-59 -278q-38 -174 -122 -265.5t-249 -101.5z" />
<glyph unicode="&#x201e;" horiz-adv-x="985" d="M-117 -338l29 141q86 13 122.5 58t55.5 139h-137l65 307h295l-59 -274q-38 -177 -121 -269t-250 -102zM317 -338l29 141q86 13 122.5 58t55.5 139h-137l66 307h295l-60 -274q-38 -177 -121 -269t-250 -102z" />
<glyph unicode="&#x2020;" horiz-adv-x="1214" d="M111 811l51 242h379l86 405h278l-86 -405h383l-51 -242h-383l-242 -1149h-278l241 1149h-378z" />
<glyph unicode="&#x2021;" horiz-adv-x="1214" d="M-47 57l49 236h379l113 534h-377l49 236h377l86 395h276l-84 -395h385l-49 -236h-385l-113 -534h383l-49 -236h-385l-84 -393h-276l84 393h-379z" />
<glyph unicode="&#x2022;" horiz-adv-x="1024" d="M147 729q0 151 107 258t258 107t258 -107t107 -258t-107 -257.5t-258 -106.5t-258 106.5t-107 257.5z" />
<glyph unicode="&#x2026;" horiz-adv-x="2048" d="M61 0l58 274h252l-58 -274h-252zM743 0l58 274h252l-58 -274h-252zM1425 0l58 274h252l-58 -274h-252z" />
<glyph unicode="&#x202f;" horiz-adv-x="370" />
<glyph unicode="&#x2030;" horiz-adv-x="2314" d="M139 -55l1102 1528h191l-1102 -1528h-191zM143 1010q0 65 13 126.5t41 117.5t68 98t98.5 67t128.5 25q132 0 200 -68t68 -200q0 -191 -99 -314t-253 -123q-124 0 -194.5 72.5t-70.5 198.5zM322 987q0 -54 24.5 -83.5t67.5 -29.5q57 0 92 50q31 46 51.5 126.5t20.5 157.5 q0 47 -25 75t-66 28q-28 0 -55 -17q-43 -26 -76.5 -119t-33.5 -188zM825 244q0 62 13 123.5t41 118t67.5 99.5t96.5 69t124 26q132 0 203.5 -67.5t71.5 -192.5q0 -86 -21.5 -163.5t-63.5 -141t-113 -101t-161 -37.5q-122 0 -190 72t-68 195zM1004 225q0 -114 96 -114 q50 0 88 49q30 41 51 119t21 149q0 57 -24.5 88t-70.5 31q-53 0 -90 -55q-28 -40 -49.5 -122t-21.5 -145zM1544 246q0 80 21.5 156t62.5 139.5t109 102t153 38.5h4q126 0 197.5 -69t71.5 -191q0 -85 -22 -162.5t-64 -141.5t-113 -102.5t-160 -38.5q-121 0 -190.5 72 t-69.5 197zM1722 219q0 -50 26 -79t69 -29t73 30q39 40 64.5 122.5t25.5 170.5q0 54 -24.5 83.5t-67.5 29.5q-41 0 -71 -27q-38 -35 -66.5 -124.5t-28.5 -176.5z" />
<glyph unicode="&#x2039;" horiz-adv-x="530" d="M35 428l57 264l367 234l-49 -250l-226 -139l158 -172l-47 -220z" />
<glyph unicode="&#x203a;" horiz-adv-x="530" d="M-10 145l49 250l225 142l-158 170l48 221l262 -287l-60 -260z" />
<glyph unicode="&#x205f;" horiz-adv-x="462" />
<glyph unicode="&#x2122;" horiz-adv-x="2027" d="M279 1319v139h614v-139h-219v-590h-172v590h-223zM989 729v729h246l178 -502l178 502h242v-729h-158v594l-207 -594h-114l-207 594v-594h-158z" />
<glyph unicode="&#x2206;" horiz-adv-x="1398" d="M-123 0l864 1423h226l272 -1423h-1362zM229 199h764l-178 1005z" />
<glyph unicode="&#x221a;" horiz-adv-x="1228" d="M-6 342l323 133l271 -575l350 1710h256l-434 -2048h-268l-316 653l-100 -47z" />
<glyph unicode="&#x221e;" horiz-adv-x="1650" d="M51 532q0 160 93.5 260.5t242.5 100.5q63 0 120 -19t107.5 -56.5t88 -74.5t83.5 -92q40 45 66 73t68 64.5t78 56.5t84.5 35t99.5 15q150 0 244 -99.5t94 -258.5q0 -163 -93.5 -264t-244.5 -101q-50 0 -98 13.5t-83.5 32t-78.5 53t-68 59.5t-68 69q-102 -102 -144 -135 q-116 -90 -249 -90q-151 0 -246.5 99.5t-95.5 258.5zM244 530q0 -70 40.5 -111.5t108.5 -41.5q63 0 133 44t125 107q-48 46 -82.5 75.5t-86 57t-95.5 27.5q-62 0 -102.5 -44.5t-40.5 -113.5zM922 526q48 -47 80.5 -74t83 -52t98.5 -25q65 0 104 42.5t39 112.5 q0 72 -40.5 116t-106.5 44q-43 0 -93.5 -28t-84.5 -58.5t-80 -77.5z" />
<glyph unicode="&#x2248;" horiz-adv-x="1228" d="M14 141q4 54 16 102.5t35.5 97t56.5 83.5t83 56.5t112 21.5q33 0 73 -8t64 -15t74 -24.5t64 -22.5q4 -1 36.5 -12.5t46 -15.5t44 -13.5t49 -13.5t42 -8t40.5 -4q101 0 125 137h153q-7 -73 -26 -133.5t-54 -113.5t-93.5 -82.5t-135.5 -29.5q-44 0 -106.5 14.5t-105.5 28.5 t-121.5 42.5t-98.5 35.5q-65 21 -92 21q-54 0 -85 -43t-42 -101h-154zM18 557q6 68 24.5 128t52.5 114.5t92.5 86.5t134.5 32q33 0 72.5 -8t64 -15.5t73.5 -24.5t64 -22q3 -1 43.5 -15t58 -19.5t51.5 -15.5t59.5 -14t45.5 -4q101 0 125 138h154q-6 -58 -18.5 -107.5 t-36.5 -97t-58 -81t-84.5 -53.5t-112.5 -20q-44 0 -106.5 14.5t-105.5 28.5t-121.5 42.5t-98.5 35.5q-62 20 -92 20q-54 0 -85 -42.5t-42 -100.5h-154z" />
<glyph unicode="&#x2260;" horiz-adv-x="1228" d="M49 203v229h348l101 199h-449v229h565l168 332l213 -107l-114 -225h233v-229h-350l-102 -199h452v-229h-569l-168 -334l-213 106l117 228h-232z" />
<glyph unicode="&#x2264;" horiz-adv-x="1228" d="M43 -72v228h1063v-228h-1063zM43 559v209l1063 367v-240l-739 -231l739 -220v-239z" />
<glyph unicode="&#x2265;" horiz-adv-x="1228" d="M82 -72v228h1063v-228h-1063zM82 205v239l737 220l-737 231v240l1063 -367v-209z" />
<glyph unicode="&#x25fc;" horiz-adv-x="1054" d="M0 0v1055h1055v-1055h-1055z" />
</font>
</defs>
</svg>
