<svg id="Layer_1" xmlns="http://www.w3.org/2000/svg" viewBox="0 0 16 19"><style>.st0{fill-rule:evenodd;clip-rule:evenodd;fill:#303031}</style><g id="XMLID_2_"><g id="XMLID_61_"><path id="XMLID_62_" class="st0" d="M8 4C5.8 4 4 5.8 4 8s1.8 4 4 4 4-1.8 4-4-1.8-4-4-4zm0 6c-1.1 0-2-.9-2-2s.9-2 2-2 2 .9 2 2-.9 2-2 2zM8 0C3.6 0 0 3.6 0 8c0 2.2.8 4.2 2.3 5.7l4.9 5c.2.2.5.3.8.3.2 0 .5-.1.6-.3l4.9-5 .1-.1C15.2 12.1 16 10.1 16 8c0-4.4-3.6-8-8-8zm4.3 12.6c-.1 0-.1 0 0 0L8 17l-4.2-4.4C2.6 11.5 2 9.9 2 8.2 2 4.8 4.7 2 8 2s6 2.8 6 6.2c0 1.6-.6 3.2-1.7 4.4z"/></g></g></svg>