<svg id="Layer_1" xmlns="http://www.w3.org/2000/svg" viewBox="0 0 24 18"><style>.st0{fill-rule:evenodd;clip-rule:evenodd;fill:#303031}</style><g id="XMLID_2_"><g id="XMLID_56_"><path id="XMLID_57_" class="st0" d="M22 9.8V6h-.3c-.8-2.3-3-4-5.7-4-.3 0-.6 0-1 .1C14.1.8 12.7 0 11 0 8.2 0 6 2.2 6 5c0 .3 0 .7.1 1H6c-3.3 0-6 2.7-6 6 0 3 2.2 5.4 5 5.9v.1h16v-.3c1.7-.6 3-2.3 3-4.2 0-1.6-.8-2.9-2-3.7zm-2 6.1L5 16v-.1c-1.7-.4-3-2-3-3.9s1.3-3.4 3-3.9V8h1.2c.3-.9 1.1-1.6 2.1-1.9C8.1 5.8 8 5.4 8 5c0-1.7 1.3-3 3-3 1.5 0 2.8 1.1 3 2.6.6-.4 1.3-.6 2-.6 2.2 0 4 1.8 4 4v3.1c1.1.2 2 1.2 2 2.4s-.9 2.2-2 2.4z"/></g></g></svg>