<svg id="Layer_1" xmlns="http://www.w3.org/2000/svg" viewBox="0 0 17 10"><style>.st0{display:none}.st1{display:inline}.st2{fill-rule:evenodd;clip-rule:evenodd;fill:#eff0f0}</style><g id="XMLID_2_" class="st0"><g id="XMLID_22_" class="st1"><path id="XMLID_24_" class="st2" d="M16.6 7.5l-7-7C9-.1 8-.1 7.4.4l-7 7C-.1 8-.1 9 .4 9.6c.6.6 1.5.6 2.1 0l6-6 6 6c.6.6 1.5.6 2.1 0 .5-.6.5-1.6 0-2.1z"/></g></g><g id="XMLID_9_"><g id="XMLID_33_"><path id="XMLID_35_" class="st2" d="M16.6.4c-.6-.6-1.5-.6-2.1 0l-6 6-6-6C2-.1 1-.1.4.4-.1 1-.1 2 .4 2.5l7 7c.6.6 1.5.6 2.1 0l7-7c.6-.5.6-1.5.1-2.1z"/></g></g></svg>