<svg xmlns="http://www.w3.org/2000/svg" viewBox="0 0 20 20"><style>.st0{display:none}.st1{display:inline}.st2,.st3{fill-rule:evenodd;clip-rule:evenodd;fill:#fff}.st3{display:none;fill:#303031}</style><g id="Layer_1"><g id="XMLID_2_" class="st0"><g id="XMLID_25_" class="st1"><path id="XMLID_26_" class="st2" d="M10 0C8.9 0 8 .9 8 2v16c0 1.1.9 2 2 2s2-.9 2-2V2c0-1.1-.9-2-2-2z"/></g></g><path id="XMLID_3_" class="st3" d="M2 7.7h16c1.1 0 2 1 2 2.2s-.9 2.1-2 2.1H2c-1.1 0-2-1-2-2.2s.9-2.1 2-2.1z"/></g><g id="Layer_2"><path id="XMLID_7_" class="st2" d="M2 8h16c1.1 0 2 .9 2 2s-.9 2-2 2H2c-1.1 0-2-.9-2-2s.9-2 2-2z"/></g></svg>