<svg id="Layer_1" xmlns="http://www.w3.org/2000/svg" viewBox="0 0 28 24"><style>.st0{fill:#6fc2d9}</style><g id="XMLID_29_"><path id="XMLID_30_" class="st0" d="M25.4 11c.5-2.2.1-4.3-1.1-6-1.2-1.6-3.2-2.5-5.3-2.5-1 0-2.1.2-3.1.6-1.1-1-2.6-1.6-4.1-1.6-3.3 0-6 2.5-6.2 5.7-2.9.5-5.1 3-5.1 6s2.2 5.6 5.1 6c1.1 2 3.1 3.2 5.4 3.2 1.6 0 3.1-.6 4.2-1.7.3.1.6.1.9.1 1.7 0 3.2-.8 4.1-2.1.5.1 1 .2 1.5.2 2.7 0 4.8-2.2 4.8-4.8 0-1.1-.4-2.2-1.1-3.1zm-8.9 2.4c.4.4.4 1 0 1.4-.2.2-.5.3-.7.3-.3 0-.5-.1-.7-.3l-1.4-1.4-1.4 1.4c-.2.2-.5.3-.7.3s-.5-.1-.7-.3c-.4-.4-.4-1 0-1.4l1.4-1.4-1.4-1.4c-.4-.4-.4-1 0-1.4.4-.4 1-.4 1.4 0l1.4 1.4 1.4-1.4c.4-.4 1-.4 1.4 0 .4.4.4 1 0 1.4L15.1 12l1.4 1.4z"/></g></svg>