<svg id="Layer_1" xmlns="http://www.w3.org/2000/svg" viewBox="0 0 22 22"><style>.st0{fill-rule:evenodd;clip-rule:evenodd;fill:#303031}</style><g id="XMLID_80_"><path id="XMLID_81_" class="st0" d="M17.4 6.1l1.4-1.4c.4-.4.4-1 0-1.4-.4-.4-1-.4-1.4 0L16 4.7c-.4.4-.4 1 0 1.4.3.3 1 .3 1.4 0zM4.6 15.9l-1.4 1.4c-.4.4-.4 1 0 1.4.4.4 1 .4 1.4 0L6 17.4c.4-.4.4-1 0-1.4-.3-.4-1-.4-1.4-.1zM4 11c0-.6-.4-1-1-1H1c-.6 0-1 .4-1 1s.4 1 1 1h2c.6 0 1-.4 1-1zm7-7c.6 0 1-.4 1-1V1c0-.6-.4-1-1-1s-1 .4-1 1v2c0 .6.4 1 1 1zm10 6h-2c-.6 0-1 .4-1 1s.4 1 1 1h2c.6 0 1-.4 1-1s-.4-1-1-1zm-10 8c-.6 0-1 .4-1 1v2c0 .6.4 1 1 1s1-.4 1-1v-2c0-.6-.4-1-1-1zm6.4-2.1c-.4-.4-1-.4-1.4 0-.4.4-.4 1 0 1.4l1.4 1.4c.4.4 1 .4 1.4 0 .4-.4.4-1 0-1.4l-1.4-1.4zM11 6c-2.8 0-5 2.2-5 5s2.2 5 5 5 5-2.2 5-5-2.2-5-5-5zm0 8c-1.7 0-3-1.3-3-3s1.3-3 3-3 3 1.3 3 3-1.3 3-3 3zM4.6 6.1c.4.4 1 .4 1.4 0 .4-.4.4-1 0-1.4L4.6 3.2c-.4-.4-1-.4-1.4 0-.4.4-.4 1 0 1.4l1.4 1.5z"/></g></svg>