<svg id="Layer_1" xmlns="http://www.w3.org/2000/svg" viewBox="0 0 20 20"><style>.st0{fill-rule:evenodd;clip-rule:evenodd;fill:#303031}</style><g id="XMLID_50_"><path id="XMLID_51_" class="st0" d="M9 5h2c.6 0 1-.4 1-1s-.4-1-1-1H9c-.6 0-1 .4-1 1s.4 1 1 1zm8-2c-.6 0-1 .4-1 1s.4 1 1 1 1 .4 1 1v2H2V6c0-.6.4-1 1-1s1-.4 1-1-.4-1-1-1C1.3 3 0 4.3 0 6v11c0 1.7 1.3 3 3 3h14c1.7 0 3-1.3 3-3V6c0-1.7-1.3-3-3-3zm1 14c0 .6-.4 1-1 1H3c-.6 0-1-.4-1-1v-7h16v7zM6 6c.6 0 1-.4 1-1V0H5v5c0 .6.4 1 1 1zm8 0c.6 0 1-.4 1-1V0h-2v5c0 .6.4 1 1 1z"/></g></svg>